<svg xmlns="http://www.w3.org/2000/svg" width="960" height="360" viewBox="0 0 960 360"><defs><style>.cls-1{fill:#fafafd;}.cls-2{fill:#dadcde;}.cls-3{fill:#373039;}.cls-4{fill:#86c0de;}.cls-5,.cls-6{stroke-width:5px;}.cls-5,.cls-6,.cls-7,.cls-8,.cls-9,.cls-10,.cls-11{fill:none;stroke-miterlimit:10;}.cls-5,.cls-9{stroke:#dadcde;}.cls-6,.cls-10{stroke:#86c0de;}.cls-7{stroke-dasharray:0 0 2 2;}.cls-7,.cls-8,.cls-11{stroke:#373039;}.cls-8,.cls-9,.cls-10{stroke-width:2px;}</style></defs><g id="bg"><rect class="cls-1" y="37" width="960" height="80"/><rect class="cls-1" y="225" width="960" height="80"/></g><g id="icon"><g><line class="cls-8" x1="55" y1="82" x2="55" y2="72"/><line class="cls-8" x1="905" y1="77" x2="55" y2="77"/><line class="cls-8" x1="905" y1="72" x2="905" y2="82"/><line class="cls-11" x1="820" y1="72" x2="820" y2="82"/><line class="cls-11" x1="735" y1="72" x2="735" y2="82"/><line class="cls-11" x1="650" y1="72" x2="650" y2="82"/><line class="cls-11" x1="565" y1="72" x2="565" y2="82"/><line class="cls-11" x1="480" y1="72" x2="480" y2="82"/><line class="cls-11" x1="395" y1="72" x2="395" y2="82"/><line class="cls-11" x1="310" y1="72" x2="310" y2="82"/><line class="cls-11" x1="225" y1="72" x2="225" y2="82"/><line class="cls-11" x1="140" y1="72" x2="140" y2="82"/></g><g><line class="cls-6" x1="290.25" y1="96" x2="669.75" y2="96"/><rect class="cls-4" x="288.75" y="86.25" width="3" height="19.5"/><rect class="cls-4" x="668.25" y="86.25" width="3" height="19.5"/></g><g><line class="cls-5" x1="56.5" y1="96" x2="244.75" y2="96"/><rect class="cls-2" x="55" y="86.25" width="3" height="19.5"/><rect class="cls-2" x="243.25" y="86.25" width="3" height="19.5"/></g><g><line class="cls-5" x1="715.25" y1="96" x2="903.5" y2="96"/><rect class="cls-2" x="713.75" y="86.25" width="3" height="19.5"/><rect class="cls-2" x="902" y="86.25" width="3" height="19.5"/></g><g><line class="cls-10" x1="248.536" y1="117" x2="286.464" y2="117"/><polygon class="cls-4" points="252.52 120.391 249.127 117 252.52 113.609 249.641 113.609 246.25 117 249.641 120.391 252.52 120.391"/><polygon class="cls-4" points="282.48 120.391 285.873 117 282.48 113.609 285.359 113.609 288.75 117 285.359 120.391 282.48 120.391"/></g><g><line class="cls-10" x1="673.536" y1="117" x2="711.464" y2="117"/><polygon class="cls-4" points="677.52 120.391 674.127 117 677.52 113.609 674.641 113.609 671.25 117 674.641 120.391 677.52 120.391"/><polygon class="cls-4" points="707.48 120.391 710.873 117 707.48 113.609 710.359 113.609 713.75 117 710.359 120.391 707.48 120.391"/></g><g><line class="cls-8" x1="55" y1="270" x2="55" y2="260"/><line class="cls-8" x1="905" y1="265" x2="55" y2="265"/><line class="cls-8" x1="905" y1="260" x2="905" y2="270"/><line class="cls-11" x1="820" y1="260" x2="820" y2="270"/><line class="cls-11" x1="735" y1="260" x2="735" y2="270"/><line class="cls-11" x1="650" y1="260" x2="650" y2="270"/><line class="cls-11" x1="565" y1="260" x2="565" y2="270"/><line class="cls-11" x1="480" y1="260" x2="480" y2="270"/><line class="cls-11" x1="395" y1="260" x2="395" y2="270"/><line class="cls-11" x1="310" y1="260" x2="310" y2="270"/><line class="cls-11" x1="225" y1="260" x2="225" y2="270"/><line class="cls-11" x1="140" y1="260" x2="140" y2="270"/></g><g><line class="cls-6" x1="248.75" y1="284" x2="712.5" y2="284"/><rect class="cls-4" x="247.25" y="274.25" width="3" height="19.5"/><rect class="cls-4" x="711" y="274.25" width="3" height="19.5"/></g><g><line class="cls-5" x1="56.5" y1="284" x2="245.75" y2="284"/><rect class="cls-2" x="55" y="274.25" width="3" height="19.5"/><rect class="cls-2" x="244.25" y="274.25" width="3" height="19.5"/></g><g><line class="cls-5" x1="715.25" y1="284" x2="903.5" y2="284"/><rect class="cls-2" x="713.75" y="274.25" width="3" height="19.5"/><rect class="cls-2" x="902" y="274.25" width="3" height="19.5"/></g><g><line class="cls-10" x1="246.25" y1="305" x2="711.464" y2="305"/><polygon class="cls-4" points="707.48 308.391 710.873 305 707.48 301.609 710.359 301.609 713.75 305 710.359 308.391 707.48 308.391"/></g><g><line class="cls-9" x1="714" y1="305" x2="902.714" y2="305"/><polygon class="cls-2" points="898.73 308.391 902.123 305 898.73 301.609 901.609 301.609 905 305 901.609 308.391 898.73 308.391"/></g></g><g id="dot"><line class="cls-7" x1="692.75" y1="72" x2="692.75" y2="111"/><line class="cls-7" x1="267.75" y1="72" x2="267.75" y2="111"/><line class="cls-7" x1="714" y1="260" x2="714" y2="270"/><line class="cls-7" x1="247.25" y1="260" x2="247.25" y2="270"/><line class="cls-7" x1="54.75" y1="82" x2="54.75" y2="261"/><line class="cls-7" x1="904.75" y1="82" x2="904.75" y2="261"/></g><g id="text"><g><path class="cls-3" d="m50.251,62.192c-.757,0-1.408-.211-1.952-.632-.544-.422-.965-1.026-1.264-1.816-.299-.789-.448-1.749-.448-2.88,0-1.717.328-3.024.984-3.92.656-.896,1.549-1.344,2.68-1.344,1.142,0,2.037.447,2.688,1.344.65.896.976,2.203.976,3.92,0,1.131-.146,2.091-.439,2.88-.294.79-.715,1.395-1.265,1.816-.549.421-1.202.632-1.96.632Zm0-1.056c.48,0,.901-.152,1.265-.456.362-.305.647-.773.855-1.408s.312-1.438.312-2.408c0-.981-.104-1.781-.312-2.4-.208-.618-.493-1.074-.855-1.367-.363-.294-.784-.44-1.265-.44-.47,0-.888.146-1.256.44-.368.293-.656.749-.864,1.367-.208.619-.312,1.419-.312,2.4,0,.971.104,1.773.312,2.408s.496,1.104.864,1.408c.368.304.786.456,1.256.456Zm0-3.312c-.267,0-.499-.096-.696-.288-.197-.191-.296-.453-.296-.784s.099-.589.296-.775.43-.28.696-.28c.277,0,.512.094.704.28s.288.445.288.775-.096.593-.288.784c-.192.192-.427.288-.704.288Z"/><path class="cls-3" d="m57.604,56.864c-.427,0-.809-.104-1.145-.312-.336-.207-.6-.514-.792-.92-.191-.405-.288-.88-.288-1.424,0-.832.211-1.475.633-1.928.421-.453.951-.68,1.592-.68.65,0,1.184.227,1.6.68s.624,1.096.624,1.928c0,.544-.096,1.019-.288,1.424-.191.406-.456.713-.792.92-.336.208-.718.312-1.144.312Zm-1.424,4.624l-.784-.72,2.928-3.009.528.48-2.672,3.248Zm1.424-5.424c.352,0,.647-.152.888-.456s.36-.771.36-1.4c0-.64-.12-1.104-.36-1.392s-.536-.433-.888-.433c-.342,0-.635.145-.88.433-.246.288-.368.752-.368,1.392,0,.63.122,1.097.368,1.4.245.304.538.456.88.456Zm4.288,6.128c-.427,0-.809-.104-1.145-.312s-.6-.514-.792-.92c-.191-.405-.288-.88-.288-1.424,0-.832.211-1.475.632-1.928.422-.453.952-.68,1.593-.68.65,0,1.184.227,1.6.68s.624,1.096.624,1.928c0,.544-.096,1.019-.288,1.424-.191.406-.456.712-.792.92s-.718.312-1.144.312Zm-.721-6.448l-.527-.479,2.672-3.248.784.72-2.929,3.008Zm.721,5.648c.352,0,.647-.152.888-.456.24-.305.36-.771.36-1.4,0-.64-.12-1.104-.36-1.392s-.536-.433-.888-.433c-.342,0-.635.145-.88.433-.246.288-.368.752-.368,1.392,0,.63.122,1.096.368,1.4.245.304.538.456.88.456Z"/></g><g><path class="cls-3" d="m255.271,65v-.784c1.152-1.013,2.125-1.906,2.92-2.68s1.4-1.469,1.816-2.088c.416-.618.624-1.211.624-1.776,0-.586-.182-1.066-.544-1.439-.363-.373-.923-.561-1.681-.561-.479,0-.925.118-1.336.353-.41.234-.781.527-1.111.88l-.753-.752c.459-.47.952-.846,1.48-1.128s1.154-.424,1.88-.424c.683,0,1.272.125,1.769.376.495.25.88.6,1.151,1.048.272.448.408.976.408,1.584,0,.64-.197,1.285-.592,1.936-.395.651-.947,1.336-1.656,2.057-.709.72-1.528,1.507-2.456,2.359.32-.031.64-.056.96-.071.32-.017.635-.024.944-.024h3.359v1.136h-7.184Z"/><path class="cls-3" d="m267.684,65.192c-.608,0-1.142-.066-1.601-.2-.458-.133-.855-.307-1.191-.52-.336-.214-.632-.438-.888-.673l.655-.863c.225.202.473.392.744.567.272.177.584.32.937.433.352.111.752.168,1.199.168.48,0,.918-.097,1.312-.288.395-.192.706-.461.936-.809.229-.346.345-.76.345-1.239,0-.704-.229-1.254-.688-1.648s-1.066-.592-1.824-.592c-.427,0-.789.054-1.088.16s-.629.262-.992.464l-.704-.448.337-4.912h5.775v1.137h-4.607l-.272,3.023c.288-.128.578-.229.872-.304.293-.074.632-.112,1.016-.112.65,0,1.243.112,1.776.336.533.225.954.573,1.264,1.048s.464,1.08.464,1.816-.179,1.362-.535,1.88c-.357.518-.824.909-1.4,1.176s-1.189.4-1.84.4Z"/><path class="cls-3" d="m274.954,59.864c-.427,0-.809-.104-1.145-.312-.336-.207-.6-.514-.792-.92-.191-.405-.288-.88-.288-1.424,0-.832.211-1.475.633-1.928.421-.453.951-.68,1.592-.68.65,0,1.184.227,1.6.68s.624,1.096.624,1.928c0,.544-.096,1.019-.288,1.424-.191.406-.456.713-.792.92-.336.208-.718.312-1.144.312Zm-1.424,4.624l-.784-.72,2.928-3.009.528.48-2.672,3.248Zm1.424-5.424c.352,0,.647-.152.888-.456s.36-.771.36-1.4c0-.64-.12-1.104-.36-1.392s-.536-.433-.888-.433c-.342,0-.635.145-.88.433-.246.288-.368.752-.368,1.392,0,.63.122,1.097.368,1.4.245.304.538.456.88.456Zm4.288,6.128c-.427,0-.809-.104-1.145-.312s-.6-.514-.792-.92c-.191-.405-.288-.88-.288-1.424,0-.832.211-1.475.632-1.928.422-.453.952-.68,1.593-.68.65,0,1.184.227,1.6.68s.624,1.096.624,1.928c0,.544-.096,1.019-.288,1.424-.191.406-.456.712-.792.92s-.718.312-1.144.312Zm-.721-6.448l-.527-.479,2.672-3.248.784.72-2.929,3.008Zm.721,5.648c.352,0,.647-.152.888-.456.24-.305.36-.771.36-1.4,0-.64-.12-1.104-.36-1.392s-.536-.433-.888-.433c-.342,0-.635.145-.88.433-.246.288-.368.752-.368,1.392,0,.63.122,1.096.368,1.4.245.304.538.456.88.456Z"/></g><g><path class="cls-3" d="m242.906,139.192c-.608,0-1.142-.066-1.601-.2-.458-.133-.855-.307-1.191-.52-.336-.214-.632-.438-.888-.673l.655-.863c.225.202.473.392.744.567.272.177.584.32.937.433.352.111.752.168,1.199.168.48,0,.918-.097,1.312-.288.395-.192.706-.461.936-.809.229-.346.345-.76.345-1.239,0-.704-.229-1.254-.688-1.648s-1.066-.592-1.824-.592c-.427,0-.789.054-1.088.16s-.629.262-.992.464l-.704-.448.337-4.912h5.775v1.137h-4.607l-.272,3.023c.288-.128.578-.229.872-.304.293-.074.632-.112,1.016-.112.65,0,1.243.112,1.776.336.533.225.954.573,1.264,1.048s.464,1.08.464,1.816-.179,1.362-.535,1.88c-.357.518-.824.909-1.4,1.176s-1.189.4-1.84.4Z"/><path class="cls-3" d="m250.177,133.864c-.427,0-.809-.104-1.145-.312-.336-.207-.6-.514-.792-.92-.191-.405-.288-.88-.288-1.424,0-.832.211-1.475.633-1.928.421-.453.951-.68,1.592-.68.65,0,1.184.227,1.6.68s.624,1.096.624,1.928c0,.544-.096,1.019-.288,1.424-.191.406-.456.713-.792.92-.336.208-.718.312-1.144.312Zm-1.424,4.624l-.784-.72,2.928-3.009.528.48-2.672,3.248Zm1.424-5.424c.352,0,.647-.152.888-.456s.36-.771.36-1.4c0-.64-.12-1.104-.36-1.392s-.536-.433-.888-.433c-.342,0-.635.145-.88.433-.246.288-.368.752-.368,1.392,0,.63.122,1.097.368,1.4.245.304.538.456.88.456Zm4.288,6.128c-.427,0-.809-.104-1.145-.312s-.6-.514-.792-.92c-.191-.405-.288-.88-.288-1.424,0-.832.211-1.475.632-1.928.422-.453.952-.68,1.593-.68.65,0,1.184.227,1.6.68s.624,1.096.624,1.928c0,.544-.096,1.019-.288,1.424-.191.406-.456.712-.792.92s-.718.312-1.144.312Zm-.721-6.448l-.527-.479,2.672-3.248.784.72-2.929,3.008Zm.721,5.648c.352,0,.647-.152.888-.456.24-.305.36-.771.36-1.4,0-.64-.12-1.104-.36-1.392s-.536-.433-.888-.433c-.342,0-.635.145-.88.433-.246.288-.368.752-.368,1.392,0,.63.122,1.096.368,1.4.245.304.538.456.88.456Z"/><path class="cls-3" d="m261.027,133.019c-.602.099-1.134.154-1.498.154-.406,0-.603-.266-.603-.546s.196-.561.574-.589c.448-.027.883-.027,1.387-.069l.771-.07c.168-.63.378-1.513.477-2.339.042-.364.336-.547.63-.547s.574.196.574.561c0,.336-.392,1.989-.448,2.199l.631-.056c.069,0,.14-.015.21-.015.826,0,1.807.406,1.807,2.298,0,4.202-2.045,4.636-2.899,4.636-.266,0-1.373-.056-1.373-.742,0-.294.238-.574.574-.574.057,0,.112,0,.169.014.224.057.434.099.63.099,1.751,0,1.765-3.194,1.765-3.432,0-.827-.224-1.275-.868-1.275-.112,0-.322.015-.925.07-.7,2.186-1.639,4.118-2.745,5.688-.182.266-.448.378-.687.378-.322,0-.616-.225-.616-.561,0-.168.07-.351.252-.561.967-1.078,1.892-2.829,2.55-4.776l-.337.056Zm7.774,1.724c-.336-.799-1.05-1.892-2.129-2.479-.168-.098-.252-.238-.252-.393,0-.252.238-.504.561-.504.771,0,2.969,2.073,2.969,3.067,0,.406-.336.673-.644.673-.211,0-.406-.112-.505-.364Z"/><path class="cls-3" d="m274.259,129.405c0,.434-.126,1.204-.225,1.919-.14,1.009-.378,2.017-.378,3.054,0,.603.084,1.19.182,1.19.042,0,.084-.056.141-.196.364-.882.532-1.19.854-1.19.238,0,.476.225.476.49,0,.07-.014.14-.042.21-.714,1.611-.728,2.493-.728,2.55,0,.069.014.182.014.294,0,.63-.504.672-.645.672-.196,0-.393-.098-.532-.35-.588-1.121-.757-2.27-.757-3.376,0-1.247.211-2.423.295-3.418.069-.812.154-1.274.182-1.877.015-.378.309-.561.589-.561.294,0,.574.196.574.574v.015Zm6.065,1.667c.363-.07.686-.154.966-.238.07-.014.141-.028.196-.028.351,0,.603.267.603.547,0,.237-.168.462-.589.56l-1.19.238c0,.435.015.868.042,1.485.015.195.015.392.015.588,0,2.479-.785,4.328-2.788,5.743-.14.098-.294.14-.434.14-.337,0-.603-.266-.603-.56,0-.168.084-.351.308-.49,1.766-1.149,2.367-2.815,2.367-5.099,0,0-.027-1.43-.027-1.611-.589.084-1.177.14-1.737.14-.756,0-1.331-.027-1.331-.602,0-.28.211-.547.603-.547.057,0,.112,0,.168.015.21.042.448.056.715.056.477,0,1.022-.056,1.555-.126v-.645c0-.729-.07-1.009-.126-1.484v-.084c0-.406.28-.603.574-.603.742,0,.742.784.742,1.583,0,.182,0,.392-.014.602l-.014.421Z"/><path class="cls-3" d="m292.671,139.21h-.027c-3.04,0-4.692-2.045-4.692-4.3,0-1.499.728-2.676,1.162-3.193.099-.112.154-.183.154-.225,0-.014-.014-.028-.042-.028s-.154.015-2.228.757c-.35.126-1.303.462-1.625.462-.448,0-.714-.336-.714-.672,0-.28.182-.561.588-.645,3.488-.799,4.23-.994,4.959-1.205.742-.21,2.886-.826,3.937-.826.518,0,.742.351.742.687,0,.504-.547.63-1.135.63h-.28c-.7,0-1.484.225-2.003.406-1.093.393-2.396,1.976-2.396,3.67,0,1.625,1.106,3.138,3.362,3.138h.237c.603,0,.911.337.911.673s-.294.672-.911.672Z"/><path class="cls-3" d="m236.265,158.278c-.42,0-.672-.322-.672-.645,0-.252.154-.504.519-.616,4.524-1.442,5.799-5.688,5.799-6.136,0-.434-.21-.462-1.4-.462-1.388,0-3.278.07-4.932.126h-.027c-.393,0-.603-.308-.603-.603,0-.28.196-.574.603-.588,1.303-.056,2.983-.084,4.482-.084.658,0,1.274,0,1.82.014.896.015,1.527.561,1.527,1.331,0,.182-.028.364-.098.561-.98,2.801-2.704,5.532-6.626,7.018-.14.056-.267.084-.393.084Z"/><path class="cls-3" d="m253.74,157.368c-.868-.015-1.849-.028-2.857-.028-1.526,0-3.096.028-4.286.056h-.028c-.392,0-.574-.238-.574-.49,0-.266.21-.546.616-.561l2.97-.042c.014-.771.014-2.03.014-2.647-.728,0-1.4,0-1.835-.014-.35-.014-.518-.252-.518-.504s.182-.519.532-.519h.014c.504.014,1.093.014,1.709.014.994,0,2.06-.014,2.97-.056h.042c.351,0,.519.252.519.504s-.168.505-.532.519l-1.821.042v.532c0,.757.014,1.583.014,2.115,1.121-.014,2.241-.014,3.138-.014.351,0,.547.266.547.532,0,.28-.196.561-.616.561h-.015Z"/><path class="cls-3" d="m257.518,153.319c-.435,0-.631-.28-.631-.574,0-.309.225-.616.631-.616h8.824c.406,0,.603.294.603.603,0,.294-.196.588-.603.588h-8.824Z"/><path class="cls-3" d="m272.58,157.942c0,.49-.351.742-.687.742-.309,0-.616-.225-.616-.673v-.042c.07-1.597.112-4.748.112-7.214,0-1.078-.015-2.031-.028-2.647v-.014c0-.393.309-.589.616-.589s.631.196.631.603v.014l-.042,3.404h.069c.21,0,2.704.477,3.614,1.232.182.141.252.337.252.519,0,.351-.28.7-.616.7-.126,0-.252-.042-.378-.14-.645-.477-2.186-1.051-2.941-1.177,0,.826-.015,1.667-.015,2.465,0,1.107.015,2.115.028,2.802v.015Zm3.445-7.564c-.237-.252-.966-.687-1.303-.812-.224-.084-.308-.224-.308-.364,0-.238.224-.477.532-.477.224,0,1.877.561,1.877,1.261,0,.295-.238.547-.49.547-.098,0-.21-.057-.309-.154Zm1.205-1.261c-.238-.238-.98-.687-1.331-.799-.224-.07-.322-.224-.322-.364,0-.238.225-.476.532-.476.057,0,1.905.476,1.905,1.232,0,.28-.224.546-.476.546-.112,0-.211-.042-.309-.14Z"/><path class="cls-3" d="m284.56,157.914c.014-1.19.084-3.698.084-5.365-1.19,1.177-2.479,2.172-4.034,3.124-.238.14-.448.196-.631.196-.392,0-.63-.28-.63-.589,0-.21.112-.42.378-.56,2.676-1.359,5.323-3.895,6.934-6.43.168-.267.393-.364.589-.364.336,0,.616.266.616.588,0,.126-.042.267-.141.406-.644.854-1.26,1.625-1.877,2.34-.027.938-.042,2.857-.042,4.482,0,.854,0,1.639.015,2.129.014.574-.406.729-.658.729-.309,0-.603-.21-.603-.673v-.014Z"/><path class="cls-3" d="m293.981,152.031c-.519-.505-1.472-.967-2.144-1.149-.267-.069-.378-.28-.378-.504,0-.309.237-.645.644-.645.238,0,1.751.448,2.746,1.205.196.154.28.336.28.532,0,.392-.322.771-.7.771-.141,0-.309-.07-.448-.21Zm-1.303,5.841c-.435,0-.701-.322-.701-.658,0-.28.196-.574.616-.687,2.914-.742,5.688-3.39,7.074-6.205.126-.267.364-.379.589-.379.321,0,.63.225.63.616,0,.127-.042.28-.126.448-2.914,5.478-7.662,6.864-8.082,6.864Z"/></g><g><path class="cls-3" d="m443.603,122.192c-.683,0-1.314-.16-1.896-.48-.582-.319-1.051-.783-1.408-1.392s-.536-1.339-.536-2.192c0-.874.179-1.615.536-2.224s.826-1.072,1.408-1.392c.581-.32,1.213-.48,1.896-.48s1.314.16,1.896.48c.581.319,1.05.783,1.407,1.392s.536,1.35.536,2.224c0,.854-.179,1.584-.536,2.192s-.826,1.072-1.407,1.392c-.582.32-1.214.48-1.896.48Zm0-1.088c.501,0,.938-.126,1.312-.376.373-.251.661-.601.863-1.048.203-.448.305-.966.305-1.553,0-.597-.102-1.122-.305-1.576-.202-.453-.49-.805-.863-1.056-.374-.25-.812-.376-1.312-.376s-.936.126-1.304.376c-.368.251-.656.603-.864,1.056-.208.454-.312.979-.312,1.576,0,.587.104,1.104.312,1.553.208.447.496.797.864,1.048.368.25.803.376,1.304.376Z"/><path class="cls-3" d="m449.728,125.28v-11.056h1.088l.112.991h.048c.362-.341.781-.624,1.256-.848s.952-.336,1.432-.336c.704,0,1.293.163,1.769.488.474.325.834.784,1.08,1.376.245.592.367,1.293.367,2.104,0,.875-.165,1.627-.496,2.256-.33.63-.763,1.11-1.296,1.44s-1.114.496-1.744.496c-.352,0-.738-.088-1.159-.264-.422-.177-.809-.425-1.16-.744h-.048l.063,1.472v2.624h-1.312Zm3.392-4.192c.459,0,.869-.122,1.232-.367.362-.246.647-.601.855-1.064s.312-1.016.312-1.656c0-.565-.075-1.063-.225-1.496-.149-.432-.384-.768-.704-1.008-.319-.24-.741-.359-1.264-.359-.352,0-.723.093-1.112.279-.389.187-.781.483-1.176.889v3.871c.373.331.749.566,1.128.704.379.139.696.208.952.208Z"/><path class="cls-3" d="m461.443,122.192c-.479,0-.922-.088-1.327-.264-.406-.177-.726-.43-.96-.761-.235-.33-.353-.725-.353-1.184,0-.875.438-1.539,1.312-1.992.874-.453,2.314-.76,4.319-.92-.011-.352-.082-.678-.216-.976-.134-.299-.35-.536-.647-.713-.299-.176-.699-.264-1.2-.264-.331,0-.659.046-.984.136-.325.091-.635.208-.928.353-.294.144-.562.291-.809.439l-.512-.896c.256-.171.568-.344.937-.521.367-.176.765-.319,1.191-.432s.869-.168,1.328-.168c.715,0,1.304.134,1.769.4.464.267.81.637,1.04,1.111.229.475.344,1.038.344,1.688v4.768h-1.072l-.112-1.056h-.048c-.427.342-.906.635-1.439.88-.534.245-1.078.368-1.633.368Zm.353-1.056c.448,0,.891-.102,1.328-.305.438-.202.874-.485,1.312-.848v-2.048c-1.109.096-1.981.229-2.616.399-.634.171-1.082.387-1.344.648s-.392.562-.392.904c0,.287.08.525.24.712.159.187.37.322.632.407.261.086.541.129.84.129Z"/><path class="cls-3" d="m472.364,122.192c-.811,0-1.539-.16-2.185-.48-.646-.319-1.151-.783-1.52-1.392s-.552-1.339-.552-2.192c0-.874.197-1.615.592-2.224s.92-1.072,1.576-1.392c.655-.32,1.378-.48,2.168-.48.64,0,1.191.112,1.656.336.464.224.855.491,1.176.8l-.656.849c-.32-.277-.65-.496-.992-.656-.341-.16-.72-.24-1.136-.24-.598,0-1.126.126-1.584.376-.459.251-.813.603-1.064,1.056-.25.454-.376.979-.376,1.576,0,.587.123,1.104.368,1.553.245.447.595.797,1.048,1.048.453.25.979.376,1.576.376.48,0,.92-.097,1.32-.288.399-.192.76-.422,1.08-.688l.592.849c-.427.384-.904.683-1.432.896-.528.214-1.08.32-1.656.32Z"/><path class="cls-3" d="m480.942,122v-6.704h-3.615v-1.071h4.928v7.775h-1.312Zm.513-9.408c-.299,0-.55-.093-.752-.279-.203-.187-.305-.435-.305-.744s.102-.558.305-.744c.202-.187.453-.28.752-.28s.549.094.752.28c.202.187.304.435.304.744s-.102.558-.304.744c-.203.187-.454.279-.752.279Z"/><path class="cls-3" d="m490.413,122.192c-.757,0-1.354-.136-1.792-.408-.438-.271-.749-.647-.936-1.128s-.28-1.04-.28-1.68v-3.681h-2.192v-.991l2.24-.08.176-2.496h1.089v2.496h3.823v1.071h-3.823v3.696c0,.459.058.848.176,1.168.117.32.319.561.607.72.288.16.683.24,1.185.24.373,0,.709-.032,1.008-.096.299-.064.587-.149.864-.256l.288.96c-.353.128-.723.237-1.112.328-.39.09-.829.136-1.32.136Z"/><path class="cls-3" d="m495.779,125.345c-.171,0-.35-.017-.536-.049-.187-.031-.349-.069-.487-.111l.271-1.04c.106.031.222.059.345.08.122.021.242.031.359.031.544,0,.986-.157,1.328-.472.341-.314.608-.712.8-1.192l.24-.575-3.632-7.792h1.328l1.903,4.304c.149.342.307.707.473,1.096.165.39.328.776.487,1.16h.064c.139-.373.28-.755.424-1.144.145-.39.28-.761.408-1.112l1.696-4.304h1.248l-3.425,8.416c-.191.512-.432.973-.72,1.384-.288.41-.643.733-1.063.968-.422.234-.926.353-1.513.353Z"/><path class="cls-3" d="m506.524,116.464c-.352,0-.656-.125-.912-.376-.256-.25-.384-.573-.384-.968,0-.405.128-.733.384-.983.256-.251.561-.377.912-.377.362,0,.67.126.92.377.251.25.376.578.376.983,0,.395-.125.718-.376.968-.25.251-.558.376-.92.376Zm0,5.729c-.352,0-.656-.126-.912-.376-.256-.251-.384-.573-.384-.968,0-.405.128-.733.384-.984s.561-.376.912-.376c.362,0,.67.125.92.376.251.251.376.579.376.984,0,.395-.125.717-.376.968s-.558.376-.92.376Z"/><path class="cls-3" d="m513.148,122v-1.088h2.944v-7.52h-2.288v-.849c.405-.053.763-.117,1.072-.191.309-.075.592-.157.848-.248s.49-.194.704-.312h.976v9.12h2.673v1.088h-6.929Z"/></g><g><path class="cls-3" d="m114.228,122.192c-.683,0-1.314-.16-1.896-.48-.582-.319-1.051-.783-1.408-1.392s-.536-1.339-.536-2.192c0-.874.179-1.615.536-2.224s.826-1.072,1.408-1.392c.581-.32,1.213-.48,1.896-.48s1.314.16,1.896.48c.581.319,1.05.783,1.407,1.392s.536,1.35.536,2.224c0,.854-.179,1.584-.536,2.192s-.826,1.072-1.407,1.392c-.582.32-1.214.48-1.896.48Zm0-1.088c.501,0,.938-.126,1.312-.376.373-.251.661-.601.863-1.048.203-.448.305-.966.305-1.553,0-.597-.102-1.122-.305-1.576-.202-.453-.49-.805-.863-1.056-.374-.25-.812-.376-1.312-.376s-.936.126-1.304.376c-.368.251-.656.603-.864,1.056-.208.454-.312.979-.312,1.576,0,.587.104,1.104.312,1.553.208.447.496.797.864,1.048.368.25.803.376,1.304.376Z"/><path class="cls-3" d="m120.353,125.28v-11.056h1.088l.112.991h.048c.362-.341.781-.624,1.256-.848s.952-.336,1.432-.336c.704,0,1.293.163,1.769.488.474.325.834.784,1.08,1.376.245.592.367,1.293.367,2.104,0,.875-.165,1.627-.496,2.256-.33.63-.763,1.11-1.296,1.44s-1.114.496-1.744.496c-.352,0-.738-.088-1.159-.264-.422-.177-.809-.425-1.16-.744h-.048l.063,1.472v2.624h-1.312Zm3.392-4.192c.459,0,.869-.122,1.232-.367.362-.246.647-.601.855-1.064s.312-1.016.312-1.656c0-.565-.075-1.063-.225-1.496-.149-.432-.384-.768-.704-1.008-.319-.24-.741-.359-1.264-.359-.352,0-.723.093-1.112.279-.389.187-.781.483-1.176.889v3.871c.373.331.749.566,1.128.704.379.139.696.208.952.208Z"/><path class="cls-3" d="m132.068,122.192c-.479,0-.922-.088-1.327-.264-.406-.177-.726-.43-.96-.761-.235-.33-.353-.725-.353-1.184,0-.875.438-1.539,1.312-1.992.874-.453,2.314-.76,4.319-.92-.011-.352-.082-.678-.216-.976-.134-.299-.35-.536-.647-.713-.299-.176-.699-.264-1.2-.264-.331,0-.659.046-.984.136-.325.091-.635.208-.928.353-.294.144-.562.291-.809.439l-.512-.896c.256-.171.568-.344.937-.521.367-.176.765-.319,1.191-.432s.869-.168,1.328-.168c.715,0,1.304.134,1.769.4.464.267.81.637,1.04,1.111.229.475.344,1.038.344,1.688v4.768h-1.072l-.112-1.056h-.048c-.427.342-.906.635-1.439.88-.534.245-1.078.368-1.633.368Zm.353-1.056c.448,0,.891-.102,1.328-.305.438-.202.874-.485,1.312-.848v-2.048c-1.109.096-1.981.229-2.616.399-.634.171-1.082.387-1.344.648s-.392.562-.392.904c0,.287.08.525.24.712.159.187.37.322.632.407.261.086.541.129.84.129Z"/><path class="cls-3" d="m142.989,122.192c-.811,0-1.539-.16-2.185-.48-.646-.319-1.151-.783-1.52-1.392s-.552-1.339-.552-2.192c0-.874.197-1.615.592-2.224s.92-1.072,1.576-1.392c.655-.32,1.378-.48,2.168-.48.64,0,1.191.112,1.656.336.464.224.855.491,1.176.8l-.656.849c-.32-.277-.65-.496-.992-.656-.341-.16-.72-.24-1.136-.24-.598,0-1.126.126-1.584.376-.459.251-.813.603-1.064,1.056-.25.454-.376.979-.376,1.576,0,.587.123,1.104.368,1.553.245.447.595.797,1.048,1.048.453.25.979.376,1.576.376.48,0,.92-.097,1.32-.288.399-.192.76-.422,1.08-.688l.592.849c-.427.384-.904.683-1.432.896-.528.214-1.08.32-1.656.32Z"/><path class="cls-3" d="m151.567,122v-6.704h-3.615v-1.071h4.928v7.775h-1.312Zm.513-9.408c-.299,0-.55-.093-.752-.279-.203-.187-.305-.435-.305-.744s.102-.558.305-.744c.202-.187.453-.28.752-.28s.549.094.752.28c.202.187.304.435.304.744s-.102.558-.304.744c-.203.187-.454.279-.752.279Z"/><path class="cls-3" d="m161.038,122.192c-.757,0-1.354-.136-1.792-.408-.438-.271-.749-.647-.936-1.128s-.28-1.04-.28-1.68v-3.681h-2.192v-.991l2.24-.08.176-2.496h1.089v2.496h3.823v1.071h-3.823v3.696c0,.459.058.848.176,1.168.117.32.319.561.607.72.288.16.683.24,1.185.24.373,0,.709-.032,1.008-.096.299-.064.587-.149.864-.256l.288.96c-.353.128-.723.237-1.112.328-.39.09-.829.136-1.32.136Z"/><path class="cls-3" d="m166.404,125.345c-.171,0-.35-.017-.536-.049-.187-.031-.349-.069-.487-.111l.271-1.04c.106.031.222.059.345.08.122.021.242.031.359.031.544,0,.986-.157,1.328-.472.341-.314.608-.712.8-1.192l.24-.575-3.632-7.792h1.328l1.903,4.304c.149.342.307.707.473,1.096.165.39.328.776.487,1.16h.064c.139-.373.28-.755.424-1.144.145-.39.28-.761.408-1.112l1.696-4.304h1.248l-3.425,8.416c-.191.512-.432.973-.72,1.384-.288.41-.643.733-1.063.968-.422.234-.926.353-1.513.353Z"/><path class="cls-3" d="m177.149,116.464c-.352,0-.656-.125-.912-.376-.256-.25-.384-.573-.384-.968,0-.405.128-.733.384-.983.256-.251.561-.377.912-.377.362,0,.67.126.92.377.251.25.376.578.376.983,0,.395-.125.718-.376.968-.25.251-.558.376-.92.376Zm0,5.729c-.352,0-.656-.126-.912-.376-.256-.251-.384-.573-.384-.968,0-.405.128-.733.384-.984s.561-.376.912-.376c.362,0,.67.125.92.376.251.251.376.579.376.984,0,.395-.125.717-.376.968s-.558.376-.92.376Z"/><path class="cls-3" d="m187.021,122.192c-.757,0-1.408-.211-1.952-.632-.544-.422-.965-1.026-1.264-1.816-.299-.789-.448-1.749-.448-2.88,0-1.717.328-3.024.984-3.92.656-.896,1.549-1.344,2.68-1.344,1.142,0,2.037.447,2.688,1.344.65.896.976,2.203.976,3.92,0,1.131-.146,2.091-.439,2.88-.294.79-.715,1.395-1.265,1.816-.549.421-1.202.632-1.96.632Zm0-1.056c.48,0,.901-.152,1.265-.456.362-.305.647-.773.855-1.408s.312-1.438.312-2.408c0-.981-.104-1.781-.312-2.4-.208-.618-.493-1.074-.855-1.367-.363-.294-.784-.44-1.265-.44-.47,0-.888.146-1.256.44-.368.293-.656.749-.864,1.367-.208.619-.312,1.419-.312,2.4,0,.971.104,1.773.312,2.408s.496,1.104.864,1.408c.368.304.786.456,1.256.456Zm0-3.312c-.267,0-.499-.096-.696-.288-.197-.191-.296-.453-.296-.784s.099-.589.296-.775.43-.28.696-.28c.277,0,.512.094.704.28s.288.445.288.775-.096.593-.288.784c-.192.192-.427.288-.704.288Z"/></g><g><path class="cls-3" d="m772.978,122.192c-.683,0-1.314-.16-1.896-.48-.582-.319-1.051-.783-1.408-1.392s-.536-1.339-.536-2.192c0-.874.179-1.615.536-2.224s.826-1.072,1.408-1.392c.581-.32,1.213-.48,1.896-.48s1.314.16,1.896.48c.581.319,1.05.783,1.407,1.392s.536,1.35.536,2.224c0,.854-.179,1.584-.536,2.192s-.826,1.072-1.407,1.392c-.582.32-1.214.48-1.896.48Zm0-1.088c.501,0,.938-.126,1.312-.376.373-.251.661-.601.863-1.048.203-.448.305-.966.305-1.553,0-.597-.102-1.122-.305-1.576-.202-.453-.49-.805-.863-1.056-.374-.25-.812-.376-1.312-.376s-.936.126-1.304.376c-.368.251-.656.603-.864,1.056-.208.454-.312.979-.312,1.576,0,.587.104,1.104.312,1.553.208.447.496.797.864,1.048.368.25.803.376,1.304.376Z"/><path class="cls-3" d="m779.103,125.28v-11.056h1.088l.112.991h.048c.362-.341.781-.624,1.256-.848s.952-.336,1.432-.336c.704,0,1.293.163,1.769.488.474.325.834.784,1.08,1.376.245.592.367,1.293.367,2.104,0,.875-.165,1.627-.496,2.256-.33.63-.763,1.11-1.296,1.44s-1.114.496-1.744.496c-.352,0-.738-.088-1.159-.264-.422-.177-.809-.425-1.16-.744h-.048l.063,1.472v2.624h-1.312Zm3.392-4.192c.459,0,.869-.122,1.232-.367.362-.246.647-.601.855-1.064s.312-1.016.312-1.656c0-.565-.075-1.063-.225-1.496-.149-.432-.384-.768-.704-1.008-.319-.24-.741-.359-1.264-.359-.352,0-.723.093-1.112.279-.389.187-.781.483-1.176.889v3.871c.373.331.749.566,1.128.704.379.139.696.208.952.208Z"/><path class="cls-3" d="m790.818,122.192c-.479,0-.922-.088-1.327-.264-.406-.177-.726-.43-.96-.761-.235-.33-.353-.725-.353-1.184,0-.875.438-1.539,1.312-1.992.874-.453,2.314-.76,4.319-.92-.011-.352-.082-.678-.216-.976-.134-.299-.35-.536-.647-.713-.299-.176-.699-.264-1.2-.264-.331,0-.659.046-.984.136-.325.091-.635.208-.928.353-.294.144-.562.291-.809.439l-.512-.896c.256-.171.568-.344.937-.521.367-.176.765-.319,1.191-.432s.869-.168,1.328-.168c.715,0,1.304.134,1.769.4.464.267.81.637,1.04,1.111.229.475.344,1.038.344,1.688v4.768h-1.072l-.112-1.056h-.048c-.427.342-.906.635-1.439.88-.534.245-1.078.368-1.633.368Zm.353-1.056c.448,0,.891-.102,1.328-.305.438-.202.874-.485,1.312-.848v-2.048c-1.109.096-1.981.229-2.616.399-.634.171-1.082.387-1.344.648s-.392.562-.392.904c0,.287.08.525.24.712.159.187.37.322.632.407.261.086.541.129.84.129Z"/><path class="cls-3" d="m801.739,122.192c-.811,0-1.539-.16-2.185-.48-.646-.319-1.151-.783-1.52-1.392s-.552-1.339-.552-2.192c0-.874.197-1.615.592-2.224s.92-1.072,1.576-1.392c.655-.32,1.378-.48,2.168-.48.64,0,1.191.112,1.656.336.464.224.855.491,1.176.8l-.656.849c-.32-.277-.65-.496-.992-.656-.341-.16-.72-.24-1.136-.24-.598,0-1.126.126-1.584.376-.459.251-.813.603-1.064,1.056-.25.454-.376.979-.376,1.576,0,.587.123,1.104.368,1.553.245.447.595.797,1.048,1.048.453.25.979.376,1.576.376.48,0,.92-.097,1.32-.288.399-.192.76-.422,1.08-.688l.592.849c-.427.384-.904.683-1.432.896-.528.214-1.08.32-1.656.32Z"/><path class="cls-3" d="m810.317,122v-6.704h-3.615v-1.071h4.928v7.775h-1.312Zm.513-9.408c-.299,0-.55-.093-.752-.279-.203-.187-.305-.435-.305-.744s.102-.558.305-.744c.202-.187.453-.28.752-.28s.549.094.752.28c.202.187.304.435.304.744s-.102.558-.304.744c-.203.187-.454.279-.752.279Z"/><path class="cls-3" d="m819.788,122.192c-.757,0-1.354-.136-1.792-.408-.438-.271-.749-.647-.936-1.128s-.28-1.04-.28-1.68v-3.681h-2.192v-.991l2.24-.08.176-2.496h1.089v2.496h3.823v1.071h-3.823v3.696c0,.459.058.848.176,1.168.117.32.319.561.607.72.288.16.683.24,1.185.24.373,0,.709-.032,1.008-.096.299-.064.587-.149.864-.256l.288.96c-.353.128-.723.237-1.112.328-.39.09-.829.136-1.32.136Z"/><path class="cls-3" d="m825.154,125.345c-.171,0-.35-.017-.536-.049-.187-.031-.349-.069-.487-.111l.271-1.04c.106.031.222.059.345.08.122.021.242.031.359.031.544,0,.986-.157,1.328-.472.341-.314.608-.712.8-1.192l.24-.575-3.632-7.792h1.328l1.903,4.304c.149.342.307.707.473,1.096.165.39.328.776.487,1.16h.064c.139-.373.28-.755.424-1.144.145-.39.28-.761.408-1.112l1.696-4.304h1.248l-3.425,8.416c-.191.512-.432.973-.72,1.384-.288.41-.643.733-1.063.968-.422.234-.926.353-1.513.353Z"/><path class="cls-3" d="m835.899,116.464c-.352,0-.656-.125-.912-.376-.256-.25-.384-.573-.384-.968,0-.405.128-.733.384-.983.256-.251.561-.377.912-.377.362,0,.67.126.92.377.251.25.376.578.376.983,0,.395-.125.718-.376.968-.25.251-.558.376-.92.376Zm0,5.729c-.352,0-.656-.126-.912-.376-.256-.251-.384-.573-.384-.968,0-.405.128-.733.384-.984s.561-.376.912-.376c.362,0,.67.125.92.376.251.251.376.579.376.984,0,.395-.125.717-.376.968s-.558.376-.92.376Z"/><path class="cls-3" d="m845.771,122.192c-.757,0-1.408-.211-1.952-.632-.544-.422-.965-1.026-1.264-1.816-.299-.789-.448-1.749-.448-2.88,0-1.717.328-3.024.984-3.92.656-.896,1.549-1.344,2.68-1.344,1.142,0,2.037.447,2.688,1.344.65.896.976,2.203.976,3.92,0,1.131-.146,2.091-.439,2.88-.294.79-.715,1.395-1.265,1.816-.549.421-1.202.632-1.96.632Zm0-1.056c.48,0,.901-.152,1.265-.456.362-.305.647-.773.855-1.408s.312-1.438.312-2.408c0-.981-.104-1.781-.312-2.4-.208-.618-.493-1.074-.855-1.367-.363-.294-.784-.44-1.265-.44-.47,0-.888.146-1.256.44-.368.293-.656.749-.864,1.367-.208.619-.312,1.419-.312,2.4,0,.971.104,1.773.312,2.408s.496,1.104.864,1.408c.368.304.786.456,1.256.456Zm0-3.312c-.267,0-.499-.096-.696-.288-.197-.191-.296-.453-.296-.784s.099-.589.296-.775.43-.28.696-.28c.277,0,.512.094.704.28s.288.445.288.775-.096.593-.288.784c-.192.192-.427.288-.704.288Z"/></g><g><path class="cls-3" d="m667.906,139.192c-.608,0-1.142-.066-1.601-.2-.458-.133-.855-.307-1.191-.52-.336-.214-.632-.438-.888-.673l.655-.863c.225.202.473.392.744.567.272.177.584.32.937.433.352.111.752.168,1.199.168.48,0,.918-.097,1.312-.288.395-.192.706-.461.936-.809.229-.346.345-.76.345-1.239,0-.704-.229-1.254-.688-1.648s-1.066-.592-1.824-.592c-.427,0-.789.054-1.088.16s-.629.262-.992.464l-.704-.448.337-4.912h5.775v1.137h-4.607l-.272,3.023c.288-.128.578-.229.872-.304.293-.074.632-.112,1.016-.112.65,0,1.243.112,1.776.336.533.225.954.573,1.264,1.048s.464,1.08.464,1.816-.179,1.362-.535,1.88c-.357.518-.824.909-1.4,1.176s-1.189.4-1.84.4Z"/><path class="cls-3" d="m675.177,133.864c-.427,0-.809-.104-1.145-.312-.336-.207-.6-.514-.792-.92-.191-.405-.288-.88-.288-1.424,0-.832.211-1.475.633-1.928.421-.453.951-.68,1.592-.68.65,0,1.184.227,1.6.68s.624,1.096.624,1.928c0,.544-.096,1.019-.288,1.424-.191.406-.456.713-.792.92-.336.208-.718.312-1.144.312Zm-1.424,4.624l-.784-.72,2.928-3.009.528.48-2.672,3.248Zm1.424-5.424c.352,0,.647-.152.888-.456s.36-.771.36-1.4c0-.64-.12-1.104-.36-1.392s-.536-.433-.888-.433c-.342,0-.635.145-.88.433-.246.288-.368.752-.368,1.392,0,.63.122,1.097.368,1.4.245.304.538.456.88.456Zm4.288,6.128c-.427,0-.809-.104-1.145-.312s-.6-.514-.792-.92c-.191-.405-.288-.88-.288-1.424,0-.832.211-1.475.632-1.928.422-.453.952-.68,1.593-.68.65,0,1.184.227,1.6.68s.624,1.096.624,1.928c0,.544-.096,1.019-.288,1.424-.191.406-.456.712-.792.92s-.718.312-1.144.312Zm-.721-6.448l-.527-.479,2.672-3.248.784.72-2.929,3.008Zm.721,5.648c.352,0,.647-.152.888-.456.24-.305.36-.771.36-1.4,0-.64-.12-1.104-.36-1.392s-.536-.433-.888-.433c-.342,0-.635.145-.88.433-.246.288-.368.752-.368,1.392,0,.63.122,1.096.368,1.4.245.304.538.456.88.456Z"/><path class="cls-3" d="m686.027,133.019c-.602.099-1.134.154-1.498.154-.406,0-.603-.266-.603-.546s.196-.561.574-.589c.448-.027.883-.027,1.387-.069l.771-.07c.168-.63.378-1.513.477-2.339.042-.364.336-.547.63-.547s.574.196.574.561c0,.336-.392,1.989-.448,2.199l.631-.056c.069,0,.14-.015.21-.015.826,0,1.807.406,1.807,2.298,0,4.202-2.045,4.636-2.899,4.636-.266,0-1.373-.056-1.373-.742,0-.294.238-.574.574-.574.057,0,.112,0,.169.014.224.057.434.099.63.099,1.751,0,1.765-3.194,1.765-3.432,0-.827-.224-1.275-.868-1.275-.112,0-.322.015-.925.07-.7,2.186-1.639,4.118-2.745,5.688-.182.266-.448.378-.687.378-.322,0-.616-.225-.616-.561,0-.168.07-.351.252-.561.967-1.078,1.892-2.829,2.55-4.776l-.337.056Zm7.774,1.724c-.336-.799-1.05-1.892-2.129-2.479-.168-.098-.252-.238-.252-.393,0-.252.238-.504.561-.504.771,0,2.969,2.073,2.969,3.067,0,.406-.336.673-.644.673-.211,0-.406-.112-.505-.364Z"/><path class="cls-3" d="m699.259,129.405c0,.434-.126,1.204-.225,1.919-.14,1.009-.378,2.017-.378,3.054,0,.603.084,1.19.182,1.19.042,0,.084-.056.141-.196.364-.882.532-1.19.854-1.19.238,0,.476.225.476.49,0,.07-.014.14-.042.21-.714,1.611-.728,2.493-.728,2.55,0,.069.014.182.014.294,0,.63-.504.672-.645.672-.196,0-.393-.098-.532-.35-.588-1.121-.757-2.27-.757-3.376,0-1.247.211-2.423.295-3.418.069-.812.154-1.274.182-1.877.015-.378.309-.561.589-.561.294,0,.574.196.574.574v.015Zm6.065,1.667c.363-.07.686-.154.966-.238.07-.014.141-.028.196-.028.351,0,.603.267.603.547,0,.237-.168.462-.589.56l-1.19.238c0,.435.015.868.042,1.485.015.195.015.392.015.588,0,2.479-.785,4.328-2.788,5.743-.14.098-.294.14-.434.14-.337,0-.603-.266-.603-.56,0-.168.084-.351.308-.49,1.766-1.149,2.367-2.815,2.367-5.099,0,0-.027-1.43-.027-1.611-.589.084-1.177.14-1.737.14-.756,0-1.331-.027-1.331-.602,0-.28.211-.547.603-.547.057,0,.112,0,.168.015.21.042.448.056.715.056.477,0,1.022-.056,1.555-.126v-.645c0-.729-.07-1.009-.126-1.484v-.084c0-.406.28-.603.574-.603.742,0,.742.784.742,1.583,0,.182,0,.392-.014.602l-.014.421Z"/><path class="cls-3" d="m717.671,139.21h-.027c-3.04,0-4.692-2.045-4.692-4.3,0-1.499.728-2.676,1.162-3.193.099-.112.154-.183.154-.225,0-.014-.014-.028-.042-.028s-.154.015-2.228.757c-.35.126-1.303.462-1.625.462-.448,0-.714-.336-.714-.672,0-.28.182-.561.588-.645,3.488-.799,4.23-.994,4.959-1.205.742-.21,2.886-.826,3.937-.826.518,0,.742.351.742.687,0,.504-.547.63-1.135.63h-.28c-.7,0-1.484.225-2.003.406-1.093.393-2.396,1.976-2.396,3.67,0,1.625,1.106,3.138,3.362,3.138h.237c.603,0,.911.337.911.673s-.294.672-.911.672Z"/><path class="cls-3" d="m654.986,158.278c-.42,0-.672-.322-.672-.645,0-.252.154-.504.519-.616,4.524-1.442,5.799-5.688,5.799-6.136,0-.434-.21-.462-1.401-.462-1.387,0-3.277.07-4.93.126h-.028c-.393,0-.603-.308-.603-.603,0-.28.196-.574.603-.588,1.303-.056,2.983-.084,4.482-.084.658,0,1.274,0,1.821.014.896.015,1.526.561,1.526,1.331,0,.182-.028.364-.098.561-.981,2.801-2.704,5.532-6.626,7.018-.14.056-.267.084-.393.084Z"/><path class="cls-3" d="m672.462,157.368c-.868-.015-1.849-.028-2.857-.028-1.526,0-3.096.028-4.286.056h-.028c-.392,0-.574-.238-.574-.49,0-.266.21-.546.616-.561l2.97-.042c.014-.771.014-2.03.014-2.647-.728,0-1.4,0-1.835-.014-.35-.014-.518-.252-.518-.504s.182-.519.532-.519h.014c.504.014,1.093.014,1.709.014.994,0,2.06-.014,2.97-.056h.042c.351,0,.519.252.519.504s-.168.505-.532.519l-1.821.042v.532c0,.757.014,1.583.014,2.115,1.121-.014,2.241-.014,3.138-.014.351,0,.547.266.547.532,0,.28-.196.561-.616.561h-.015Z"/><path class="cls-3" d="m676.239,153.319c-.435,0-.631-.28-.631-.574,0-.309.225-.616.631-.616h8.824c.406,0,.603.294.603.603,0,.294-.196.588-.603.588h-8.824Z"/><path class="cls-3" d="m691.302,157.942c0,.49-.351.742-.687.742-.309,0-.616-.225-.616-.673v-.042c.07-1.597.112-4.748.112-7.214,0-1.078-.015-2.031-.028-2.647v-.014c0-.393.308-.589.616-.589s.631.196.631.603v.014l-.043,3.404h.07c.21,0,2.704.477,3.614,1.232.182.141.252.337.252.519,0,.351-.28.7-.616.7-.126,0-.252-.042-.378-.14-.645-.477-2.186-1.051-2.942-1.177,0,.826-.014,1.667-.014,2.465,0,1.107.014,2.115.028,2.802v.015Zm3.445-7.564c-.237-.252-.966-.687-1.303-.812-.224-.084-.308-.224-.308-.364,0-.238.224-.477.532-.477.224,0,1.877.561,1.877,1.261,0,.295-.238.547-.49.547-.098,0-.21-.057-.309-.154Zm1.205-1.261c-.238-.238-.98-.687-1.331-.799-.224-.07-.322-.224-.322-.364,0-.238.225-.476.532-.476.057,0,1.905.476,1.905,1.232,0,.28-.224.546-.476.546-.112,0-.211-.042-.309-.14Z"/><path class="cls-3" d="m704.39,151.498c0,.253-.014.505-.028.757.042-.028.084-.042.127-.056,1.75-.701,3.025-1.863,3.025-2.325,0-.141-.112-.225-.364-.225h-.658c-1.709,0-4.398.042-6.122.126h-.069c-.477,0-.7-.266-.7-.546,0-.294.224-.589.672-.603,1.723-.084,3.138-.084,7.284-.084.91,0,1.471.504,1.471,1.148,0,.322-.126.673-.435,1.022-1.877,2.102-3.697,2.605-3.978,2.605-.141,0-.267-.028-.364-.098-.351,2.129-1.401,3.81-3.502,5.112-.196.126-.379.168-.547.168-.406,0-.686-.28-.686-.602,0-.225.14-.463.462-.617,2.157-1.078,3.067-3.109,3.067-5.099,0-.21-.014-.42-.028-.63-.056-.616.49-.742.673-.742.351,0,.7.224.7.672v.014Z"/><path class="cls-3" d="m713.555,153.529c0,.393-.336.589-.673.589-.294,0-.588-.168-.588-.532v-.911c0-.364,0-.784-.015-1.135v-.027c0-1.106,1.051-1.443,1.64-1.457.588-.014,1.232-.028,1.891-.028,0-.574-.014-1.414-.014-1.779,0-.392.308-.588.616-.588s.616.196.616.561v1.807c.687,0,1.358,0,1.933.015.967.027,1.611.56,1.611,1.414v.112c-.336,5.827-6.107,6.948-6.304,6.948-.392,0-.644-.309-.644-.616,0-.253.153-.49.532-.575,3.992-.854,5.084-4.006,5.084-5.547,0-.448-.237-.672-.7-.7-.546-.028-1.33-.042-2.115-.042-.896,0-1.765.014-2.213.042-.519.028-.7.42-.7.742,0,.337.027,1.275.042,1.695v.014Z"/><path class="cls-3" d="m726.632,157.942c0,.49-.35.742-.687.742-.308,0-.616-.225-.616-.673v-.042c.07-1.597.112-4.748.112-7.214,0-1.078-.014-2.031-.028-2.647v-.014c0-.393.309-.589.616-.589s.631.196.631.603v.014l-.042,3.404h.07c.21,0,2.703.477,3.613,1.232.183.141.252.337.252.519,0,.351-.279.7-.616.7-.126,0-.252-.042-.378-.14-.645-.477-2.199-1.051-2.955-1.177v1.611c0,1.442.014,2.801.027,3.655v.015Z"/></g><g><path class="cls-3" d="m682.839,65c.042-.971.133-1.855.271-2.655.139-.801.342-1.555.608-2.265.267-.709.607-1.399,1.023-2.072.416-.672.912-1.365,1.488-2.079h-5.888v-1.137h7.392v.816c-.683.768-1.242,1.504-1.68,2.208s-.784,1.419-1.04,2.144c-.256.726-.445,1.496-.568,2.312-.122.815-.199,1.726-.231,2.728h-1.376Z"/><path class="cls-3" d="m692.563,65.192c-.608,0-1.142-.066-1.601-.2-.458-.133-.855-.307-1.191-.52-.336-.214-.632-.438-.888-.673l.655-.863c.225.202.473.392.744.567.272.177.584.32.937.433.352.111.752.168,1.199.168.48,0,.918-.097,1.312-.288.395-.192.706-.461.936-.809.229-.346.345-.76.345-1.239,0-.704-.229-1.254-.688-1.648s-1.066-.592-1.824-.592c-.427,0-.789.054-1.088.16s-.629.262-.992.464l-.704-.448.337-4.912h5.775v1.137h-4.607l-.272,3.023c.288-.128.578-.229.872-.304.293-.074.632-.112,1.016-.112.65,0,1.243.112,1.776.336.533.225.954.573,1.264,1.048s.464,1.08.464,1.816-.179,1.362-.535,1.88c-.357.518-.824.909-1.4,1.176s-1.189.4-1.84.4Z"/><path class="cls-3" d="m699.834,59.864c-.427,0-.809-.104-1.145-.312-.336-.207-.6-.514-.792-.92-.191-.405-.288-.88-.288-1.424,0-.832.211-1.475.633-1.928.421-.453.951-.68,1.592-.68.65,0,1.184.227,1.6.68s.624,1.096.624,1.928c0,.544-.096,1.019-.288,1.424-.191.406-.456.713-.792.92-.336.208-.718.312-1.144.312Zm-1.424,4.624l-.784-.72,2.928-3.009.528.48-2.672,3.248Zm1.424-5.424c.352,0,.647-.152.888-.456s.36-.771.36-1.4c0-.64-.12-1.104-.36-1.392s-.536-.433-.888-.433c-.342,0-.635.145-.88.433-.246.288-.368.752-.368,1.392,0,.63.122,1.097.368,1.4.245.304.538.456.88.456Zm4.288,6.128c-.427,0-.809-.104-1.145-.312s-.6-.514-.792-.92c-.191-.405-.288-.88-.288-1.424,0-.832.211-1.475.632-1.928.422-.453.952-.68,1.593-.68.65,0,1.184.227,1.6.68s.624,1.096.624,1.928c0,.544-.096,1.019-.288,1.424-.191.406-.456.712-.792.92s-.718.312-1.144.312Zm-.721-6.448l-.527-.479,2.672-3.248.784.72-2.929,3.008Zm.721,5.648c.352,0,.647-.152.888-.456.24-.305.36-.771.36-1.4,0-.64-.12-1.104-.36-1.392s-.536-.433-.888-.433c-.342,0-.635.145-.88.433-.246.288-.368.752-.368,1.392,0,.63.122,1.096.368,1.4.245.304.538.456.88.456Z"/></g><g><path class="cls-3" d="m888.16,62v-1.088h2.944v-7.52h-2.288v-.849c.405-.053.763-.117,1.072-.191.309-.075.592-.157.848-.248s.49-.194.704-.312h.976v9.12h2.673v1.088h-6.929Z"/><path class="cls-3" d="m899.89,62.192c-.757,0-1.408-.211-1.952-.632-.544-.422-.965-1.026-1.264-1.816-.299-.789-.448-1.749-.448-2.88,0-1.717.328-3.024.984-3.92.656-.896,1.549-1.344,2.68-1.344,1.142,0,2.037.447,2.688,1.344.65.896.976,2.203.976,3.92,0,1.131-.146,2.091-.439,2.88-.294.79-.715,1.395-1.265,1.816-.549.421-1.202.632-1.96.632Zm0-1.056c.48,0,.901-.152,1.265-.456.362-.305.647-.773.855-1.408s.312-1.438.312-2.408c0-.981-.104-1.781-.312-2.4-.208-.618-.493-1.074-.855-1.367-.363-.294-.784-.44-1.265-.44-.47,0-.888.146-1.256.44-.368.293-.656.749-.864,1.367-.208.619-.312,1.419-.312,2.4,0,.971.104,1.773.312,2.408s.496,1.104.864,1.408c.368.304.786.456,1.256.456Zm0-3.312c-.267,0-.499-.096-.696-.288-.197-.191-.296-.453-.296-.784s.099-.589.296-.775.43-.28.696-.28c.277,0,.512.094.704.28s.288.445.288.775-.096.593-.288.784c-.192.192-.427.288-.704.288Z"/><path class="cls-3" d="m909.095,62.192c-.757,0-1.408-.211-1.952-.632-.544-.422-.965-1.026-1.264-1.816-.299-.789-.448-1.749-.448-2.88,0-1.717.328-3.024.984-3.92.656-.896,1.549-1.344,2.68-1.344,1.142,0,2.037.447,2.688,1.344.65.896.976,2.203.976,3.92,0,1.131-.146,2.091-.439,2.88-.294.79-.715,1.395-1.265,1.816-.549.421-1.202.632-1.96.632Zm0-1.056c.48,0,.901-.152,1.265-.456.362-.305.647-.773.855-1.408s.312-1.438.312-2.408c0-.981-.104-1.781-.312-2.4-.208-.618-.493-1.074-.855-1.367-.363-.294-.784-.44-1.265-.44-.47,0-.888.146-1.256.44-.368.293-.656.749-.864,1.367-.208.619-.312,1.419-.312,2.4,0,.971.104,1.773.312,2.408s.496,1.104.864,1.408c.368.304.786.456,1.256.456Zm0-3.312c-.267,0-.499-.096-.696-.288-.197-.191-.296-.453-.296-.784s.099-.589.296-.775.43-.28.696-.28c.277,0,.512.094.704.28s.288.445.288.775-.096.593-.288.784c-.192.192-.427.288-.704.288Z"/><path class="cls-3" d="m916.448,56.864c-.427,0-.809-.104-1.145-.312-.336-.207-.6-.514-.792-.92-.191-.405-.288-.88-.288-1.424,0-.832.211-1.475.633-1.928.421-.453.951-.68,1.592-.68.65,0,1.184.227,1.6.68s.624,1.096.624,1.928c0,.544-.096,1.019-.288,1.424-.191.406-.456.713-.792.92-.336.208-.718.312-1.144.312Zm-1.424,4.624l-.784-.72,2.928-3.009.528.48-2.672,3.248Zm1.424-5.424c.352,0,.647-.152.888-.456s.36-.771.36-1.4c0-.64-.12-1.104-.36-1.392s-.536-.433-.888-.433c-.342,0-.635.145-.88.433-.246.288-.368.752-.368,1.392,0,.63.122,1.097.368,1.4.245.304.538.456.88.456Zm4.288,6.128c-.427,0-.809-.104-1.145-.312s-.6-.514-.792-.92c-.191-.405-.288-.88-.288-1.424,0-.832.211-1.475.632-1.928.422-.453.952-.68,1.593-.68.65,0,1.184.227,1.6.68s.624,1.096.624,1.928c0,.544-.096,1.019-.288,1.424-.191.406-.456.712-.792.92s-.718.312-1.144.312Zm-.721-6.448l-.527-.479,2.672-3.248.784.72-2.929,3.008Zm.721,5.648c.352,0,.647-.152.888-.456.24-.305.36-.771.36-1.4,0-.64-.12-1.104-.36-1.392s-.536-.433-.888-.433c-.342,0-.635.145-.88.433-.246.288-.368.752-.368,1.392,0,.63.122,1.096.368,1.4.245.304.538.456.88.456Z"/></g><g><path class="cls-3" d="m226.821,253v-.784c1.152-1.013,2.125-1.906,2.92-2.68s1.4-1.469,1.816-2.088c.416-.618.624-1.211.624-1.776,0-.586-.182-1.066-.544-1.439-.363-.373-.923-.561-1.681-.561-.479,0-.925.118-1.336.353-.41.234-.781.527-1.111.88l-.753-.752c.459-.47.952-.846,1.48-1.128s1.154-.424,1.88-.424c.683,0,1.272.125,1.769.376.495.25.88.6,1.151,1.048.272.448.408.976.408,1.584,0,.64-.197,1.285-.592,1.936-.395.651-.947,1.336-1.656,2.057-.709.72-1.528,1.507-2.456,2.359.32-.031.64-.056.96-.071.32-.017.635-.024.944-.024h3.359v1.136h-7.184Z"/><path class="cls-3" d="m235.907,253v-.784c1.152-1.013,2.125-1.906,2.92-2.68s1.4-1.469,1.816-2.088c.416-.618.624-1.211.624-1.776,0-.586-.182-1.066-.544-1.439-.363-.373-.923-.561-1.681-.561-.479,0-.925.118-1.336.353-.41.234-.781.527-1.111.88l-.753-.752c.459-.47.952-.846,1.48-1.128s1.154-.424,1.88-.424c.683,0,1.272.125,1.769.376.495.25.88.6,1.151,1.048.272.448.408.976.408,1.584,0,.64-.197,1.285-.592,1.936-.395.651-.947,1.336-1.656,2.057-.709.72-1.528,1.507-2.456,2.359.32-.031.64-.056.96-.071.32-.017.635-.024.944-.024h3.359v1.136h-7.184Z"/><path class="cls-3" d="m247.312,253.192c-.352,0-.656-.126-.912-.376-.256-.251-.384-.573-.384-.968,0-.405.128-.733.384-.984s.561-.376.912-.376c.362,0,.67.125.92.376.251.251.376.579.376.984,0,.395-.125.717-.376.968s-.558.376-.92.376Z"/><path class="cls-3" d="m255.133,253.192c-.608,0-1.142-.066-1.601-.2-.458-.133-.855-.307-1.191-.52-.336-.214-.632-.438-.888-.673l.655-.863c.225.202.473.392.744.567.272.177.584.32.937.433.352.111.752.168,1.199.168.48,0,.918-.097,1.312-.288.395-.192.706-.461.936-.809.229-.346.345-.76.345-1.239,0-.704-.229-1.254-.688-1.648s-1.066-.592-1.824-.592c-.427,0-.789.054-1.088.16s-.629.262-.992.464l-.704-.448.337-4.912h5.775v1.137h-4.607l-.272,3.023c.288-.128.578-.229.872-.304.293-.074.632-.112,1.016-.112.65,0,1.243.112,1.776.336.533.225.954.573,1.264,1.048s.464,1.08.464,1.816-.179,1.362-.535,1.88c-.357.518-.824.909-1.4,1.176s-1.189.4-1.84.4Z"/><path class="cls-3" d="m262.403,247.864c-.427,0-.809-.104-1.145-.312-.336-.207-.6-.514-.792-.92-.191-.405-.288-.88-.288-1.424,0-.832.211-1.475.633-1.928.421-.453.951-.68,1.592-.68.65,0,1.184.227,1.6.68s.624,1.096.624,1.928c0,.544-.096,1.019-.288,1.424-.191.406-.456.713-.792.92-.336.208-.718.312-1.144.312Zm-1.424,4.624l-.784-.72,2.928-3.009.528.48-2.672,3.248Zm1.424-5.424c.352,0,.647-.152.888-.456s.36-.771.36-1.4c0-.64-.12-1.104-.36-1.392s-.536-.433-.888-.433c-.342,0-.635.145-.88.433-.246.288-.368.752-.368,1.392,0,.63.122,1.097.368,1.4.245.304.538.456.88.456Zm4.288,6.128c-.427,0-.809-.104-1.145-.312s-.6-.514-.792-.92c-.191-.405-.288-.88-.288-1.424,0-.832.211-1.475.632-1.928.422-.453.952-.68,1.593-.68.65,0,1.184.227,1.6.68s.624,1.096.624,1.928c0,.544-.096,1.019-.288,1.424-.191.406-.456.712-.792.92s-.718.312-1.144.312Zm-.721-6.448l-.527-.479,2.672-3.248.784.72-2.929,3.008Zm.721,5.648c.352,0,.647-.152.888-.456.24-.305.36-.771.36-1.4,0-.64-.12-1.104-.36-1.392s-.536-.433-.888-.433c-.342,0-.635.145-.88.433-.246.288-.368.752-.368,1.392,0,.63.122,1.096.368,1.4.245.304.538.456.88.456Z"/></g><g><path class="cls-3" d="m133.096,310.192c-.758,0-1.467-.123-2.128-.368s-1.227-.528-1.696-.848l.608-.864c.448.32.944.576,1.488.768.544.192,1.173.288,1.888.288.661,0,1.154-.122,1.479-.368.325-.245.488-.527.488-.848,0-.149-.029-.288-.088-.416s-.171-.25-.336-.368c-.166-.117-.408-.229-.729-.336-.319-.106-.746-.213-1.279-.319-1.014-.214-1.773-.502-2.28-.864s-.76-.832-.76-1.408c0-.629.271-1.154.815-1.576.544-.421,1.35-.632,2.416-.632.598,0,1.174.099,1.729.296s1.023.43,1.408.696l-.641.848c-.352-.256-.752-.456-1.2-.6-.447-.145-.917-.216-1.407-.216-.448,0-.803.051-1.064.151-.262.102-.448.237-.56.408-.112.171-.168.357-.168.56,0,.331.178.59.536.776.356.187.93.36,1.72.521.864.181,1.527.384,1.992.607.464.225.783.48.96.769.176.288.264.629.264,1.023,0,.427-.134.813-.4,1.16s-.655.627-1.168.84c-.512.214-1.142.32-1.888.32Z"/><path class="cls-3" d="m142.868,310.192c-.811,0-1.539-.16-2.185-.48-.646-.319-1.151-.783-1.52-1.392s-.552-1.339-.552-2.192c0-.874.197-1.615.592-2.224s.92-1.072,1.576-1.392c.655-.32,1.378-.48,2.168-.48.64,0,1.191.112,1.656.336.464.224.855.491,1.176.8l-.656.849c-.32-.277-.65-.496-.992-.656-.341-.16-.72-.24-1.136-.24-.598,0-1.126.126-1.584.376-.459.251-.813.603-1.064,1.056-.25.454-.376.979-.376,1.576,0,.587.123,1.104.368,1.553.245.447.595.797,1.048,1.048.453.25.979.376,1.576.376.48,0,.92-.097,1.32-.288.399-.192.76-.422,1.08-.688l.592.849c-.427.384-.904.683-1.432.896-.528.214-1.08.32-1.656.32Z"/><path class="cls-3" d="m150.608,310.192c-.479,0-.922-.088-1.327-.264-.406-.177-.726-.43-.96-.761-.235-.33-.353-.725-.353-1.184,0-.875.438-1.539,1.312-1.992.874-.453,2.314-.76,4.319-.92-.011-.352-.082-.678-.216-.976-.134-.299-.35-.536-.647-.713-.299-.176-.699-.264-1.2-.264-.331,0-.659.046-.984.136-.325.091-.635.208-.928.353-.294.144-.562.291-.809.439l-.512-.896c.256-.171.568-.344.937-.521.367-.176.765-.319,1.191-.432s.869-.168,1.328-.168c.715,0,1.304.134,1.769.4.464.267.81.637,1.04,1.111.229.475.344,1.038.344,1.688v4.768h-1.072l-.112-1.056h-.048c-.427.342-.906.635-1.439.88-.534.245-1.078.368-1.633.368Zm.353-1.056c.448,0,.891-.102,1.328-.305.438-.202.874-.485,1.312-.848v-2.048c-1.109.096-1.981.229-2.616.399-.634.171-1.082.387-1.344.648s-.392.562-.392.904c0,.287.08.525.24.712.159.187.37.322.632.407.261.086.541.129.84.129Z"/><path class="cls-3" d="m161.131,310.192c-.821,0-1.451-.237-1.888-.712-.438-.475-.656-1.171-.656-2.088v-7.712h-2.656v-1.072h3.968v8.88c0,.565.139.976.416,1.232.277.256.646.384,1.104.384.224,0,.453-.029.688-.088s.496-.152.784-.28l.336.992c-.352.128-.683.237-.992.328-.31.09-.677.136-1.104.136Z"/><path class="cls-3" d="m168.796,310.192c-.779,0-1.485-.16-2.12-.48-.635-.319-1.139-.786-1.512-1.399-.374-.613-.561-1.353-.561-2.216,0-.843.187-1.568.561-2.177.373-.607.86-1.074,1.464-1.399.603-.325,1.25-.488,1.943-.488.747,0,1.385.152,1.912.456.528.304.934.728,1.216,1.271.283.545.425,1.185.425,1.921,0,.149-.006.293-.017.432s-.026.262-.048.368h-6.576v-1.024h5.792l-.336.368c0-.917-.211-1.605-.632-2.064-.422-.458-.989-.688-1.704-.688-.479,0-.926.117-1.336.352-.411.235-.738.576-.984,1.024-.245.448-.367.997-.367,1.648,0,.672.133,1.231.399,1.68s.63.787,1.088,1.016c.459.229.977.345,1.553.345.469,0,.893-.067,1.271-.2.379-.134.744-.312,1.096-.536l.48.864c-.384.256-.824.475-1.32.655-.496.182-1.059.272-1.688.272Z"/><path class="cls-3" d="m137.393,332.817c-1.109-.875-1.986-1.918-2.632-3.128-.646-1.211-.968-2.59-.968-4.137s.322-2.928.968-4.144,1.522-2.257,2.632-3.12l.721.672c-1.067.896-1.856,1.883-2.368,2.96-.513,1.077-.769,2.288-.769,3.632s.256,2.552.769,3.624c.512,1.072,1.301,2.062,2.368,2.968l-.721.673Z"/><path class="cls-3" d="m139.556,330.001v-1.088h2.944v-7.521h-2.288v-.848c.405-.053.763-.117,1.072-.192.309-.074.592-.157.848-.248.256-.09.49-.193.704-.312h.976v9.12h2.673v1.088h-6.929Z"/><path class="cls-3" d="m150.65,330.193c-.352,0-.656-.126-.912-.376-.256-.251-.384-.573-.384-.969,0-.405.128-.732.384-.983s.561-.376.912-.376c.362,0,.67.125.92.376.251.251.376.578.376.983,0,.396-.125.718-.376.969s-.558.376-.92.376Z"/><path class="cls-3" d="m154.982,330.001v-1.088h2.944v-7.521h-2.288v-.848c.405-.053.763-.117,1.072-.192.309-.074.592-.157.848-.248.256-.09.49-.193.704-.312h.976v9.12h2.673v1.088h-6.929Z"/><path class="cls-3" d="m163.859,332.817l-.72-.673c1.066-.906,1.855-1.896,2.368-2.968.512-1.072.768-2.279.768-3.624s-.256-2.555-.768-3.632c-.513-1.077-1.302-2.064-2.368-2.96l.72-.672c1.12.863,2,1.904,2.64,3.12.641,1.216.961,2.598.961,4.144s-.32,2.926-.961,4.137c-.64,1.21-1.52,2.253-2.64,3.128Z"/></g><g><path class="cls-3" d="m696.47,325.765c-.758,0-1.467-.123-2.128-.368s-1.227-.528-1.696-.848l.608-.864c.448.32.944.576,1.488.768.544.192,1.173.288,1.888.288.661,0,1.154-.122,1.479-.368.325-.245.488-.527.488-.848,0-.149-.029-.288-.088-.416s-.171-.25-.336-.368c-.166-.117-.408-.229-.729-.336-.319-.106-.746-.213-1.279-.319-1.014-.214-1.773-.502-2.28-.864s-.76-.832-.76-1.408c0-.629.271-1.154.815-1.576.544-.421,1.35-.632,2.416-.632.598,0,1.174.099,1.729.296s1.023.43,1.408.696l-.641.848c-.352-.256-.752-.456-1.2-.6-.447-.145-.917-.216-1.407-.216-.448,0-.803.051-1.064.151-.262.102-.448.237-.56.408-.112.171-.168.357-.168.56,0,.331.178.59.536.776.356.187.93.36,1.72.521.864.181,1.527.384,1.992.607.464.225.783.48.96.769.176.288.264.629.264,1.023,0,.427-.134.813-.4,1.16s-.655.627-1.168.84c-.512.214-1.142.32-1.888.32Z"/><path class="cls-3" d="m706.242,325.765c-.811,0-1.539-.16-2.185-.48-.646-.319-1.151-.783-1.52-1.392s-.552-1.339-.552-2.192c0-.874.197-1.615.592-2.224s.92-1.072,1.576-1.392c.655-.32,1.378-.48,2.168-.48.64,0,1.191.112,1.656.336.464.224.855.491,1.176.8l-.656.849c-.32-.277-.65-.496-.992-.656-.341-.16-.72-.24-1.136-.24-.598,0-1.126.126-1.584.376-.459.251-.813.603-1.064,1.056-.25.454-.376.979-.376,1.576,0,.587.123,1.104.368,1.553.245.447.595.797,1.048,1.048.453.25.979.376,1.576.376.48,0,.92-.097,1.32-.288.399-.192.76-.422,1.08-.688l.592.849c-.427.384-.904.683-1.432.896-.528.214-1.08.32-1.656.32Z"/><path class="cls-3" d="m713.982,325.765c-.479,0-.922-.088-1.327-.264-.406-.177-.726-.43-.96-.761-.235-.33-.353-.725-.353-1.184,0-.875.438-1.539,1.312-1.992.874-.453,2.314-.76,4.319-.92-.011-.352-.082-.678-.216-.976-.134-.299-.35-.536-.647-.713-.299-.176-.699-.264-1.2-.264-.331,0-.659.046-.984.136-.325.091-.635.208-.928.353-.294.144-.562.291-.809.439l-.512-.896c.256-.171.568-.344.937-.521.367-.176.765-.319,1.191-.432s.869-.168,1.328-.168c.715,0,1.304.134,1.769.4.464.267.81.637,1.04,1.111.229.475.344,1.038.344,1.688v4.768h-1.072l-.112-1.056h-.048c-.427.342-.906.635-1.439.88-.534.245-1.078.368-1.633.368Zm.353-1.056c.448,0,.891-.102,1.328-.305.438-.202.874-.485,1.312-.848v-2.048c-1.109.096-1.981.229-2.616.399-.634.171-1.082.387-1.344.648s-.392.562-.392.904c0,.287.08.525.24.712.159.187.37.322.632.407.261.086.541.129.84.129Z"/><path class="cls-3" d="m724.505,325.765c-.821,0-1.451-.237-1.888-.712-.438-.475-.656-1.171-.656-2.088v-7.712h-2.656v-1.072h3.968v8.88c0,.565.139.976.416,1.232.277.256.646.384,1.104.384.224,0,.453-.029.688-.088s.496-.152.784-.28l.336.992c-.352.128-.683.237-.992.328-.31.09-.677.136-1.104.136Z"/><path class="cls-3" d="m732.17,325.765c-.779,0-1.485-.16-2.12-.48-.635-.319-1.139-.786-1.512-1.399-.374-.613-.561-1.353-.561-2.216,0-.843.187-1.568.561-2.177.373-.607.86-1.074,1.464-1.399.603-.325,1.25-.488,1.943-.488.747,0,1.385.152,1.912.456.528.304.934.728,1.216,1.271.283.545.425,1.185.425,1.921,0,.149-.006.293-.017.432s-.026.262-.048.368h-6.576v-1.024h5.792l-.336.368c0-.917-.211-1.605-.632-2.064-.422-.458-.989-.688-1.704-.688-.479,0-.926.117-1.336.352-.411.235-.738.576-.984,1.024-.245.448-.367.997-.367,1.648,0,.672.133,1.231.399,1.68s.63.787,1.088,1.016c.459.229.977.345,1.553.345.469,0,.893-.067,1.271-.2.379-.134.744-.312,1.096-.536l.48.864c-.384.256-.824.475-1.32.655-.496.182-1.059.272-1.688.272Z"/><path class="cls-3" d="m708.479,348.39c-1.109-.875-1.986-1.918-2.632-3.128-.646-1.211-.968-2.59-.968-4.137s.322-2.928.968-4.144,1.522-2.257,2.632-3.12l.721.672c-1.067.896-1.856,1.883-2.368,2.96-.513,1.077-.769,2.288-.769,3.632s.256,2.552.769,3.624c.512,1.072,1.301,2.062,2.368,2.968l-.721.673Z"/><path class="cls-3" d="m710.643,345.573v-1.088h2.944v-7.521h-2.288v-.848c.405-.053.763-.117,1.072-.192.309-.074.592-.157.848-.248.256-.09.49-.193.704-.312h.976v9.12h2.673v1.088h-6.929Z"/><path class="cls-3" d="m719.52,348.39l-.72-.673c1.066-.906,1.855-1.896,2.368-2.968.512-1.072.768-2.279.768-3.624s-.256-2.555-.768-3.632c-.513-1.077-1.302-2.064-2.368-2.96l.72-.672c1.12.863,2,1.904,2.64,3.12.641,1.216.961,2.598.961,4.144s-.32,2.926-.961,4.137c-.64,1.21-1.52,2.253-2.64,3.128Z"/></g><g><path class="cls-3" d="m887.47,325.765c-.758,0-1.467-.123-2.128-.368s-1.227-.528-1.696-.848l.608-.864c.448.32.944.576,1.488.768.544.192,1.173.288,1.888.288.661,0,1.154-.122,1.479-.368.325-.245.488-.527.488-.848,0-.149-.029-.288-.088-.416s-.171-.25-.336-.368c-.166-.117-.408-.229-.729-.336-.319-.106-.746-.213-1.279-.319-1.014-.214-1.773-.502-2.28-.864s-.76-.832-.76-1.408c0-.629.271-1.154.815-1.576.544-.421,1.35-.632,2.416-.632.598,0,1.174.099,1.729.296s1.023.43,1.408.696l-.641.848c-.352-.256-.752-.456-1.2-.6-.447-.145-.917-.216-1.407-.216-.448,0-.803.051-1.064.151-.262.102-.448.237-.56.408-.112.171-.168.357-.168.56,0,.331.178.59.536.776.356.187.93.36,1.72.521.864.181,1.527.384,1.992.607.464.225.783.48.96.769.176.288.264.629.264,1.023,0,.427-.134.813-.4,1.16s-.655.627-1.168.84c-.512.214-1.142.32-1.888.32Z"/><path class="cls-3" d="m897.242,325.765c-.811,0-1.539-.16-2.185-.48-.646-.319-1.151-.783-1.52-1.392s-.552-1.339-.552-2.192c0-.874.197-1.615.592-2.224s.92-1.072,1.576-1.392c.655-.32,1.378-.48,2.168-.48.64,0,1.191.112,1.656.336.464.224.855.491,1.176.8l-.656.849c-.32-.277-.65-.496-.992-.656-.341-.16-.72-.24-1.136-.24-.598,0-1.126.126-1.584.376-.459.251-.813.603-1.064,1.056-.25.454-.376.979-.376,1.576,0,.587.123,1.104.368,1.553.245.447.595.797,1.048,1.048.453.25.979.376,1.576.376.48,0,.92-.097,1.32-.288.399-.192.76-.422,1.08-.688l.592.849c-.427.384-.904.683-1.432.896-.528.214-1.08.32-1.656.32Z"/><path class="cls-3" d="m904.982,325.765c-.479,0-.922-.088-1.327-.264-.406-.177-.726-.43-.96-.761-.235-.33-.353-.725-.353-1.184,0-.875.438-1.539,1.312-1.992.874-.453,2.314-.76,4.319-.92-.011-.352-.082-.678-.216-.976-.134-.299-.35-.536-.647-.713-.299-.176-.699-.264-1.2-.264-.331,0-.659.046-.984.136-.325.091-.635.208-.928.353-.294.144-.562.291-.809.439l-.512-.896c.256-.171.568-.344.937-.521.367-.176.765-.319,1.191-.432s.869-.168,1.328-.168c.715,0,1.304.134,1.769.4.464.267.81.637,1.04,1.111.229.475.344,1.038.344,1.688v4.768h-1.072l-.112-1.056h-.048c-.427.342-.906.635-1.439.88-.534.245-1.078.368-1.633.368Zm.353-1.056c.448,0,.891-.102,1.328-.305.438-.202.874-.485,1.312-.848v-2.048c-1.109.096-1.981.229-2.616.399-.634.171-1.082.387-1.344.648s-.392.562-.392.904c0,.287.08.525.24.712.159.187.37.322.632.407.261.086.541.129.84.129Z"/><path class="cls-3" d="m915.505,325.765c-.821,0-1.451-.237-1.888-.712-.438-.475-.656-1.171-.656-2.088v-7.712h-2.656v-1.072h3.968v8.88c0,.565.139.976.416,1.232.277.256.646.384,1.104.384.224,0,.453-.029.688-.088s.496-.152.784-.28l.336.992c-.352.128-.683.237-.992.328-.31.09-.677.136-1.104.136Z"/><path class="cls-3" d="m923.17,325.765c-.779,0-1.485-.16-2.12-.48-.635-.319-1.139-.786-1.512-1.399-.374-.613-.561-1.353-.561-2.216,0-.843.187-1.568.561-2.177.373-.607.86-1.074,1.464-1.399.603-.325,1.25-.488,1.943-.488.747,0,1.385.152,1.912.456.528.304.934.728,1.216,1.271.283.545.425,1.185.425,1.921,0,.149-.006.293-.017.432s-.026.262-.048.368h-6.576v-1.024h5.792l-.336.368c0-.917-.211-1.605-.632-2.064-.422-.458-.989-.688-1.704-.688-.479,0-.926.117-1.336.352-.411.235-.738.576-.984,1.024-.245.448-.367.997-.367,1.648,0,.672.133,1.231.399,1.68s.63.787,1.088,1.016c.459.229.977.345,1.553.345.469,0,.893-.067,1.271-.2.379-.134.744-.312,1.096-.536l.48.864c-.384.256-.824.475-1.32.655-.496.182-1.059.272-1.688.272Z"/><path class="cls-3" d="m891.767,348.39c-1.109-.875-1.986-1.918-2.632-3.128-.646-1.211-.968-2.59-.968-4.137s.322-2.928.968-4.144,1.522-2.257,2.632-3.12l.721.672c-1.067.896-1.856,1.883-2.368,2.96-.513,1.077-.769,2.288-.769,3.632s.256,2.552.769,3.624c.512,1.072,1.301,2.062,2.368,2.968l-.721.673Z"/><path class="cls-3" d="m893.93,345.573v-1.088h2.944v-7.521h-2.288v-.848c.405-.053.763-.117,1.072-.192.309-.074.592-.157.848-.248.256-.09.49-.193.704-.312h.976v9.12h2.673v1.088h-6.929Z"/><path class="cls-3" d="m905.024,345.766c-.352,0-.656-.126-.912-.376-.256-.251-.384-.573-.384-.969,0-.405.128-.732.384-.983s.561-.376.912-.376c.362,0,.67.125.92.376.251.251.376.578.376.983,0,.396-.125.718-.376.969s-.558.376-.92.376Z"/><path class="cls-3" d="m909.356,345.573v-1.088h2.944v-7.521h-2.288v-.848c.405-.053.763-.117,1.072-.192.309-.074.592-.157.848-.248.256-.09.49-.193.704-.312h.976v9.12h2.673v1.088h-6.929Z"/><path class="cls-3" d="m918.233,348.39l-.72-.673c1.066-.906,1.855-1.896,2.368-2.968.512-1.072.768-2.279.768-3.624s-.256-2.555-.768-3.632c-.513-1.077-1.302-2.064-2.368-2.96l.72-.672c1.12.863,2,1.904,2.64,3.12.641,1.216.961,2.598.961,4.144s-.32,2.926-.961,4.137c-.64,1.21-1.52,2.253-2.64,3.128Z"/></g><g><path class="cls-3" d="m761.521,328.938c-.378,0-.616-.294-.616-.588,0-.238.168-.477.532-.519,1.877-.252,3.11-1.078,3.712-2.367.127-.266.322-.364.519-.364.309,0,.631.252.631.589,0,.069-.015.14-.057.224-1.261,2.745-4.65,3.025-4.721,3.025Zm3.306-4.132c-1.008-.028-1.582-.603-1.61-1.387-.028-.715-.042-1.919-.042-3.025,0-.799.014-1.527.028-1.989.027-.645.462-1.331,1.513-1.359.658-.027,1.471-.027,2.311-.027s1.695,0,2.41.027c.826.028,1.4.617,1.429,1.247.027.616.042,1.484.042,2.354,0,1.022-.015,2.059-.042,2.745-.028.757-.603,1.387-1.499,1.415-.252.014-.519.014-.771.014-.014.574-.028,1.317-.028,1.779,0,.883.252,1.051,1.471,1.051,1.135,0,1.877-.183,1.877-1.541,0-.393.28-.561.561-.561.057,0,.645,0,.645.616,0,2.382-1.709,2.55-3.124,2.55-1.261,0-2.563-.084-2.563-1.639,0-.393,0-1.485.015-2.241-.911,0-1.808,0-2.62-.028Zm4.959-4.538h-5.519v1.274h5.519v-1.274Zm-.014-.911c0-.925,0-1.303-.784-1.33-.463-.015-1.079-.028-1.737-.028-.799,0-1.625.014-2.213.028-.757.027-.757.532-.757,1.33h5.491Zm-5.491,3.096c0,.252.014.49.014.687.015.519.295.672.757.687.658.028,1.358.042,2.087.042.631,0,1.261-.014,1.863-.042.757-.028.771-.448.771-1.373h-5.491Z"/><path class="cls-3" d="m779.353,325.395c.504,0,.98.253,1.246.841.267.574.603.98,1.289.98.771,0,1.751-.21,2.312-.462.126-.057.252-.084.363-.084.351,0,.575.266.575.574,0,.266-.169.56-.561.7-.631.238-1.555.393-2.396.393-1.177,0-2.017-.238-2.535-1.485-.154-.378-.448-.588-.812-.588-.477,0-1.064.364-1.597,1.177-.112.182-.225.336-.337.462-.294.336-.574.392-.784.392-.28,0-.616-.195-.616-.504,0-.14.056-.308.225-.49.462-.546,1.19-1.303,1.666-1.737,1.149-1.05,3.755-3.88,3.755-4.006,0-.014-.015-.014-.028-.014-.028,0-.07.014-.126.042-.547.252-2.661,1.135-3.306,1.135-.435,0-.658-.295-.658-.589,0-.266.168-.532.532-.588.588-.084,1.694-.364,2.493-.658.924-.337,1.135-.393,1.4-.393.658,0,1.106.435,1.106.896,0,.196-.084.393-.252.574-.672.715-2.507,2.508-3.529,3.544.182-.07.378-.112.574-.112Zm2.129-6.009c-.561,0-2.003-.91-2.424-1.247-.168-.126-.237-.28-.237-.434,0-.28.266-.532.602-.532.141,0,.295.042.435.14.504.322,1.12.645,1.877.91.309.112.435.309.435.519,0,.322-.295.645-.687.645Z"/><path class="cls-3" d="m788.637,324.849c-.154.252-.406.364-.631.364-.294,0-.574-.196-.574-.505,0-.111.042-.252.14-.392.715-1.051,1.751-2.563,2.41-4.034-.337.07-.645.098-.953.098-1.442,0-1.499-.462-1.499-.672,0-.267.196-.532.547-.532.07,0,.154.014.252.042.225.069.49.111.784.111.379,0,.812-.069,1.247-.168.154-.49.224-.98.308-1.498.042-.322.295-.463.547-.463.294,0,.588.183.588.532,0,.238-.084.616-.238,1.093.253-.112.49-.224.673-.35.112-.07.224-.112.322-.112.28,0,.532.224.532.504,0,.252-.21.7-1.892,1.177-.658,1.597-1.61,3.277-2.562,4.805Zm3.081,3.642c-1.204,0-2.297-.756-2.297-1.694,0-.953,1.12-1.64,2.633-1.64.379,0,.757.043,1.121.127,0-.127-.014-.28-.014-.435,0-.42-.028-.896-.042-1.316v-.154c0-.658.056-1.205.602-1.205.28,0,.561.183.561.532,0,.028,0,.07-.014.112-.042.238-.07.378-.07.687v.378c0,.309,0,.658.014.98,0,.225.028.49.042.757.925.378,2.018,1.106,2.018,1.709,0,.364-.294.645-.616.645-.168,0-.336-.084-.49-.267-.238-.294-.574-.588-.967-.854-.252.925-1.303,1.639-2.479,1.639Zm.196-2.395c-.7,0-1.471.266-1.471.7,0,.35.462.687,1.177.687.687,0,1.345-.379,1.471-.981l.028-.195c-.393-.141-.799-.21-1.205-.21Zm4.314-4.371c-.603-.392-1.261-.616-2.018-.616-.084,0-.168.014-.252.014h-.042c-.308,0-.462-.224-.462-.462,0-.49.448-.574.98-.574.336,0,2.577.168,2.577,1.121,0,.321-.238.602-.532.602-.084,0-.168-.027-.252-.084Z"/><path class="cls-3" d="m799.758,322.005c-.042-.672-.07-.952-.07-1.316,0-.238,0-.868.645-.868.505,0,.589.392.589.994,0,.168-.015.294-.015.477,0,3.796,1.485,4.412,1.682,4.412.182,0,.476-.126.966-1.232.112-.253.309-.351.49-.351.322,0,.645.267.645.588,0,.28-.854,2.326-2.143,2.326-1.149,0-2.578-1.625-2.788-5.029Zm9.231,2.018c-.21-1.135-.841-2.228-1.625-2.773-.154-.112-.225-.253-.225-.393,0-.267.238-.532.561-.532.799,0,2.55,2.241,2.55,3.487,0,.463-.351.729-.687.729-.252,0-.505-.168-.574-.518Z"/><path class="cls-3" d="m813.923,319.119c-.126-.153-.183-.322-.183-.448,0-.336.322-.588.659-.588.195,0,.406.084.546.294.616.883,1.274,2.199,1.695,3.39.798-.56,1.639-1.064,2.605-1.597.14-.07.266-.112.392-.112.351,0,.589.28.589.603,0,.238-.141.49-.477.673-2.157,1.106-5.155,2.773-5.155,4.342,0,.112,0,1.373,2.256,1.373.924,0,1.946-.21,2.507-.42.126-.042.238-.07.351-.07.378,0,.603.294.603.616,0,.294-.196.616-.645.742-.631.183-1.597.336-2.563.336-3.474,0-3.656-2.045-3.656-2.479,0-.911.547-1.947,1.723-2.9l.477-.378c-.364-1.12-1.064-2.577-1.723-3.376Z"/><path class="cls-3" d="m828.71,327.973c-2.983,0-4.51-1.261-4.51-1.905,0-.351.28-.631.616-.631.168,0,.336.07.504.238.673.715,1.766,1.009,2.97,1.009.883,0,1.835-.154,2.731-.42.112-.028.21-.042.294-.042.406,0,.631.294.631.616,0,.294-.183.616-.603.742-.854.266-1.765.393-2.634.393Zm1.556-7.242c-.057,0-.141-.014-.211-.028-.714-.154-1.471-.224-2.241-.224-.686,0-1.372.056-2.03.182-.07.014-.127.014-.183.014-.378,0-.603-.266-.603-.56s.238-.631.743-.7c.644-.099,1.471-.154,2.269-.154,2.34,0,2.928.28,2.928.868,0,.309-.252.603-.672.603Z"/><path class="cls-3" d="m841.313,321.627c1.877,0,3.334,1.106,3.334,2.787,0,1.289-.91,2.647-2.605,3.362-1.247.532-2.354.84-2.941.84-.463,0-.729-.322-.729-.644,0-.267.196-.547.658-.603,3.25-.435,4.343-1.934,4.343-2.998,0-.966-.911-1.751-2.199-1.751-1.443,0-3.152.883-4.146,2.031-.406.49-.28.378-.588.757-.211.252-.477.364-.729.364-.337,0-.631-.211-.631-.532,0-.169.07-.351.225-.561.266-.336.42-.364.896-.911.658-.756.784-.882,1.498-1.708.729-.841,2.41-2.97,2.41-3.138,0-.043-.028-.07-.057-.07-.042,0-.084.014-.126.042-.645.35-2.27.812-2.577.812-.406,0-.645-.294-.645-.603,0-.28.21-.561.673-.603.602-.056,1.961-.42,2.451-.588.49-.183.7-.252.924-.252.393,0,1.051.237,1.051.812,0,.21-.098.434-.322.672-.938.98-2.255,2.55-3.096,3.432.799-.616,1.877-.952,2.928-.952Z"/><path class="cls-3" d="m854.575,328.21h-.028c-3.039,0-4.692-2.045-4.692-4.3,0-1.499.729-2.676,1.163-3.193.098-.112.14-.183.14-.225,0-.014-.014-.028-.042-.028-.112,0-.477.126-2.213.757-.351.126-1.303.462-1.625.462-.448,0-.715-.336-.715-.672,0-.28.183-.561.589-.645,3.039-.687,3.88-.896,4.944-1.205,2.34-.672,3.502-.826,3.95-.826.519,0,.742.351.742.687,0,.504-.546.63-1.134.63h-.28c-.701,0-1.485.225-2.003.406-1.093.393-2.396,1.976-2.396,3.67,0,1.625,1.106,3.138,3.361,3.138h.238c.603,0,.91.337.91.673s-.294.672-.91.672Zm1.316-5.015c-.224-.266-.924-.784-1.261-.924-.21-.084-.294-.238-.294-.379,0-.224.225-.462.532-.462.141,0,1.863.673,1.863,1.358,0,.309-.252.574-.519.574-.111,0-.224-.056-.322-.168Zm1.359-1.19c-.225-.266-.938-.742-1.289-.883-.224-.084-.308-.237-.308-.378,0-.238.224-.476.532-.476.279,0,1.877.658,1.877,1.33,0,.294-.238.561-.505.561-.098,0-.21-.042-.308-.154Z"/><path class="cls-3" d="m782.797,338.675c-.351,0-.546-.294-.546-.574s.182-.561.56-.574c1.023-.042,3.11-.07,4.539-.07.924,0,1.484.448,1.484,1.037,0,.182-.056.392-.168.588-.477.841-1.009,1.681-1.61,2.451.854.519,3.823,2.367,3.823,3.278,0,.392-.308.729-.658.729-.168,0-.336-.07-.476-.253-.701-.882-2.228-2.227-3.404-2.913-2.157,2.396-4.664,3.361-5.015,3.361s-.588-.279-.588-.588c0-.238.153-.49.504-.616,3.796-1.358,6.093-5.281,6.093-5.688,0-.252-.224-.252-.616-.252-.98,0-2.773.057-3.908.084h-.014Zm7.046-.687c-.168-.294-.771-.883-1.064-1.078-.154-.099-.225-.225-.225-.337,0-.224.225-.42.49-.42.322,0,1.667.952,1.667,1.499,0,.309-.266.547-.518.547-.141,0-.267-.057-.351-.211Zm1.568-.798c-.182-.28-.784-.883-1.092-1.065-.168-.098-.238-.224-.238-.35,0-.21.21-.42.49-.42.406,0,1.694.966,1.694,1.498,0,.295-.252.532-.518.532-.126,0-.252-.056-.337-.195Z"/><path class="cls-3" d="m793.301,341.28c-.435,0-.631-.28-.631-.574,0-.309.225-.616.631-.616h8.824c.406,0,.603.294.603.603,0,.294-.196.588-.603.588h-8.824Z"/><path class="cls-3" d="m804.859,345.987c-.42,0-.687-.322-.687-.645,0-.267.196-.532.616-.589.252-.027.504-.084.771-.126.7-1.513,2.228-5.448,2.577-7.214.084-.435.379-.616.673-.616.336,0,.658.238.658.645,0,.462-1.499,4.608-2.521,6.962,1.597-.294,3.292-.673,4.454-.967-.42-.546-.854-1.022-1.204-1.331-.126-.111-.183-.237-.183-.378,0-.28.267-.546.589-.546.154,0,.322.056.49.21,1.093.98,2.661,2.857,2.661,3.614,0,.392-.336.686-.672.686-.225,0-.435-.126-.561-.42-.112-.28-.252-.561-.435-.854-2.549.729-6.892,1.569-7.228,1.569Z"/><path class="cls-3" d="m821.399,345.875c.014-1.19.084-3.698.084-5.365-1.19,1.177-2.479,2.172-4.034,3.124-.238.14-.448.196-.631.196-.392,0-.63-.28-.63-.589,0-.21.112-.42.378-.56,2.676-1.359,5.323-3.895,6.934-6.43.168-.267.393-.364.589-.364.336,0,.616.266.616.588,0,.126-.042.267-.141.406-.644.854-1.26,1.625-1.877,2.34-.027.938-.042,2.857-.042,4.482,0,.854,0,1.639.015,2.129.014.574-.406.729-.658.729-.309,0-.603-.21-.603-.673v-.014Z"/><path class="cls-3" d="m830.821,339.992c-.519-.505-1.472-.967-2.144-1.149-.267-.069-.378-.28-.378-.504,0-.309.237-.645.644-.645.238,0,1.751.448,2.746,1.205.196.154.28.336.28.532,0,.392-.322.771-.7.771-.141,0-.309-.07-.448-.21Zm-1.303,5.841c-.435,0-.701-.322-.701-.658,0-.28.196-.574.616-.687,2.914-.742,5.688-3.39,7.074-6.205.126-.267.364-.379.589-.379.321,0,.63.225.63.616,0,.127-.042.28-.126.448-2.914,5.478-7.662,6.864-8.082,6.864Z"/></g><g><path class="cls-3" d="m450.883,327.153c-.608,0-1.142-.066-1.601-.2-.458-.133-.855-.307-1.191-.52-.336-.214-.632-.438-.888-.673l.655-.863c.225.202.473.392.744.567.272.177.584.32.937.433.352.111.752.168,1.199.168.48,0,.918-.097,1.312-.288.395-.192.706-.461.936-.809.229-.346.345-.76.345-1.239,0-.704-.229-1.254-.688-1.648s-1.066-.592-1.824-.592c-.427,0-.789.054-1.088.16s-.629.262-.992.464l-.704-.448.337-4.912h5.775v1.137h-4.607l-.272,3.023c.288-.128.578-.229.872-.304.293-.074.632-.112,1.016-.112.65,0,1.243.112,1.776.336.533.225.954.573,1.264,1.048s.464,1.08.464,1.816-.179,1.362-.535,1.88c-.357.518-.824.909-1.4,1.176s-1.189.4-1.84.4Z"/><path class="cls-3" d="m459.929,327.153c-.608,0-1.142-.066-1.601-.2-.458-.133-.855-.307-1.191-.52-.336-.214-.632-.438-.888-.673l.655-.863c.225.202.473.392.744.567.272.177.584.32.937.433.352.111.752.168,1.199.168.48,0,.918-.097,1.312-.288.395-.192.706-.461.936-.809.229-.346.345-.76.345-1.239,0-.704-.229-1.254-.688-1.648s-1.066-.592-1.824-.592c-.427,0-.789.054-1.088.16s-.629.262-.992.464l-.704-.448.337-4.912h5.775v1.137h-4.607l-.272,3.023c.288-.128.578-.229.872-.304.293-.074.632-.112,1.016-.112.65,0,1.243.112,1.776.336.533.225.954.573,1.264,1.048s.464,1.08.464,1.816-.179,1.362-.535,1.88c-.357.518-.824.909-1.4,1.176s-1.189.4-1.84.4Z"/><path class="cls-3" d="m467.199,321.825c-.427,0-.809-.104-1.145-.312-.336-.207-.6-.514-.792-.92-.191-.405-.288-.88-.288-1.424,0-.832.211-1.475.633-1.928.421-.453.951-.68,1.592-.68.65,0,1.184.227,1.6.68s.624,1.096.624,1.928c0,.544-.096,1.019-.288,1.424-.191.406-.456.713-.792.92-.336.208-.718.312-1.144.312Zm-1.424,4.624l-.784-.72,2.928-3.009.528.48-2.672,3.248Zm1.424-5.424c.352,0,.647-.152.888-.456s.36-.771.36-1.4c0-.64-.12-1.104-.36-1.392s-.536-.433-.888-.433c-.342,0-.635.145-.88.433-.246.288-.368.752-.368,1.392,0,.63.122,1.097.368,1.4.245.304.538.456.88.456Zm4.288,6.128c-.427,0-.809-.104-1.145-.312s-.6-.514-.792-.92c-.191-.405-.288-.88-.288-1.424,0-.832.211-1.475.632-1.928.422-.453.952-.68,1.593-.68.65,0,1.184.227,1.6.68s.624,1.096.624,1.928c0,.544-.096,1.019-.288,1.424-.191.406-.456.712-.792.92s-.718.312-1.144.312Zm-.721-6.448l-.527-.479,2.672-3.248.784.72-2.929,3.008Zm.721,5.648c.352,0,.647-.152.888-.456.24-.305.36-.771.36-1.4,0-.64-.12-1.104-.36-1.392s-.536-.433-.888-.433c-.342,0-.635.145-.88.433-.246.288-.368.752-.368,1.392,0,.63.122,1.096.368,1.4.245.304.538.456.88.456Z"/><path class="cls-3" d="m478.051,320.979c-.602.099-1.134.154-1.498.154-.406,0-.603-.266-.603-.546s.196-.561.574-.589c.448-.027.883-.027,1.387-.069l.771-.07c.168-.63.378-1.513.477-2.339.042-.364.336-.547.63-.547s.574.196.574.561c0,.336-.392,1.989-.448,2.199l.631-.056c.069,0,.14-.015.21-.015.826,0,1.807.406,1.807,2.298,0,4.202-2.045,4.636-2.899,4.636-.266,0-1.373-.056-1.373-.742,0-.294.238-.574.574-.574.057,0,.112,0,.169.014.224.057.434.099.63.099,1.751,0,1.765-3.194,1.765-3.432,0-.827-.224-1.275-.868-1.275-.112,0-.322.015-.925.07-.7,2.186-1.639,4.118-2.745,5.688-.182.266-.448.378-.687.378-.322,0-.616-.225-.616-.561,0-.168.07-.351.252-.561.967-1.078,1.892-2.829,2.55-4.776l-.337.056Zm7.774,1.724c-.336-.799-1.05-1.892-2.129-2.479-.168-.098-.252-.238-.252-.393,0-.252.238-.504.561-.504.771,0,2.969,2.073,2.969,3.067,0,.406-.336.673-.644.673-.211,0-.406-.112-.505-.364Z"/><path class="cls-3" d="m491.281,317.366c0,.434-.126,1.204-.225,1.919-.14,1.009-.378,2.017-.378,3.054,0,.603.084,1.19.182,1.19.042,0,.084-.056.141-.196.364-.882.532-1.19.854-1.19.238,0,.477.225.477.49,0,.07-.015.14-.043.21-.714,1.611-.728,2.493-.728,2.55,0,.069.014.182.014.294,0,.63-.504.672-.645.672-.196,0-.392-.098-.532-.35-.588-1.121-.756-2.27-.756-3.376,0-1.247.21-2.423.294-3.418.069-.812.153-1.274.182-1.877.015-.378.309-.561.589-.561.294,0,.574.196.574.574v.015Zm6.065,1.667c.364-.07.686-.154.966-.238.07-.014.141-.028.196-.028.351,0,.603.267.603.547,0,.237-.168.462-.589.56l-1.19.238c0,.435.015.868.042,1.485.015.195.015.392.015.588,0,2.479-.785,4.328-2.788,5.743-.14.098-.294.14-.434.14-.337,0-.603-.266-.603-.56,0-.168.084-.351.308-.49,1.766-1.149,2.367-2.815,2.367-5.099,0,0-.027-1.43-.027-1.611-.589.084-1.177.14-1.737.14-.756,0-1.331-.027-1.331-.602,0-.28.211-.547.603-.547.057,0,.112,0,.168.015.211.042.448.056.715.056.477,0,1.022-.056,1.555-.126v-.645c0-.729-.07-1.009-.126-1.484v-.084c0-.406.28-.603.574-.603.742,0,.742.784.742,1.583,0,.182,0,.392-.014.602l-.014.421Z"/><path class="cls-3" d="m509.693,327.171h-.027c-3.04,0-4.692-2.045-4.692-4.3,0-1.499.728-2.676,1.162-3.193.099-.112.154-.183.154-.225,0-.014-.014-.028-.042-.028s-.154.015-2.228.757c-.35.126-1.303.462-1.625.462-.448,0-.714-.336-.714-.672,0-.28.182-.561.588-.645,3.488-.799,4.23-.994,4.959-1.205.742-.21,2.886-.826,3.937-.826.518,0,.742.351.742.687,0,.504-.547.63-1.135.63h-.28c-.7,0-1.484.225-2.003.406-1.093.393-2.396,1.976-2.396,3.67,0,1.625,1.106,3.138,3.362,3.138h.237c.603,0,.911.337.911.673s-.294.672-.911.672Z"/><path class="cls-3" d="m447.662,338.675c-.351,0-.546-.294-.546-.574s.182-.561.56-.574c1.023-.042,3.11-.07,4.539-.07.924,0,1.484.448,1.484,1.037,0,.182-.056.392-.168.588-.477.841-1.009,1.681-1.61,2.451.854.519,3.823,2.367,3.823,3.278,0,.392-.308.729-.658.729-.168,0-.336-.07-.476-.253-.701-.882-2.228-2.227-3.404-2.913-2.157,2.396-4.664,3.361-5.015,3.361s-.588-.279-.588-.588c0-.238.153-.49.504-.616,3.796-1.358,6.093-5.281,6.093-5.688,0-.252-.224-.252-.616-.252-.98,0-2.773.057-3.908.084h-.014Zm7.046-.687c-.168-.294-.771-.882-1.064-1.078-.154-.099-.225-.225-.225-.336,0-.225.225-.421.49-.421.322,0,1.667.953,1.667,1.499,0,.309-.266.547-.518.547-.141,0-.267-.057-.351-.211Zm1.568-.798c-.182-.28-.784-.883-1.092-1.065-.168-.098-.238-.224-.238-.35,0-.21.21-.42.49-.42.406,0,1.694.966,1.694,1.499,0,.294-.252.532-.518.532-.126,0-.252-.057-.337-.196Z"/><path class="cls-3" d="m458.166,341.28c-.435,0-.631-.28-.631-.574,0-.309.225-.616.631-.616h8.824c.406,0,.603.294.603.603,0,.294-.196.588-.603.588h-8.824Z"/><path class="cls-3" d="m469.725,345.987c-.42,0-.687-.322-.687-.645,0-.267.196-.532.616-.589.252-.027.504-.084.771-.126.7-1.513,2.228-5.448,2.577-7.214.084-.434.379-.616.673-.616.336,0,.658.238.658.645,0,.462-1.499,4.608-2.521,6.962,1.597-.294,3.292-.673,4.454-.967-.42-.546-.854-1.022-1.204-1.331-.126-.111-.183-.237-.183-.378,0-.28.267-.546.589-.546.154,0,.322.056.49.21,1.093.98,2.661,2.857,2.661,3.614,0,.392-.336.686-.672.686-.225,0-.435-.126-.561-.42-.112-.28-.252-.561-.435-.854-2.549.729-6.892,1.569-7.228,1.569Z"/><path class="cls-3" d="m486.336,339.459c0,.253-.014.505-.028.757.042-.028.085-.042.127-.056,1.751-.701,3.025-1.863,3.025-2.325,0-.141-.112-.225-.364-.225h-.658c-1.709,0-4.398.042-6.122.126h-.069c-.477,0-.7-.266-.7-.546,0-.294.224-.589.672-.603,1.723-.084,3.138-.084,7.284-.084.91,0,1.471.504,1.471,1.148,0,.322-.126.673-.435,1.022-1.877,2.102-3.698,2.605-3.978,2.605-.141,0-.267-.028-.364-.098-.351,2.129-1.401,3.81-3.502,5.112-.196.126-.379.168-.547.168-.406,0-.687-.28-.687-.602,0-.225.141-.463.463-.617,2.157-1.078,3.067-3.109,3.067-5.099,0-.21-.014-.42-.028-.63-.056-.616.49-.742.673-.742.351,0,.7.224.7.672v.014Z"/><path class="cls-3" d="m495.501,341.49c0,.393-.336.589-.673.589-.294,0-.588-.168-.588-.532v-.911c0-.364,0-.784-.014-1.135v-.027c0-1.106,1.05-1.443,1.639-1.457.588-.014,1.232-.028,1.891-.028,0-.574-.014-1.414-.014-1.779,0-.392.308-.588.616-.588s.616.196.616.561v1.807c.687,0,1.358,0,1.933.015.967.027,1.611.56,1.611,1.414v.112c-.336,5.827-6.107,6.948-6.304,6.948-.392,0-.645-.309-.645-.616,0-.253.154-.49.533-.575,3.992-.854,5.084-4.006,5.084-5.547,0-.448-.238-.672-.7-.7-.546-.028-1.331-.042-2.115-.042-.896,0-1.765.014-2.213.042-.519.028-.7.42-.7.742,0,.337.027,1.275.042,1.695v.014Z"/><path class="cls-3" d="m508.577,345.903c0,.49-.35.742-.687.742-.308,0-.616-.225-.616-.673v-.042c.07-1.597.112-4.748.112-7.214,0-1.078-.014-2.031-.028-2.647v-.014c0-.393.309-.589.616-.589s.631.196.631.603v.014l-.042,3.404h.07c.21,0,2.703.477,3.613,1.232.183.141.252.337.252.519,0,.351-.279.7-.616.7-.126,0-.252-.042-.378-.14-.645-.477-2.199-1.051-2.955-1.177v1.611c0,1.442.014,2.801.027,3.655v.015Z"/></g><g><path class="cls-3" d="m696.624,253c.042-.971.133-1.855.271-2.655.139-.801.342-1.555.608-2.265.267-.709.607-1.399,1.023-2.072.416-.672.912-1.365,1.488-2.079h-5.888v-1.137h7.392v.816c-.683.768-1.242,1.504-1.68,2.208s-.784,1.419-1.04,2.144c-.256.726-.445,1.496-.568,2.312-.122.815-.199,1.726-.231,2.728h-1.376Z"/><path class="cls-3" d="m705.896,253c.042-.971.133-1.855.271-2.655.139-.801.342-1.555.608-2.265.267-.709.607-1.399,1.023-2.072.416-.672.912-1.365,1.488-2.079h-5.888v-1.137h7.392v.816c-.683.768-1.242,1.504-1.68,2.208s-.784,1.419-1.04,2.144c-.256.726-.445,1.496-.568,2.312-.122.815-.199,1.726-.231,2.728h-1.376Z"/><path class="cls-3" d="m713.457,253.192c-.352,0-.656-.126-.912-.376-.256-.251-.384-.573-.384-.968,0-.405.128-.733.384-.984s.561-.376.912-.376c.362,0,.67.125.92.376.251.251.376.579.376.984,0,.395-.125.717-.376.968s-.558.376-.92.376Z"/><path class="cls-3" d="m721.278,253.192c-.608,0-1.142-.066-1.601-.2-.458-.133-.855-.307-1.191-.52-.336-.214-.632-.438-.888-.673l.655-.863c.225.202.473.392.744.567.272.177.584.32.937.433.352.111.752.168,1.199.168.48,0,.918-.097,1.312-.288.395-.192.706-.461.936-.809.229-.346.345-.76.345-1.239,0-.704-.229-1.254-.688-1.648s-1.066-.592-1.824-.592c-.427,0-.789.054-1.088.16s-.629.262-.992.464l-.704-.448.337-4.912h5.775v1.137h-4.607l-.272,3.023c.288-.128.578-.229.872-.304.293-.074.632-.112,1.016-.112.65,0,1.243.112,1.776.336.533.225.954.573,1.264,1.048s.464,1.08.464,1.816-.179,1.362-.535,1.88c-.357.518-.824.909-1.4,1.176s-1.189.4-1.84.4Z"/><path class="cls-3" d="m728.548,247.864c-.427,0-.809-.104-1.145-.312-.336-.207-.6-.514-.792-.92-.191-.405-.288-.88-.288-1.424,0-.832.211-1.475.633-1.928.421-.453.951-.68,1.592-.68.65,0,1.184.227,1.6.68s.624,1.096.624,1.928c0,.544-.096,1.019-.288,1.424-.191.406-.456.713-.792.92-.336.208-.718.312-1.144.312Zm-1.424,4.624l-.784-.72,2.928-3.009.528.48-2.672,3.248Zm1.424-5.424c.352,0,.647-.152.888-.456s.36-.771.36-1.4c0-.64-.12-1.104-.36-1.392s-.536-.433-.888-.433c-.342,0-.635.145-.88.433-.246.288-.368.752-.368,1.392,0,.63.122,1.097.368,1.4.245.304.538.456.88.456Zm4.288,6.128c-.427,0-.809-.104-1.145-.312s-.6-.514-.792-.92c-.191-.405-.288-.88-.288-1.424,0-.832.211-1.475.632-1.928.422-.453.952-.68,1.593-.68.65,0,1.184.227,1.6.68s.624,1.096.624,1.928c0,.544-.096,1.019-.288,1.424-.191.406-.456.712-.792.92s-.718.312-1.144.312Zm-.721-6.448l-.527-.479,2.672-3.248.784.72-2.929,3.008Zm.721,5.648c.352,0,.647-.152.888-.456.24-.305.36-.771.36-1.4,0-.64-.12-1.104-.36-1.392s-.536-.433-.888-.433c-.342,0-.635.145-.88.433-.246.288-.368.752-.368,1.392,0,.63.122,1.096.368,1.4.245.304.538.456.88.456Z"/></g><g><path class="cls-3" d="m70.508,25.216c-.828,0-1.62-.138-2.376-.414-.756-.276-1.397-.594-1.926-.954l.792-1.152c.516.36,1.077.642,1.683.846.606.204,1.293.306,2.062.306.672,0,1.173-.12,1.503-.36.33-.24.495-.522.495-.846,0-.156-.033-.3-.1-.432-.065-.132-.186-.255-.359-.369-.175-.114-.433-.225-.774-.333-.342-.108-.789-.222-1.341-.342-1.164-.24-2.025-.57-2.583-.99-.558-.42-.837-.959-.837-1.62,0-.744.321-1.359.963-1.845s1.575-.729,2.799-.729c.696,0,1.359.117,1.989.351s1.167.501,1.611.801l-.828,1.116c-.421-.276-.88-.495-1.377-.657-.498-.162-1.018-.243-1.558-.243-.443,0-.798.051-1.062.153-.265.102-.456.237-.576.405s-.18.354-.18.558c0,.336.188.597.566.783s.993.369,1.846.549c.96.204,1.7.432,2.223.684.521.252.882.543,1.08.873s.297.723.297,1.179c0,.492-.156.942-.468,1.35-.312.408-.766.732-1.359.972s-1.329.36-2.205.36Z"/><path class="cls-3" d="m80.947,25.216c-.972,0-1.716-.285-2.231-.855-.517-.57-.774-1.383-.774-2.439v-8.244h-2.934v-1.44h4.716v9.792c0,.612.155,1.05.468,1.314.312.264.708.396,1.188.396.229,0,.472-.027.729-.081.258-.054.543-.147.854-.279l.433,1.332c-.408.132-.792.25-1.152.351-.359.102-.792.153-1.296.153Z"/><path class="cls-3" d="m87.694,25v-7.362h-3.96v-1.44h5.724v8.802h-1.764Zm.72-10.512c-.385,0-.702-.117-.954-.351-.252-.234-.378-.543-.378-.927s.126-.693.378-.927c.252-.234.569-.351.954-.351s.702.117.954.351c.252.234.378.543.378.927s-.126.693-.378.927c-.252.234-.57.351-.954.351Z"/><path class="cls-3" d="m96.533,25.216c-1.14,0-2.058-.405-2.754-1.215s-1.044-1.941-1.044-3.393c0-.948.189-1.767.567-2.457.378-.69.866-1.224,1.467-1.602.6-.378,1.235-.567,1.908-.567.516,0,.978.096,1.386.288s.786.462,1.134.81h.055l-.091-1.566v-3.276h1.782v12.762h-1.458l-.144-1.08h-.055c-.348.348-.762.651-1.241.909-.48.258-.984.387-1.513.387Zm.414-1.476c.396,0,.777-.099,1.144-.297.365-.198.723-.495,1.07-.891v-4.176c-.348-.324-.695-.555-1.044-.693-.348-.138-.695-.207-1.044-.207-.456,0-.873.126-1.251.378s-.681.612-.909,1.08c-.228.468-.342,1.02-.342,1.656,0,1.008.21,1.785.63,2.331.42.546,1.002.819,1.746.819Z"/><path class="cls-3" d="m108.167,25.216c-.889,0-1.692-.18-2.412-.54-.721-.36-1.296-.885-1.729-1.575-.432-.69-.647-1.527-.647-2.511,0-.96.216-1.785.647-2.475.433-.69.99-1.218,1.674-1.584.685-.366,1.416-.549,2.196-.549.864,0,1.599.177,2.205.531.605.354,1.068.84,1.386,1.458.318.618.478,1.341.478,2.169,0,.192-.01.372-.027.54s-.039.312-.062.432h-7.236v-1.314h6.12l-.396.432c0-.948-.213-1.659-.639-2.133s-1.017-.711-1.773-.711c-.504,0-.969.12-1.395.36s-.769.6-1.026,1.08-.387,1.068-.387,1.764c0,.708.141,1.302.423,1.782s.666.84,1.152,1.08c.485.24,1.041.36,1.665.36.504,0,.96-.069,1.368-.207.407-.138.81-.327,1.206-.567l.647,1.134c-.468.3-.987.549-1.557.747-.57.198-1.197.297-1.881.297Z"/><path class="cls-3" d="m118.128,25.216c-.828,0-1.62-.138-2.376-.414-.756-.276-1.397-.594-1.926-.954l.792-1.152c.516.36,1.077.642,1.683.846.606.204,1.293.306,2.062.306.672,0,1.173-.12,1.503-.36.33-.24.495-.522.495-.846,0-.156-.033-.3-.1-.432-.065-.132-.186-.255-.359-.369-.175-.114-.433-.225-.774-.333-.342-.108-.789-.222-1.341-.342-1.164-.24-2.025-.57-2.583-.99-.558-.42-.837-.959-.837-1.62,0-.744.321-1.359.963-1.845s1.575-.729,2.799-.729c.696,0,1.359.117,1.989.351s1.167.501,1.611.801l-.828,1.116c-.421-.276-.88-.495-1.377-.657-.498-.162-1.018-.243-1.558-.243-.443,0-.798.051-1.062.153-.265.102-.456.237-.576.405s-.18.354-.18.558c0,.336.188.597.566.783s.993.369,1.846.549c.96.204,1.7.432,2.223.684.521.252.882.543,1.08.873s.297.723.297,1.179c0,.492-.156.942-.468,1.35-.312.408-.766.732-1.359.972s-1.329.36-2.205.36Z"/><path class="cls-3" d="m124.481,25v-12.762h1.782v3.384l-.108,1.98h.054c.42-.444.889-.825,1.404-1.143s1.11-.477,1.782-.477c1.032,0,1.788.309,2.268.927.48.618.721,1.497.721,2.637v5.454h-1.782v-5.22c0-.768-.142-1.334-.423-1.701-.282-.366-.754-.549-1.413-.549-.468,0-.889.117-1.26.351-.372.234-.786.585-1.242,1.053v6.066h-1.782Z"/><path class="cls-3" d="m139.08,25.216c-.769,0-1.485-.18-2.151-.54-.666-.36-1.206-.885-1.62-1.575s-.621-1.521-.621-2.493.207-1.803.621-2.493.954-1.218,1.62-1.584c.666-.366,1.383-.549,2.151-.549s1.484.183,2.15.549c.666.366,1.206.895,1.62,1.584s.621,1.521.621,2.493-.207,1.803-.621,2.493-.954,1.215-1.62,1.575c-.666.36-1.383.54-2.15.54Zm0-1.458c.516,0,.966-.132,1.35-.396.384-.264.681-.63.891-1.098.21-.468.315-1.02.315-1.656,0-.624-.105-1.173-.315-1.647-.21-.474-.507-.843-.891-1.107-.384-.264-.834-.396-1.35-.396s-.967.132-1.351.396c-.384.264-.681.633-.891,1.107-.21.474-.315,1.023-.315,1.647,0,.636.105,1.188.315,1.656.21.468.507.834.891,1.098.384.264.834.396,1.351.396Z"/><path class="cls-3" d="m146.492,25l-1.782-8.802h1.764l.9,4.842c.084.42.156.831.216,1.233.06.402.114.813.162,1.233h.072c.06-.42.132-.831.216-1.233.084-.402.168-.813.252-1.233l.954-4.122h1.584l.936,4.122c.097.42.192.831.288,1.233.096.402.168.813.216,1.233h.072c.072-.42.132-.831.181-1.233.047-.402.107-.813.18-1.233l.899-4.842h1.656l-1.746,8.802h-2.214l-.864-3.852c-.071-.336-.141-.72-.207-1.152-.065-.432-.135-.912-.207-1.44h-.071c-.061.492-.123.954-.189,1.386-.065.432-.135.834-.207,1.206l-.846,3.852h-2.214Z"/><path class="cls-3" d="m156.095,27.628v-1.458h8.64v1.458h-8.64Z"/><path class="cls-3" d="m165.866,17.639v-1.35l2.521-.09h5.22v1.44h-7.74Zm2.467,7.362v-9.414c0-.696.128-1.314.387-1.854.258-.54.653-.96,1.188-1.26s1.222-.45,2.062-.45c.456,0,.896.042,1.323.126.426.084.843.21,1.251.378l-.396,1.314c-.336-.144-.657-.246-.963-.306s-.646-.09-1.017-.09c-.721,0-1.245.183-1.575.549s-.495.885-.495,1.557v9.45h-1.764Z"/><path class="cls-3" d="m178.504,25.216c-.564,0-1.071-.105-1.521-.315-.45-.209-.805-.504-1.062-.882s-.387-.825-.387-1.341c0-.984.482-1.734,1.449-2.25.966-.516,2.553-.858,4.761-1.026-.013-.36-.093-.69-.243-.99s-.384-.537-.702-.711-.735-.261-1.251-.261c-.359,0-.714.045-1.062.135-.349.09-.685.213-1.009.369-.323.156-.63.318-.918.486l-.666-1.206c.324-.192.696-.387,1.116-.585.42-.198.873-.357,1.359-.477s.98-.18,1.485-.18c.815,0,1.493.15,2.033.45s.948.726,1.225,1.278c.275.552.414,1.218.414,1.998v5.292h-1.458l-.145-1.134h-.054c-.468.36-.996.675-1.584.945s-1.183.405-1.782.405Zm.504-1.422c.468,0,.93-.102,1.386-.306.456-.204.906-.492,1.351-.864v-2.088c-1.152.084-2.056.216-2.709.396-.654.18-1.113.405-1.377.675-.265.27-.396.585-.396.945,0,.288.081.525.243.711s.375.321.639.405c.265.084.553.126.864.126Z"/><path class="cls-3" d="m189.653,25.216c-1.14,0-2.058-.405-2.754-1.215s-1.044-1.941-1.044-3.393c0-.948.189-1.767.567-2.457.378-.69.866-1.224,1.467-1.602.6-.378,1.235-.567,1.908-.567.516,0,.978.096,1.386.288s.786.462,1.134.81h.055l-.091-1.566v-3.276h1.782v12.762h-1.458l-.144-1.08h-.055c-.348.348-.762.651-1.241.909-.48.258-.984.387-1.513.387Zm.414-1.476c.396,0,.777-.099,1.144-.297.365-.198.723-.495,1.07-.891v-4.176c-.348-.324-.695-.555-1.044-.693-.348-.138-.695-.207-1.044-.207-.456,0-.873.126-1.251.378s-.681.612-.909,1.08c-.228.468-.342,1.02-.342,1.656,0,1.008.21,1.785.63,2.331.42.546,1.002.819,1.746.819Z"/><path class="cls-3" d="m201.287,25.216c-.889,0-1.692-.18-2.412-.54-.721-.36-1.296-.885-1.729-1.575-.432-.69-.647-1.527-.647-2.511,0-.96.216-1.785.647-2.475.433-.69.99-1.218,1.674-1.584.685-.366,1.416-.549,2.196-.549.864,0,1.599.177,2.205.531.605.354,1.068.84,1.386,1.458.318.618.478,1.341.478,2.169,0,.192-.01.372-.027.54s-.039.312-.062.432h-7.236v-1.314h6.12l-.396.432c0-.948-.213-1.659-.639-2.133s-1.017-.711-1.773-.711c-.504,0-.969.12-1.395.36s-.769.6-1.026,1.08-.387,1.068-.387,1.764c0,.708.141,1.302.423,1.782s.666.84,1.152,1.08c.485.24,1.041.36,1.665.36.504,0,.96-.069,1.368-.207.407-.138.81-.327,1.206-.567l.647,1.134c-.468.3-.987.549-1.557.747-.57.198-1.197.297-1.881.297Z"/></g><g><path class="cls-3" d="m70.508,213.216c-.828,0-1.62-.138-2.376-.414-.756-.275-1.397-.594-1.926-.953l.792-1.152c.516.36,1.077.642,1.683.846.606.204,1.293.307,2.062.307.672,0,1.173-.12,1.503-.36s.495-.522.495-.846c0-.156-.033-.3-.1-.433-.065-.132-.186-.255-.359-.369-.175-.113-.433-.225-.774-.333-.342-.107-.789-.222-1.341-.342-1.164-.239-2.025-.569-2.583-.99-.558-.42-.837-.959-.837-1.619,0-.744.321-1.359.963-1.846.642-.485,1.575-.729,2.799-.729.696,0,1.359.117,1.989.351.63.234,1.167.501,1.611.801l-.828,1.116c-.421-.275-.88-.495-1.377-.657-.498-.161-1.018-.242-1.558-.242-.443,0-.798.051-1.062.152-.265.103-.456.237-.576.405s-.18.354-.18.558c0,.337.188.598.566.783.378.187.993.369,1.846.549.96.204,1.7.433,2.223.685.521.252.882.543,1.08.873s.297.723.297,1.179c0,.492-.156.942-.468,1.35-.312.408-.766.732-1.359.973-.594.239-1.329.359-2.205.359Z"/><path class="cls-3" d="m80.947,213.216c-.972,0-1.716-.284-2.231-.854-.517-.57-.774-1.383-.774-2.439v-8.243h-2.934v-1.44h4.716v9.792c0,.612.155,1.05.468,1.314.312.264.708.396,1.188.396.229,0,.472-.027.729-.081s.543-.146.854-.279l.433,1.332c-.408.133-.792.25-1.152.352-.359.102-.792.152-1.296.152Z"/><path class="cls-3" d="m87.694,213v-7.361h-3.96v-1.44h5.724v8.802h-1.764Zm.72-10.512c-.385,0-.702-.117-.954-.351-.252-.234-.378-.543-.378-.928s.126-.692.378-.927.569-.351.954-.351.702.116.954.351.378.543.378.927-.126.693-.378.928c-.252.233-.57.351-.954.351Z"/><path class="cls-3" d="m96.533,213.216c-1.14,0-2.058-.404-2.754-1.215-.696-.81-1.044-1.94-1.044-3.393,0-.948.189-1.767.567-2.457s.866-1.225,1.467-1.603c.6-.378,1.235-.566,1.908-.566.516,0,.978.096,1.386.288.408.191.786.462,1.134.81h.055l-.091-1.565v-3.276h1.782v12.762h-1.458l-.144-1.08h-.055c-.348.349-.762.651-1.241.909-.48.258-.984.387-1.513.387Zm.414-1.476c.396,0,.777-.099,1.144-.297.365-.198.723-.495,1.07-.892v-4.176c-.348-.324-.695-.555-1.044-.692-.348-.138-.695-.207-1.044-.207-.456,0-.873.126-1.251.378s-.681.611-.909,1.08c-.228.468-.342,1.02-.342,1.655,0,1.009.21,1.785.63,2.331.42.547,1.002.819,1.746.819Z"/><path class="cls-3" d="m108.167,213.216c-.889,0-1.692-.18-2.412-.54-.721-.359-1.296-.885-1.729-1.574-.432-.69-.647-1.527-.647-2.512,0-.96.216-1.784.647-2.475.433-.689.99-1.218,1.674-1.584.685-.366,1.416-.549,2.196-.549.864,0,1.599.177,2.205.531.605.354,1.068.84,1.386,1.458.318.618.478,1.341.478,2.169,0,.191-.01.372-.027.54s-.039.312-.062.432h-7.236v-1.314h6.12l-.396.433c0-.948-.213-1.659-.639-2.133-.426-.475-1.017-.711-1.773-.711-.504,0-.969.119-1.395.359s-.769.601-1.026,1.08c-.258.48-.387,1.068-.387,1.764,0,.709.141,1.303.423,1.782.282.48.666.84,1.152,1.08.485.24,1.041.36,1.665.36.504,0,.96-.069,1.368-.207.407-.138.81-.327,1.206-.567l.647,1.134c-.468.301-.987.55-1.557.747-.57.198-1.197.297-1.881.297Z"/><path class="cls-3" d="m118.128,213.216c-.828,0-1.62-.138-2.376-.414-.756-.275-1.397-.594-1.926-.953l.792-1.152c.516.36,1.077.642,1.683.846.606.204,1.293.307,2.062.307.672,0,1.173-.12,1.503-.36s.495-.522.495-.846c0-.156-.033-.3-.1-.433-.065-.132-.186-.255-.359-.369-.175-.113-.433-.225-.774-.333-.342-.107-.789-.222-1.341-.342-1.164-.239-2.025-.569-2.583-.99-.558-.42-.837-.959-.837-1.619,0-.744.321-1.359.963-1.846.642-.485,1.575-.729,2.799-.729.696,0,1.359.117,1.989.351.63.234,1.167.501,1.611.801l-.828,1.116c-.421-.275-.88-.495-1.377-.657-.498-.161-1.018-.242-1.558-.242-.443,0-.798.051-1.062.152-.265.103-.456.237-.576.405s-.18.354-.18.558c0,.337.188.598.566.783.378.187.993.369,1.846.549.96.204,1.7.433,2.223.685.521.252.882.543,1.08.873s.297.723.297,1.179c0,.492-.156.942-.468,1.35-.312.408-.766.732-1.359.973-.594.239-1.329.359-2.205.359Z"/><path class="cls-3" d="m124.481,213v-12.762h1.782v3.384l-.108,1.98h.054c.42-.444.889-.825,1.404-1.144.516-.317,1.11-.477,1.782-.477,1.032,0,1.788.309,2.268.927.48.618.721,1.497.721,2.637v5.454h-1.782v-5.22c0-.768-.142-1.335-.423-1.701-.282-.366-.754-.549-1.413-.549-.468,0-.889.117-1.26.351-.372.234-.786.585-1.242,1.054v6.065h-1.782Z"/><path class="cls-3" d="m139.08,213.216c-.769,0-1.485-.18-2.151-.54-.666-.359-1.206-.885-1.62-1.574-.414-.69-.621-1.521-.621-2.493s.207-1.803.621-2.493c.414-.689.954-1.218,1.62-1.584s1.383-.549,2.151-.549,1.484.183,2.15.549,1.206.895,1.62,1.584c.414.69.621,1.521.621,2.493s-.207,1.803-.621,2.493c-.414.689-.954,1.215-1.62,1.574-.666.36-1.383.54-2.15.54Zm0-1.458c.516,0,.966-.132,1.35-.396s.681-.63.891-1.098c.21-.469.315-1.021.315-1.656,0-.624-.105-1.173-.315-1.647-.21-.474-.507-.843-.891-1.106s-.834-.396-1.35-.396-.967.133-1.351.396-.681.633-.891,1.106c-.21.475-.315,1.023-.315,1.647,0,.636.105,1.188.315,1.656.21.468.507.834.891,1.098s.834.396,1.351.396Z"/><path class="cls-3" d="m146.492,213l-1.782-8.802h1.764l.9,4.842c.084.42.156.831.216,1.233s.114.812.162,1.232h.072c.06-.42.132-.83.216-1.232s.168-.813.252-1.233l.954-4.122h1.584l.936,4.122c.097.42.192.831.288,1.233s.168.812.216,1.232h.072c.072-.42.132-.83.181-1.232.047-.402.107-.813.18-1.233l.899-4.842h1.656l-1.746,8.802h-2.214l-.864-3.852c-.071-.336-.141-.72-.207-1.152-.065-.432-.135-.912-.207-1.439h-.071c-.061.492-.123.953-.189,1.386-.065.432-.135.834-.207,1.206l-.846,3.852h-2.214Z"/><path class="cls-3" d="m156.095,215.628v-1.458h8.64v1.458h-8.64Z"/><path class="cls-3" d="m166.847,213v-.954l5.634-6.407h-5.004v-1.44h7.542v.954l-5.67,6.408h5.832v1.439h-8.334Z"/><path class="cls-3" d="m180.942,213.216c-.769,0-1.485-.18-2.151-.54-.666-.359-1.206-.885-1.62-1.574-.414-.69-.621-1.521-.621-2.493s.207-1.803.621-2.493c.414-.689.954-1.218,1.62-1.584s1.383-.549,2.151-.549,1.484.183,2.15.549,1.206.895,1.62,1.584c.414.69.621,1.521.621,2.493s-.207,1.803-.621,2.493c-.414.689-.954,1.215-1.62,1.574-.666.36-1.383.54-2.15.54Zm0-1.458c.516,0,.966-.132,1.35-.396s.681-.63.891-1.098c.21-.469.315-1.021.315-1.656,0-.624-.105-1.173-.315-1.647-.21-.474-.507-.843-.891-1.106s-.834-.396-1.35-.396-.967.133-1.351.396-.681.633-.891,1.106c-.21.475-.315,1.023-.315,1.647,0,.636.105,1.188.315,1.656.21.468.507.834.891,1.098s.834.396,1.351.396Z"/><path class="cls-3" d="m191.698,213.216c-.769,0-1.485-.18-2.151-.54-.666-.359-1.206-.885-1.62-1.574-.414-.69-.621-1.521-.621-2.493s.207-1.803.621-2.493c.414-.689.954-1.218,1.62-1.584s1.383-.549,2.151-.549,1.484.183,2.15.549,1.206.895,1.62,1.584c.414.69.621,1.521.621,2.493s-.207,1.803-.621,2.493c-.414.689-.954,1.215-1.62,1.574-.666.36-1.383.54-2.15.54Zm0-1.458c.516,0,.966-.132,1.35-.396s.681-.63.891-1.098c.21-.469.315-1.021.315-1.656,0-.624-.105-1.173-.315-1.647-.21-.474-.507-.843-.891-1.106s-.834-.396-1.35-.396-.967.133-1.351.396-.681.633-.891,1.106c-.21.475-.315,1.023-.315,1.647,0,.636.105,1.188.315,1.656.21.468.507.834.891,1.098s.834.396,1.351.396Z"/><path class="cls-3" d="m198.105,213v-8.802h1.404l.126,1.152h.054c.217-.408.472-.738.766-.99s.699-.378,1.215-.378c.42,0,.768.126,1.044.378s.468.63.576,1.134c.228-.456.498-.821.81-1.098.312-.276.721-.414,1.225-.414.623,0,1.106.237,1.448.711.343.474.514,1.155.514,2.043v6.264h-1.746v-6.138c0-.9-.276-1.35-.828-1.35-.252,0-.471.102-.657.306-.186.204-.381.51-.585.918v6.264h-1.548v-6.138c0-.444-.062-.78-.188-1.008-.127-.229-.333-.342-.621-.342-.265,0-.492.102-.685.306s-.384.51-.576.918v6.264h-1.746Z"/></g></g></svg>