<svg xmlns="http://www.w3.org/2000/svg" width="960" height="360" xmlns:xlink="http://www.w3.org/1999/xlink" viewBox="0 0 960 360"><defs><style>.cls-1{fill:#fafafd;}.cls-2{fill:#dadcde;}.cls-3{fill:#373039;}.cls-4{fill:#86c0de;}.cls-5{fill:url(#grad_10-6);}.cls-6{fill:url(#grad_10-2);}.cls-7{fill:url(#grad_10-3);}.cls-8{fill:url(#grad_10-7);}.cls-9{fill:url(#grad_10-5);}.cls-10{fill:url(#grad_10-4);}.cls-11{stroke-dasharray:0 0 2 2;}.cls-11,.cls-12,.cls-13,.cls-14,.cls-15,.cls-16{fill:none;stroke-miterlimit:10;}.cls-11,.cls-15,.cls-16{stroke:#373039;}.cls-17{fill:url(#grad_10);}.cls-12{stroke:#dadcde;}.cls-12,.cls-13,.cls-14{stroke-width:2px;}.cls-13{stroke:#86c0de;}.cls-14{stroke:#fff;}.cls-16{stroke-width:.5px;}</style><linearGradient id="grad_10" x1="314.824" y1="77" x2="345.5" y2="77" gradientTransform="translate(660.324 154) rotate(-180)" gradientUnits="userSpaceOnUse"><stop offset="0" stop-color="#dadcde"/><stop offset="1" stop-color="#86c0de"/></linearGradient><linearGradient id="grad_10-2" x1="645.176" x2="614.5" gradientTransform="translate(1259.676 154) rotate(-180)" xlink:href="#grad_10"/><linearGradient id="grad_10-3" x1="164.324" y1="197" x2="195" y2="197" gradientTransform="translate(359.324 394) rotate(-180)" xlink:href="#grad_10"/><linearGradient id="grad_10-4" x1="494.676" y1="197" x2="464" y2="197" gradientTransform="translate(958.676 394) rotate(-180)" xlink:href="#grad_10"/><linearGradient id="grad_10-5" x1="764.324" y1="197" x2="795" y2="197" gradientTransform="translate(1559.324 394) rotate(-180)" xlink:href="#grad_10"/><linearGradient id="grad_10-6" x1="464.824" y1="317" x2="495.5" y2="317" gradientTransform="translate(960.324 634) rotate(-180)" xlink:href="#grad_10"/><linearGradient id="grad_10-7" x1="795.176" y1="317" x2="764.5" y2="317" gradientTransform="translate(1559.676 634) rotate(-180)" xlink:href="#grad_10"/></defs><g id="bg"><rect class="cls-1" y="37" width="960" height="80"/><rect class="cls-1" y="283" width="960" height="74"/><rect class="cls-1" y="163" width="960" height="74"/></g><g id="icon"><g><line class="cls-13" x1="182.286" y1="97" x2="777.714" y2="97"/><polygon class="cls-4" points="186.27 100.391 182.877 97 186.27 93.609 183.391 93.609 180 97 183.391 100.391 186.27 100.391"/><polygon class="cls-4" points="773.73 100.391 777.123 97 773.73 93.609 776.609 93.609 780 97 776.609 100.391 773.73 100.391"/></g><g><line class="cls-13" x1="616.786" y1="107" x2="642.876" y2="107"/><polygon class="cls-4" points="620.77 110.391 617.377 107 620.77 103.609 617.891 103.609 614.5 107 617.891 110.391 620.77 110.391"/><polygon class="cls-4" points="638.892 110.391 642.285 107 638.892 103.609 641.771 103.609 645.162 107 641.771 110.391 638.892 110.391"/></g><g><line class="cls-13" x1="332.448" y1="51" x2="627.876" y2="51"/><polygon class="cls-4" points="336.431 54.391 333.039 51 336.431 47.609 333.552 47.609 330.162 51 333.552 54.391 336.431 54.391"/><polygon class="cls-4" points="623.892 54.391 627.285 51 623.892 47.609 626.771 47.609 630.162 51 626.771 54.391 623.892 54.391"/></g><g><rect class="cls-2" x="645.176" y="67" width="134.824" height="20"/><rect class="cls-2" x="180" y="67" width="135" height="20"/><rect class="cls-4" x="345" y="67" width="270" height="20"/><rect class="cls-17" x="314.824" y="67" width="30.676" height="20" transform="translate(660.324 154) rotate(180)"/><rect class="cls-6" x="614.5" y="67" width="30.676" height="20" transform="translate(1259.676 154) rotate(180)"/><line class="cls-14" x1="314.824" y1="67" x2="314.824" y2="87"/><line class="cls-14" x1="645.176" y1="67" x2="645.176" y2="87"/></g><g><line class="cls-13" x1="180.75" y1="222" x2="627.214" y2="222"/><rect class="cls-4" x="179.75" y="215.5" width="2" height="13"/><polygon class="cls-4" points="623.23 225.391 626.623 222 623.23 218.609 626.109 218.609 629.5 222 626.109 225.391 623.23 225.391"/></g><g><line class="cls-12" x1="29.5" y1="177" x2="178.75" y2="177"/><rect class="cls-2" x="177.75" y="170.5" width="2" height="13"/></g><g><line class="cls-12" x1="180.75" y1="317" x2="330" y2="317"/><rect class="cls-2" x="179.75" y="310.5" width="2" height="13"/></g><g><rect class="cls-2" x="494.5" y="187" width="135" height="20"/><rect class="cls-2" x="29.5" y="187" width="135" height="20"/><rect class="cls-4" x="194.5" y="187" width="270" height="20"/><rect class="cls-7" x="164.324" y="187" width="30.676" height="20" transform="translate(359.324 394) rotate(180)"/><rect class="cls-10" x="464" y="187" width="30.676" height="20" transform="translate(958.676 394) rotate(180)"/><line class="cls-14" x1="164.324" y1="187" x2="164.324" y2="207"/><line class="cls-14" x1="494.5" y1="187" x2="494.5" y2="207"/></g><g><rect class="cls-2" x="629.5" y="187" width="135" height="20"/><rect class="cls-4" x="794.5" y="187" width="165.5" height="20"/><rect class="cls-9" x="764.324" y="187" width="30.676" height="20" transform="translate(1559.324 394) rotate(180)"/><line class="cls-14" x1="764.324" y1="187" x2="764.324" y2="207"/></g><g><line class="cls-13" x1="180.75" y1="342" x2="927.714" y2="342"/><rect class="cls-4" x="179.75" y="335.5" width="2" height="13"/><polygon class="cls-4" points="923.73 345.391 927.123 342 923.73 338.609 926.609 338.609 930 342 926.609 345.391 923.73 345.391"/></g><g><rect class="cls-2" x="795" y="307" width="135" height="20"/><rect class="cls-2" x="330" y="307" width="135" height="20"/><rect class="cls-4" x="495" y="307" width="270" height="20"/><rect class="cls-5" x="464.824" y="307" width="30.676" height="20" transform="translate(960.324 634) rotate(180)"/><rect class="cls-8" x="764.5" y="307" width="30.676" height="20" transform="translate(1559.676 634) rotate(180)"/><line class="cls-14" x1="464.824" y1="307" x2="464.824" y2="327"/><line class="cls-14" x1="795" y1="307" x2="795" y2="327"/></g><rect class="cls-2" x="930" y="307" width="30" height="20"/><g><line class="cls-15" x1="780" y1="77" x2="180" y2="77"/><line class="cls-16" x1="720" y1="74" x2="720" y2="80"/><line class="cls-16" x1="660" y1="74" x2="660" y2="80"/><line class="cls-16" x1="600" y1="74" x2="600" y2="80"/><line class="cls-16" x1="540" y1="74" x2="540" y2="80"/><line class="cls-16" x1="480" y1="74" x2="480" y2="80"/><line class="cls-16" x1="420" y1="74" x2="420" y2="80"/><line class="cls-16" x1="360" y1="74" x2="360" y2="80"/><line class="cls-16" x1="300" y1="74" x2="300" y2="80"/><line class="cls-16" x1="240" y1="74" x2="240" y2="80"/></g></g><g id="dot"><line class="cls-11" x1="179.75" y1="37" x2="179.75" y2="117"/><line class="cls-11" x1="329.912" y1="37" x2="329.912" y2="67"/><line class="cls-11" x1="779.75" y1="37" x2="779.75" y2="357"/><line class="cls-11" x1="630.162" y1="37" x2="630.162" y2="67"/><line class="cls-11" x1="645.162" y1="87" x2="645.162" y2="117"/><line class="cls-11" x1="614.5" y1="87" x2="614.5" y2="117"/></g><g id="text"><g><path class="cls-3" d="m183.367,26.676c-1.314.486-1.927-1.278-.576-1.746,3.276-1.135,6.122-4.016,7.544-6.698.162-.306.09-.594-.306-.594-1.135-.019-3.619.072-5.204.107-1.08.036-1.152-1.692,0-1.746,1.314-.054,3.962-.09,5.78-.09,1.62,0,2.538,1.026,1.836,2.25-.612,1.062-1.26,2.089-1.998,3.062,1.494.9,3.781,2.412,4.609,3.564.72,1.009-.631,2.413-1.477,1.351-.883-1.098-2.737-2.736-4.213-3.619-1.585,1.765-3.529,3.224-5.996,4.159Z"/><path class="cls-3" d="m201.301,27.343c-1.477.45-2.143-1.333-.702-1.711,3.547-.954,5.834-3.133,6.644-5.42.181-.485.091-.773-.594-.792-1.837-.036-5.186.019-7.112.09-1.278.055-1.44-1.656-.054-1.692,2.322-.054,5.348-.072,7.796-.054,1.801.018,2.683,1.026,1.945,2.791-1.261,3.007-3.457,5.419-7.923,6.788Zm5.726-11.235c-1.692,0-4.177.054-6.122,0-1.188-.036-1.26-1.693.127-1.675,1.729.018,4.249.018,6.067,0,.612,0,.973.396.973.828s-.307.847-1.045.847Z"/><path class="cls-3" d="m214.422,24.012c-1.656,1.008-2.593-.828-1.368-1.423,3.313-1.62,6.752-4.934,8.786-8.139.793-1.242,2.377-.09,1.603.955-.81,1.08-1.584,2.052-2.358,2.952-.054,1.837-.09,6.555-.036,8.354.036,1.369-1.908,1.53-1.891.055.019-1.44.091-4.376.108-6.482-1.423,1.387-2.971,2.593-4.844,3.728Z"/><path class="cls-3" d="m232.086,26.784c.035,1.458-2.018,1.513-1.945.072.126-2.917.181-9.976.108-12.568-.036-1.224,1.908-1.206,1.872.019-.018.882-.035,2.448-.054,4.213.09,0,.198,0,.306.019,1.009.162,3.35.738,4.322,1.566.936.792-.091,2.358-1.117,1.603-.773-.576-2.557-1.278-3.511-1.459-.018,2.485-.018,5.078.019,6.536Zm2.61-10.569c-.954-.342-.288-1.494.594-1.225.505.162,1.459.595,1.891,1.009.757.738-.252,1.908-.9,1.225-.252-.271-1.206-.864-1.584-1.009Zm1.603-1.674c-.973-.307-.342-1.477.54-1.243.504.145,1.477.54,1.927.937.792.702-.198,1.927-.864,1.261-.271-.271-1.225-.828-1.603-.954Z"/><path class="cls-3" d="m244.458,21.652c-.666-.432-1.494-.792-2.232-.918-1.08-.18-.738-1.891.576-1.639.847.162,1.818.45,2.629.9.576.307.648.937.414,1.351-.234.432-.792.685-1.387.306Zm0,5.654c-1.422.468-2.017-1.477-.594-1.854,3.583-.973,7.58-4.934,9.471-8.517.595-1.116,2.395-.378,1.603,1.044-2.305,4.123-6.392,7.977-10.479,9.327Zm2.089-8.859c-.558-.576-1.278-1.098-1.963-1.386-1.025-.414-.306-2.017.919-1.477.792.36,1.71.882,2.395,1.494.486.433.414,1.045.09,1.404-.324.36-.954.469-1.44-.036Z"/><path class="cls-3" d="m260.114,23.31c-.504,0-.847-.324-.864-.702-.018-.396.324-.721.918-.721,1.225,0,3.728-.072,5.023-.072,0-.359-.018-.647-.018-.846-.019-.396-.271-.54-.666-.559-1.152-.036-3.35.054-4.699.108-1.188.054-1.225-1.44-.055-1.495,1.459-.054,3.89-.09,5.204-.054,1.296.036,1.818.811,1.818,1.801,0,.792.018,2.683,0,3.854-.036,1.404-1.045,1.729-2.053,1.782-1.404.072-3.745.09-5.096.09-1.152,0-1.152-1.603-.018-1.566,1.404.054,3.997.054,4.969-.018.324-.019.576-.198.595-.541.018-.27.036-.666.036-1.098-1.711.036-3.907.054-5.096.036Z"/><path class="cls-3" d="m272.422,21.059c-.648,0-.955-.433-.955-.864,0-.45.343-.918.955-.918h11.307c.612,0,.919.45.919.899,0,.433-.307.883-.919.883h-11.307Z"/></g><g><path class="cls-3" d="m185.636,153.217c-.522,0-1.062-.343-1.062-.991,0-1.674.072-5.509.072-7.886,0-2.521-.09-2.719-.702-2.719h-.252c-.612,0-.919-.469-.919-.954,0-.522.324-1.045.937-1.099.36-.019.504-.019.883-.019,1.242,0,2.034.738,2.088,1.927.019.234.019.559.019.954,0,1.44-.055,3.854-.055,6.429,0,1.116,0,2.25.036,3.366v.036c0,.631-.521.955-1.044.955Z"/><path class="cls-3" d="m204.318,143.548c-.216,2.232-.828,4.375-1.999,6.212.919.99,2.106,1.836,3.638,2.502.378.162.54.469.54.774,0,.486-.433,1.009-.99,1.009-.433,0-2.377-.9-4.178-2.953-1.998,2.269-4.394,3.079-4.735,3.079-.54,0-.937-.469-.937-.919,0-.288.162-.594.576-.738,1.783-.647,3.115-1.584,4.088-2.736-.919-1.368-1.513-2.881-1.837-4.321-.414.648-.684.973-1.134.973h-.108c.072.054.126.107.162.162.162.161.216.359.216.54,0,.468-.414.882-.846.882-.181,0-.379-.072-.541-.27-.323-.379-.846-.883-1.26-1.207.018,2.809.072,6.933.072,6.933v.018c0,.504-.45.756-.883.756-.45,0-.882-.252-.882-.756v-.018l.071-6.429c-.485.864-1.044,1.693-1.62,2.377-.216.252-.468.36-.72.36-.469,0-.919-.396-.919-.847,0-.18.09-.396.271-.576.954-.954,2.232-2.7,2.988-4.411v-.252l-1.908.036h-.018c-.522,0-.793-.396-.793-.792s.271-.793.811-.793h1.891l-.054-3.024v-.018c0-.541.432-.793.882-.793.433,0,.883.271.883.793v.018s-.036,1.404-.055,3.024h1.549c.54,0,.792.396.792.793s-.252.792-.774.792h-.018l-1.566-.036c0,.522-.019,1.044-.019,1.494.091-.035.181-.054.271-.054.288,0,1.026.522,1.278.702v-.09c0-.162.072-.342.216-.54,1.351-1.782,2.197-4.394,2.521-6.086.091-.433.433-.63.793-.63.45,0,.918.288.918.792,0,.612-.774,2.629-.811,2.736l5.312-.018c.505,0,.738.378.738.774,0,.378-.233.774-.738.774h-1.134Zm-4.699-.019c.252,1.782.738,3.439,1.656,4.88.792-1.423,1.188-3.062,1.351-4.861l-3.007-.019Z"/><path class="cls-3" d="m213.079,150.209c-2.125,2.287-4.016,1.495-4.502-.773-.378-1.729.486-3.709,1.98-5.132-.126-.378-.252-.774-.342-1.17-.09-.36-.271-1.188-.342-1.567-.307-1.494,1.729-1.476,1.8-.197.036.54.072.846.181,1.494.018.126.054.271.09.396.126-.072.234-.145.36-.198.918-.469,1.998-.721,3.079-.757.144-.72.233-1.458.233-1.944-.018-1.26,1.854-1.116,1.783.198-.036.63-.108,1.225-.253,1.908,1.675.379,3.115,1.423,3.619,3.26.937,3.33-1.278,5.815-4.393,6.932-1.369.504-2.251-1.206-.685-1.675,3.133-.954,3.835-3.024,3.403-4.735-.343-1.368-1.243-2.106-2.323-2.412-.054.162-.107.342-.18.521-.414,1.116-1.08,2.449-1.837,3.638.072.054.145.126.234.18.414.288.36.811.126,1.116-.234.307-.702.486-1.188.181-.054-.036-.09-.055-.144-.091-.234.307-.469.576-.702.828Zm-1.963-4.393c-.757.954-1.188,2.07-1.009,3.024.271,1.404,1.117,1.009,1.621.486.27-.271.558-.63.864-1.026-.595-.702-1.081-1.566-1.477-2.484Zm1.746-1.477c-.18.09-.359.198-.521.324.306.81.702,1.548,1.224,2.196.595-.973,1.117-2.017,1.404-2.917.019-.072.055-.162.072-.252-.774.072-1.548.307-2.179.648Z"/><path class="cls-3" d="m232.918,153.192c-.352,0-.656-.126-.912-.376-.256-.251-.384-.573-.384-.968,0-.405.128-.733.384-.984s.561-.376.912-.376c.362,0,.67.125.92.376.251.251.376.579.376.984,0,.395-.125.717-.376.968s-.558.376-.92.376Z"/><path class="cls-3" d="m239.261,153v-6.704h-3.615v-1.071h4.928v7.775h-1.312Zm.513-9.408c-.299,0-.55-.093-.752-.279-.203-.187-.305-.435-.305-.744s.102-.558.305-.744c.202-.187.453-.28.752-.28s.549.094.752.28c.202.187.304.435.304.744s-.102.558-.304.744c-.203.187-.454.279-.752.279Z"/><path class="cls-3" d="m248.73,153.192c-.757,0-1.354-.136-1.792-.408-.438-.271-.749-.647-.936-1.128s-.28-1.04-.28-1.68v-3.681h-2.192v-.991l2.24-.08.176-2.496h1.089v2.496h3.823v1.071h-3.823v3.696c0,.459.058.848.176,1.168.117.32.319.561.607.72.288.16.683.24,1.185.24.373,0,.709-.032,1.008-.096.299-.064.587-.149.864-.256l.288.96c-.353.128-.723.237-1.112.328-.39.09-.829.136-1.32.136Z"/><path class="cls-3" d="m256.677,153.192c-.779,0-1.485-.16-2.12-.48-.635-.319-1.139-.786-1.512-1.399-.374-.613-.561-1.353-.561-2.216,0-.843.187-1.568.561-2.177.373-.607.86-1.074,1.464-1.399.603-.325,1.25-.488,1.943-.488.747,0,1.385.152,1.912.456.528.304.934.728,1.216,1.271.283.545.425,1.185.425,1.921,0,.149-.006.293-.017.432s-.026.262-.048.368h-6.576v-1.024h5.792l-.336.368c0-.917-.211-1.605-.632-2.064-.422-.458-.989-.688-1.704-.688-.479,0-.926.117-1.336.352-.411.235-.738.576-.984,1.024-.245.448-.367.997-.367,1.648,0,.672.133,1.231.399,1.68s.63.787,1.088,1.016c.459.229.977.345,1.553.345.469,0,.893-.067,1.271-.2.379-.134.744-.312,1.096-.536l.48.864c-.384.256-.824.475-1.32.655-.496.182-1.059.272-1.688.272Z"/><path class="cls-3" d="m261.976,153v-7.775h1.057l.111,1.023h.032c.202-.362.438-.656.704-.88s.624-.336,1.072-.336c.384,0,.698.112.943.336s.422.561.528,1.008c.224-.416.472-.744.744-.983.271-.24.632-.36,1.08-.36.544,0,.968.205,1.271.616.305.41.456,1.005.456,1.784v5.567h-1.312v-5.472c0-.906-.277-1.36-.832-1.36-.267,0-.488.099-.664.296-.176.198-.371.499-.584.904v5.632h-1.216v-5.472c0-.448-.062-.786-.185-1.016-.122-.229-.328-.345-.616-.345-.267,0-.498.099-.695.296-.197.198-.393.499-.584.904v5.632h-1.312Z"/><path class="cls-3" d="m274.044,147.464c-.352,0-.656-.125-.912-.376-.256-.25-.384-.573-.384-.968,0-.405.128-.733.384-.983.256-.251.561-.377.912-.377.362,0,.67.126.92.377.251.25.376.578.376.983,0,.395-.125.718-.376.968-.25.251-.558.376-.92.376Zm0,5.729c-.352,0-.656-.126-.912-.376-.256-.251-.384-.573-.384-.968,0-.405.128-.733.384-.984s.561-.376.912-.376c.362,0,.67.125.92.376.251.251.376.579.376.984,0,.395-.125.717-.376.968s-.558.376-.92.376Z"/><path class="cls-3" d="m278.543,153v-7.775h1.088l.112,1.327h.063c.405-.437.843-.8,1.312-1.088.469-.288,1.008-.432,1.615-.432.918,0,1.595.267,2.032.8.438.534.656,1.312.656,2.336v4.832h-1.312v-4.655c0-.736-.139-1.283-.416-1.641s-.735-.536-1.376-.536c-.458,0-.869.118-1.231.353-.363.234-.773.587-1.232,1.056v5.424h-1.312Z"/><path class="cls-3" d="m292.33,153.192c-.757,0-1.354-.136-1.792-.408-.438-.271-.749-.647-.936-1.128s-.28-1.04-.28-1.68v-3.681h-2.192v-.991l2.24-.08.176-2.496h1.089v2.496h3.823v1.071h-3.823v3.696c0,.459.058.848.176,1.168.117.32.319.561.607.72.288.16.683.24,1.185.24.373,0,.709-.032,1.008-.096.299-.064.587-.149.864-.256l.288.96c-.353.128-.723.237-1.112.328-.39.09-.829.136-1.32.136Z"/><path class="cls-3" d="m296.863,153v-11.392h1.312v3.104l-.08,1.84h.048c.395-.426.827-.786,1.297-1.079.469-.294,1.008-.44,1.615-.44.918,0,1.595.267,2.032.8.438.534.656,1.312.656,2.336v4.832h-1.312v-4.655c0-.736-.139-1.283-.416-1.641s-.735-.536-1.376-.536c-.458,0-.869.118-1.231.353-.363.234-.773.587-1.232,1.056v5.424h-1.312Z"/><path class="cls-3" d="m305.807,148.216v-.991h6.88v.991h-6.88Z"/><path class="cls-3" d="m319.022,153.192c-.811,0-1.539-.16-2.185-.48-.646-.319-1.151-.783-1.52-1.392s-.552-1.339-.552-2.192c0-.874.197-1.615.592-2.224s.92-1.072,1.576-1.392c.655-.32,1.378-.48,2.168-.48.64,0,1.191.112,1.656.336.464.224.855.491,1.176.8l-.656.849c-.32-.277-.65-.496-.992-.656-.341-.16-.72-.24-1.136-.24-.598,0-1.126.126-1.584.376-.459.251-.813.603-1.064,1.056-.25.454-.376.979-.376,1.576,0,.587.123,1.104.368,1.553.245.447.595.797,1.048,1.048.453.25.979.376,1.576.376.48,0,.92-.097,1.32-.288.399-.192.76-.422,1.08-.688l.592.849c-.427.384-.904.683-1.432.896-.528.214-1.08.32-1.656.32Z"/><path class="cls-3" d="m324.235,153v-11.392h1.312v3.104l-.08,1.84h.048c.395-.426.827-.786,1.297-1.079.469-.294,1.008-.44,1.615-.44.918,0,1.595.267,2.032.8.438.534.656,1.312.656,2.336v4.832h-1.312v-4.655c0-.736-.139-1.283-.416-1.641s-.735-.536-1.376-.536c-.458,0-.869.118-1.231.353-.363.234-.773.587-1.232,1.056v5.424h-1.312Z"/><path class="cls-3" d="m336.645,153v-6.704h-3.615v-1.071h4.928v7.775h-1.312Zm.513-9.408c-.299,0-.55-.093-.752-.279-.203-.187-.305-.435-.305-.744s.102-.558.305-.744c.202-.187.453-.28.752-.28s.549.094.752.28c.202.187.304.435.304.744s-.102.558-.304.744c-.203.187-.454.279-.752.279Z"/><path class="cls-3" d="m345.096,153.192c-.821,0-1.451-.237-1.888-.712-.438-.475-.656-1.171-.656-2.088v-7.712h-2.656v-1.072h3.968v8.88c0,.565.139.976.416,1.232.277.256.646.384,1.104.384.224,0,.453-.029.688-.088s.496-.152.784-.28l.336.992c-.352.128-.683.237-.992.328-.31.09-.677.136-1.104.136Z"/><path class="cls-3" d="m352.019,153.192c-1.014,0-1.829-.354-2.448-1.064-.618-.709-.928-1.709-.928-3,0-.842.168-1.57.504-2.184s.773-1.085,1.312-1.416c.538-.331,1.111-.496,1.72-.496.458,0,.877.088,1.256.264.379.177.733.425,1.064.744h.048l-.064-1.439v-2.992h1.312v11.392h-1.088l-.112-1.023h-.048c-.31.33-.686.615-1.128.855-.443.24-.91.36-1.4.36Zm.272-1.104c.384,0,.757-.099,1.119-.296.363-.197.721-.487,1.072-.872v-3.872c-.352-.33-.696-.564-1.032-.703s-.675-.208-1.016-.208c-.448,0-.855.125-1.224.376-.368.25-.662.597-.88,1.039-.219.443-.328.963-.328,1.561,0,.928.202,1.656.607,2.184.405.528.966.792,1.681.792Z"/><path class="cls-3" d="m362.768,155.816c-1.109-.875-1.986-1.918-2.632-3.128-.646-1.211-.968-2.59-.968-4.137s.322-2.928.968-4.144,1.522-2.256,2.632-3.12l.721.672c-1.067.896-1.856,1.883-2.368,2.96-.513,1.078-.769,2.288-.769,3.632s.256,2.553.769,3.624c.512,1.072,1.301,2.062,2.368,2.969l-.721.672Z"/><path class="cls-3" d="m364.931,153v-1.088h2.944v-7.52h-2.288v-.849c.405-.053.763-.117,1.072-.191.309-.075.592-.157.848-.248s.49-.194.704-.312h.976v9.12h2.673v1.088h-6.929Z"/><path class="cls-3" d="m373.807,155.816l-.72-.672c1.066-.907,1.855-1.896,2.368-2.969.512-1.071.768-2.279.768-3.624s-.256-2.554-.768-3.632c-.513-1.077-1.302-2.063-2.368-2.96l.72-.672c1.12.864,2,1.904,2.64,3.12.641,1.216.961,2.598.961,4.144s-.32,2.926-.961,4.137c-.64,1.21-1.52,2.253-2.64,3.128Z"/></g><g><path class="cls-3" d="m87.14,225.71c0,.406-.309.616-.631.616-.336,0-.672-.225-.672-.645,0-.504,0-1.078.014-1.765-1.358.014-2.913.027-3.054.027-.868,0-1.316-.42-1.316-.994,0-.309.126-.658.378-1.009.841-1.19,3.166-4.468,4.174-5.869.141-.196.322-.28.519-.28.351,0,.687.295.687.673,0,.154-.042.308-.168.462-.616.784-3.292,4.328-4.076,5.421-.07.084-.098.168-.098.238,0,.196.266.196.602.196.49,0,1.429-.015,2.367-.028.015-.561.015-1.051.015-1.471s0-.757-.015-.98v-.042c0-.435.322-.658.631-.658.322,0,.63.224.63.7,0,.672-.027,1.261-.027,2.423.644-.014,1.008-.042,1.078-.042h.028c.392,0,.603.295.603.603,0,.294-.211.589-.673.603-.168,0-.519.014-1.036.014.042,1.779.042,1.793.042,1.808Z"/><path class="cls-3" d="m93.701,226.634c0,.322-.294.49-.574.49-.295,0-.589-.168-.589-.504l.057-5.085c-.435.799-.953,1.569-1.457,2.172-.141.168-.309.237-.477.237-.308,0-.588-.252-.588-.56,0-.126.056-.267.182-.393.729-.715,1.751-2.144,2.34-3.46v-.238l-1.527.028h-.014c-.351,0-.532-.252-.532-.519,0-.252.182-.519.546-.519h1.513l-.027-1.442c-.351.07-1.191.21-1.359.21-.35,0-.546-.28-.546-.561,0-.224.14-.448.42-.476,1.232-.141,2.199-.351,3.348-.826.07-.028.126-.043.183-.043.294,0,.546.28.546.561,0,.309-.112.477-1.442.854,0,.309-.015.98-.028,1.723h1.093c.336,0,.504.253.504.505,0,.266-.182.532-.532.532h-.014l-1.064-.028c0,.448-.015.883-.015,1.205v.07c.084,0,.169,0,.253.042.056.027,1.526.98,1.526,1.54,0,.322-.28.589-.561.589-.14,0-.294-.07-.406-.238-.21-.294-.532-.673-.812-.952.015,1.961.057,5.07.057,5.07v.014Zm1.568.379c-.392,0-.645-.295-.645-.589,0-.238.154-.462.519-.532,2.815-.519,4.902-1.975,5.785-5.127.07-.266.28-.364.505-.364.308,0,.644.211.644.547,0,.056-.014.126-.027.182-1.724,5.491-6.724,5.884-6.78,5.884Zm-.462-6.626c0-.154.07-.322.238-.49.504-.504,1.078-1.555,1.345-2.409.084-.252.28-.351.49-.351.266,0,.546.183.546.477,0,.49-1.148,3.264-2.073,3.264-.294,0-.546-.21-.546-.49Zm3.474-4.986c0-.364.28-.532.561-.532s.561.168.561.532c0,0,.014,3.655.014,4.342,0,.168.028,1.569.028,1.569v.069c0,.841-.448,1.598-1.793,1.598-.925,0-1.373-.196-1.373-.659,0-.279.196-.546.532-.546.042,0,.084,0,.126.014.309.057.574.112.784.112.379,0,.575-.168.575-.798l-.015-5.701Zm3.544,4.398c-.35-.743-1.022-1.499-1.583-1.962-.111-.098-.168-.21-.168-.321,0-.253.28-.49.574-.49.532,0,2.298,1.849,2.298,2.451,0,.364-.337.645-.645.645-.183,0-.364-.099-.477-.322Z"/><path class="cls-3" d="m104.187,226.648c0-.252.154-.519.462-.589,2.508-.63,3.391-2.143,3.656-4.076.056-.35.309-.504.589-.504.321,0,.644.21.644.561v.084c-.546,4.3-4.37,5.084-4.734,5.084-.42,0-.616-.279-.616-.56Zm7.746-5.463c0,.91-.028,2.563-.028,3.502,0,.868,0,1.134,1.359,1.134,1.288,0,1.778-.308,1.778-1.484,0-.393.28-.561.561-.561.141,0,.658.042.658.658,0,2.214-1.484,2.452-3.025,2.452-1.162,0-2.493-.015-2.493-1.611,0-.757.014-3.04.028-4.104-.896,0-2.256.015-5.842.042-.364,0-.561-.266-.561-.532,0-.252.196-.518.561-.518l4.734.014v-1.976h-2.395c-.589.995-1.051,1.611-1.541,1.611-.322,0-.616-.225-.616-.504,0-.141.056-.28.21-.421.938-.91,1.471-2.031,1.849-3.18.07-.196.238-.28.435-.28.322,0,.7.238.7.547,0,.21-.462,1.148-.49,1.19h1.835v-1.765c0-.351.294-.532.589-.532.308,0,.616.182.616.532v1.765h3.403c.364,0,.547.267.547.519,0,.266-.183.518-.547.518h-3.418v1.976l4.749-.014c.364,0,.532.266.532.518,0,.267-.168.532-.532.532l-3.656-.027Z"/><path class="cls-3" d="m120.892,220.261c-.602.098-1.134.154-1.498.154-.406,0-.603-.267-.603-.547s.196-.56.574-.588c.448-.028.883-.028,1.387-.07l.771-.07c.168-.63.378-1.513.477-2.339.042-.364.336-.546.63-.546s.574.195.574.56c0,.337-.392,1.989-.448,2.199l.631-.056c.069,0,.14-.014.21-.014.826,0,1.807.406,1.807,2.297,0,4.202-2.045,4.637-2.899,4.637-.266,0-1.373-.057-1.373-.742,0-.295.238-.575.574-.575.057,0,.112,0,.169.015.224.056.434.098.63.098,1.751,0,1.765-3.193,1.765-3.432,0-.826-.224-1.274-.868-1.274-.112,0-.322.014-.925.069-.7,2.186-1.639,4.119-2.745,5.688-.182.267-.448.378-.687.378-.322,0-.616-.224-.616-.56,0-.169.07-.351.252-.561.967-1.079,1.892-2.83,2.55-4.776l-.337.056Zm7.774,1.723c-.336-.798-1.05-1.891-2.129-2.479-.168-.098-.252-.237-.252-.392,0-.252.238-.505.561-.505.771,0,2.969,2.073,2.969,3.068,0,.406-.336.672-.644.672-.211,0-.406-.112-.505-.364Z"/><path class="cls-3" d="m135.773,226.998c-.434,0-.687-.308-.687-.602,0-.267.196-.547.631-.631.729-.14,1.471-.364,1.919-.63,1.289-.757,1.835-1.569,1.835-2.186,0-.967-1.219-.967-1.316-.967-1.625,0-3.446,1.443-3.67,1.653-.322.294-.589.406-.827.406-.812,0-.84-1.219-.84-1.569,0-.126,0-1.093.49-4.062.056-.351.336-.532.603-.532s.518.182.518.532c0,.027-.014.069-.014.111-.084.603-.238,1.373-.351,2.06-.084.49-.14.952-.14,1.288,0,.154.014.491.154.491.056,0,.111-.028.195-.07.869-.505,2.396-1.373,3.881-1.373,1.555,0,2.577.868,2.577,2.045,0,.953-.7,2.115-2.367,3.138-.784.463-2.199.896-2.592.896Zm0-8.992c-.35,0-.588-.28-.588-.547,0-.14.069-.266.238-.35.168-.07.266-.141.266-.196,0-.057-.056-.099-.154-.168-.28-.183-.756-.421-.98-.658-.111-.127-.168-.267-.168-.379,0-.294.28-.518.603-.518.14,0,.294.042.435.14.252.182.714.406,1.092.658.729.477.841.757.841,1.051,0,.322-.182.687-.799.798q-.756.169-.784.169Z"/><path class="cls-3" d="m144.627,220.947c0,1.61-.014,3.726-.056,5.729,0,.351-.294.519-.574.519-.294,0-.574-.168-.574-.49v-.028c.098-2.591.084-7.228.098-10.197,0-1.246.91-1.274,2.34-1.274.518,0,1.064,0,1.33.014.715.028,1.232.435,1.261,1.022.014.448.028.938.028,1.401,0,.294,0,.574-.015.84-.027.658-.462,1.079-1.358,1.135-.308.014-.812.028-1.331.028-.42,0-.84-.015-1.148-.028v1.331Zm2.788-3.908c0-.183-.015-.351-.015-.504-.027-.448-.182-.477-1.358-.477-1.121,0-1.373.014-1.4.603,0,.126-.015.237-.015.378h2.788Zm-2.788.784v.953c.309.014.938.027,1.471.027.995,0,1.289-.027,1.303-.519,0-.14.015-.294.015-.462h-2.788Zm5.085,5.757h-1.415c-.14,1.541-.672,2.55-2.255,3.04-.084.028-.168.042-.238.042-.336,0-.504-.266-.504-.504,0-.21.111-.393.336-.448,1.19-.267,1.541-1.106,1.639-2.13h-1.261c-.35,0-.504-.21-.504-.434,0-.238.168-.477.504-.477h1.289v-.294c0-.364,0-.784-.014-1.121h-1.009c-.351,0-.505-.21-.505-.434,0-.238.169-.477.505-.477h5.351c.322,0,.49.225.49.448,0,.238-.168.462-.49.462h-.854v1.415h1.274c.322,0,.49.225.49.448,0,.238-.168.462-.49.462h-1.274v2.396c0,.336-.266.505-.532.505s-.532-.169-.532-.505v-2.396Zm0-2.325h-1.373v1.415h1.373v-1.415Zm2.634-1.61c-.561,0-1.106-.015-1.415-.028-.896-.056-1.331-.477-1.358-1.135-.015-.266-.015-.546-.015-.84,0-.463.015-.925.028-1.373.028-.603.519-1.022,1.247-1.051.266-.014.826-.014,1.372-.014.393,0,.771,0,1.009.014,1.036.057,1.429.574,1.429,1.19,0,2.368.028,5.085.028,7.187,0,.672.014,1.261.014,1.751,0,.952-.42,1.807-1.989,1.807-.784,0-1.429-.07-1.429-.658,0-.267.183-.532.49-.532.028,0,.07.014.099.014.308.042.574.084.812.084.518,0,.854-.196.868-.91.014-.561.028-1.219.028-1.891,0-1.023-.015-2.102-.015-3.04v-.603c-.308.014-.756.028-1.204.028Zm1.204-1.821h-2.928c0,.168.015.322.015.462.014.477.21.519,1.345.519.574,0,1.261-.014,1.568-.027v-.953Zm-.014-.784c0-.967-.099-.98-1.443-.98-1.176,0-1.414.014-1.442.504,0,.154-.014.309-.014.477h2.899Z"/><path class="cls-3" d="m158.216,223.259c-.112.35-.393.504-.659.504s-.504-.168-.504-.49c0-.07.014-.168.056-.267.477-1.303.854-2.717,1.135-4.118l-.952.028h-.015c-.336,0-.49-.252-.49-.504s.169-.519.477-.519c.364,0,.757-.014,1.163-.014.14-.869.266-1.737.336-2.536.028-.336.294-.49.561-.49.294,0,.588.196.588.519,0,.014-.07.854-.364,2.493h.995c.812.015,1.176.477,1.176,1.19,0,.729-.168,2.396-.91,4.091.532.28,1.345.742,1.345,1.261,0,.322-.238.616-.546.616-.126,0-.267-.057-.406-.196-.267-.267-.547-.504-.869-.715-1.162,2.06-2.731,2.76-3.123,2.76-.379,0-.603-.308-.603-.588,0-.183.084-.351.294-.435,1.163-.462,1.961-1.303,2.521-2.241-.364-.168-.771-.294-1.19-.406l-.014.057Zm1.148-4.398c-.238,1.148-.519,2.325-.854,3.459.434.099.896.211,1.358.393.519-1.261.742-2.745.742-3.516,0-.21-.111-.336-.378-.336h-.868Zm3.193,1.778c-.364,0-.561-.294-.561-.574,0-.266.154-.519.49-.532l.715-.042c.546-1.205,1.12-2.955,1.373-4.048.069-.295.308-.421.546-.421.322,0,.672.225.672.574,0,.211-.405,1.514-1.4,3.782.98-.098,2.031-.21,2.745-.294-.237-.336-.476-.645-.7-.896-.098-.098-.14-.21-.14-.308,0-.267.266-.477.546-.477.141,0,.267.042.393.154.378.35,1.835,1.975,1.835,2.619,0,.35-.336.603-.658.603-.21,0-.406-.099-.519-.364-.056-.141-.126-.28-.21-.435-1.247.225-4.692.658-5.127.658Zm4.217,6.178c-.393.028-.854.042-1.317.042-1.541,0-2.675,0-2.731-1.303-.014-.309-.014-.645-.014-.995,0-.56.014-1.134.028-1.568.027-.729.546-1.219,1.372-1.261.393-.014.826-.028,1.232-.028.519,0,1.009.015,1.43.028.756.028,1.372.504,1.4,1.205.014.518.042,1.246.042,1.877,0,.252,0,.49-.014.7-.028.742-.547,1.232-1.429,1.303Zm.279-3.601c-.014-.308-.168-.546-.616-.56-.28-.015-.645-.015-.994-.015s-.7,0-.967.015c-.448.014-.616.252-.63.56-.015.309-.028.827-.028,1.303,0,.309,0,.575.014.771.015.532.435.574,1.64.574,1.568,0,1.597-.098,1.597-1.204,0-.49,0-1.093-.015-1.443Z"/></g><g><path class="cls-3" d="m181.891,273.108c-.63,0-1.009-.468-1.009-1.062,0-.396.162-.828.522-1.225,1.242-1.404,3.331-3.547,4.916-5.491.72-.864,1.008-1.656,1.008-2.305,0-1.135-.864-1.837-1.872-1.837-.774,0-1.621.414-2.215,1.387-.234.378-.595.54-.937.54-.54,0-1.062-.396-1.062-.954,0-.63,1.368-2.772,4.195-2.772,2.089,0,4.069,1.296,4.069,3.438,0,1.026-.433,2.215-1.494,3.565-1.369,1.729-3.133,3.259-4.628,4.879,1.495-.018,3.529-.162,5.006-.162.738,0,1.08.469,1.08.937,0,.522-.396,1.062-1.134,1.062h-6.446Z"/><path class="cls-3" d="m205.424,263.548c-.216,2.232-.828,4.375-1.999,6.212.919.99,2.106,1.836,3.638,2.502.378.162.54.469.54.774,0,.486-.433,1.009-.99,1.009-.433,0-2.377-.9-4.178-2.953-1.998,2.269-4.394,3.079-4.735,3.079-.54,0-.937-.469-.937-.919,0-.288.162-.594.576-.738,1.783-.647,3.115-1.584,4.088-2.736-.919-1.368-1.513-2.881-1.837-4.321-.414.648-.684.973-1.134.973h-.108c.072.054.126.107.162.162.162.161.216.359.216.54,0,.468-.414.882-.846.882-.181,0-.379-.072-.541-.27-.323-.379-.846-.883-1.26-1.207.018,2.809.072,6.933.072,6.933v.018c0,.504-.45.756-.883.756-.45,0-.882-.252-.882-.756v-.018l.071-6.429c-.485.864-1.044,1.693-1.62,2.377-.216.252-.468.36-.72.36-.469,0-.919-.396-.919-.847,0-.18.09-.396.271-.576.954-.954,2.232-2.7,2.988-4.411v-.252l-1.908.036h-.018c-.522,0-.793-.396-.793-.792s.271-.793.811-.793h1.891l-.054-3.024v-.018c0-.541.432-.793.882-.793.433,0,.883.271.883.793v.018s-.036,1.404-.055,3.024h1.549c.54,0,.792.396.792.793s-.252.792-.774.792h-.018l-1.566-.036c0,.522-.019,1.044-.019,1.494.091-.035.181-.054.271-.054.288,0,1.026.522,1.278.702v-.09c0-.162.072-.342.216-.54,1.351-1.782,2.197-4.394,2.521-6.086.091-.433.433-.63.793-.63.45,0,.918.288.918.792,0,.612-.774,2.629-.811,2.736l5.312-.018c.505,0,.738.378.738.774,0,.378-.233.774-.738.774h-1.134Zm-4.699-.019c.252,1.782.738,3.439,1.656,4.88.792-1.423,1.188-3.062,1.351-4.861l-3.007-.019Z"/><path class="cls-3" d="m214.185,270.209c-2.125,2.287-4.016,1.495-4.502-.773-.378-1.729.486-3.709,1.98-5.132-.126-.378-.252-.774-.342-1.17-.09-.36-.271-1.188-.342-1.567-.307-1.494,1.729-1.476,1.8-.197.036.54.072.846.181,1.494.018.126.054.271.09.396.126-.072.234-.145.36-.198.918-.469,1.998-.721,3.079-.757.144-.72.233-1.458.233-1.944-.018-1.26,1.854-1.116,1.783.198-.036.63-.108,1.225-.253,1.908,1.675.379,3.115,1.423,3.619,3.26.937,3.33-1.278,5.815-4.393,6.932-1.369.504-2.251-1.206-.685-1.675,3.133-.954,3.835-3.024,3.403-4.735-.343-1.368-1.243-2.106-2.323-2.412-.054.162-.107.342-.18.521-.414,1.116-1.08,2.449-1.837,3.638.072.054.145.126.234.18.414.288.36.811.126,1.116-.234.307-.702.486-1.188.181-.054-.036-.09-.055-.144-.091-.234.307-.469.576-.702.828Zm-1.963-4.393c-.757.954-1.188,2.07-1.009,3.024.271,1.404,1.117,1.009,1.621.486.27-.271.558-.63.864-1.026-.595-.702-1.081-1.566-1.477-2.484Zm1.746-1.477c-.18.09-.359.198-.521.324.306.81.702,1.548,1.224,2.196.595-.973,1.117-2.017,1.404-2.917.019-.072.055-.162.072-.252-.774.072-1.548.307-2.179.648Z"/><path class="cls-3" d="m234.023,273.192c-.352,0-.656-.126-.912-.376-.256-.251-.384-.573-.384-.968,0-.405.128-.733.384-.984s.561-.376.912-.376c.362,0,.67.125.92.376.251.251.376.579.376.984,0,.395-.125.717-.376.968s-.558.376-.92.376Z"/><path class="cls-3" d="m240.365,273v-6.704h-3.615v-1.071h4.928v7.775h-1.312Zm.513-9.408c-.299,0-.55-.093-.752-.279-.203-.187-.305-.435-.305-.744s.102-.558.305-.744c.202-.187.453-.28.752-.28s.549.094.752.28c.202.187.304.435.304.744s-.102.558-.304.744c-.203.187-.454.279-.752.279Z"/><path class="cls-3" d="m249.836,273.192c-.757,0-1.354-.136-1.792-.408-.438-.271-.749-.647-.936-1.128s-.28-1.04-.28-1.68v-3.681h-2.192v-.991l2.24-.08.176-2.496h1.089v2.496h3.823v1.071h-3.823v3.696c0,.459.058.848.176,1.168.117.32.319.561.607.72.288.16.683.24,1.185.24.373,0,.709-.032,1.008-.096.299-.064.587-.149.864-.256l.288.96c-.353.128-.723.237-1.112.328-.39.09-.829.136-1.32.136Z"/><path class="cls-3" d="m257.782,273.192c-.779,0-1.485-.16-2.12-.48-.635-.319-1.139-.786-1.512-1.399-.374-.613-.561-1.353-.561-2.216,0-.843.187-1.568.561-2.177.373-.607.86-1.074,1.464-1.399.603-.325,1.25-.488,1.943-.488.747,0,1.385.152,1.912.456.528.304.934.728,1.216,1.271.283.545.425,1.185.425,1.921,0,.149-.006.293-.017.432s-.026.262-.048.368h-6.576v-1.024h5.792l-.336.368c0-.917-.211-1.605-.632-2.064-.422-.458-.989-.688-1.704-.688-.479,0-.926.117-1.336.352-.411.235-.738.576-.984,1.024-.245.448-.367.997-.367,1.648,0,.672.133,1.231.399,1.68s.63.787,1.088,1.016c.459.229.977.345,1.553.345.469,0,.893-.067,1.271-.2.379-.134.744-.312,1.096-.536l.48.864c-.384.256-.824.475-1.32.655-.496.182-1.059.272-1.688.272Z"/><path class="cls-3" d="m263.08,273v-7.775h1.057l.111,1.023h.032c.202-.362.438-.656.704-.88s.624-.336,1.072-.336c.384,0,.698.112.943.336s.422.561.528,1.008c.224-.416.472-.744.744-.983.271-.24.632-.36,1.08-.36.544,0,.968.205,1.271.616.305.41.456,1.005.456,1.784v5.567h-1.312v-5.472c0-.906-.277-1.36-.832-1.36-.267,0-.488.099-.664.296-.176.198-.371.499-.584.904v5.632h-1.216v-5.472c0-.448-.062-.786-.185-1.016-.122-.229-.328-.345-.616-.345-.267,0-.498.099-.695.296-.197.198-.393.499-.584.904v5.632h-1.312Z"/><path class="cls-3" d="m275.149,267.464c-.352,0-.656-.125-.912-.376-.256-.25-.384-.573-.384-.968,0-.405.128-.733.384-.983.256-.251.561-.377.912-.377.362,0,.67.126.92.377.251.25.376.578.376.983,0,.395-.125.718-.376.968-.25.251-.558.376-.92.376Zm0,5.729c-.352,0-.656-.126-.912-.376-.256-.251-.384-.573-.384-.968,0-.405.128-.733.384-.984s.561-.376.912-.376c.362,0,.67.125.92.376.251.251.376.579.376.984,0,.395-.125.717-.376.968s-.558.376-.92.376Z"/><path class="cls-3" d="m279.648,273v-7.775h1.088l.112,1.327h.063c.405-.437.843-.8,1.312-1.088.469-.288,1.008-.432,1.615-.432.918,0,1.595.267,2.032.8.438.534.656,1.312.656,2.336v4.832h-1.312v-4.655c0-.736-.139-1.283-.416-1.641s-.735-.536-1.376-.536c-.458,0-.869.118-1.231.353-.363.234-.773.587-1.232,1.056v5.424h-1.312Z"/><path class="cls-3" d="m293.436,273.192c-.757,0-1.354-.136-1.792-.408-.438-.271-.749-.647-.936-1.128s-.28-1.04-.28-1.68v-3.681h-2.192v-.991l2.24-.08.176-2.496h1.089v2.496h3.823v1.071h-3.823v3.696c0,.459.058.848.176,1.168.117.32.319.561.607.72.288.16.683.24,1.185.24.373,0,.709-.032,1.008-.096.299-.064.587-.149.864-.256l.288.96c-.353.128-.723.237-1.112.328-.39.09-.829.136-1.32.136Z"/><path class="cls-3" d="m297.969,273v-11.392h1.312v3.104l-.08,1.84h.048c.395-.426.827-.786,1.297-1.079.469-.294,1.008-.44,1.615-.44.918,0,1.595.267,2.032.8.438.534.656,1.312.656,2.336v4.832h-1.312v-4.655c0-.736-.139-1.283-.416-1.641s-.735-.536-1.376-.536c-.458,0-.869.118-1.231.353-.363.234-.773.587-1.232,1.056v5.424h-1.312Z"/><path class="cls-3" d="m306.912,268.216v-.991h6.88v.991h-6.88Z"/><path class="cls-3" d="m320.128,273.192c-.811,0-1.539-.16-2.185-.48-.646-.319-1.151-.783-1.52-1.392s-.552-1.339-.552-2.192c0-.874.197-1.615.592-2.224s.92-1.072,1.576-1.392c.655-.32,1.378-.48,2.168-.48.64,0,1.191.112,1.656.336.464.224.855.491,1.176.8l-.656.849c-.32-.277-.65-.496-.992-.656-.341-.16-.72-.24-1.136-.24-.598,0-1.126.126-1.584.376-.459.251-.813.603-1.064,1.056-.25.454-.376.979-.376,1.576,0,.587.123,1.104.368,1.553.245.447.595.797,1.048,1.048.453.25.979.376,1.576.376.48,0,.92-.097,1.32-.288.399-.192.76-.422,1.08-.688l.592.849c-.427.384-.904.683-1.432.896-.528.214-1.08.32-1.656.32Z"/><path class="cls-3" d="m325.341,273v-11.392h1.312v3.104l-.08,1.84h.048c.395-.426.827-.786,1.297-1.079.469-.294,1.008-.44,1.615-.44.918,0,1.595.267,2.032.8.438.534.656,1.312.656,2.336v4.832h-1.312v-4.655c0-.736-.139-1.283-.416-1.641s-.735-.536-1.376-.536c-.458,0-.869.118-1.231.353-.363.234-.773.587-1.232,1.056v5.424h-1.312Z"/><path class="cls-3" d="m337.75,273v-6.704h-3.615v-1.071h4.928v7.775h-1.312Zm.513-9.408c-.299,0-.55-.093-.752-.279-.203-.187-.305-.435-.305-.744s.102-.558.305-.744c.202-.187.453-.28.752-.28s.549.094.752.28c.202.187.304.435.304.744s-.102.558-.304.744c-.203.187-.454.279-.752.279Z"/><path class="cls-3" d="m346.201,273.192c-.821,0-1.451-.237-1.888-.712-.438-.475-.656-1.171-.656-2.088v-7.712h-2.656v-1.072h3.968v8.88c0,.565.139.976.416,1.232.277.256.646.384,1.104.384.224,0,.453-.029.688-.088s.496-.152.784-.28l.336.992c-.352.128-.683.237-.992.328-.31.09-.677.136-1.104.136Z"/><path class="cls-3" d="m353.124,273.192c-1.014,0-1.829-.354-2.448-1.064-.618-.709-.928-1.709-.928-3,0-.842.168-1.57.504-2.184s.773-1.085,1.312-1.416c.538-.331,1.111-.496,1.72-.496.458,0,.877.088,1.256.264.379.177.733.425,1.064.744h.048l-.064-1.439v-2.992h1.312v11.392h-1.088l-.112-1.023h-.048c-.31.33-.686.615-1.128.855-.443.24-.91.36-1.4.36Zm.272-1.104c.384,0,.757-.099,1.119-.296.363-.197.721-.487,1.072-.872v-3.872c-.352-.33-.696-.564-1.032-.703s-.675-.208-1.016-.208c-.448,0-.855.125-1.224.376-.368.25-.662.597-.88,1.039-.219.443-.328.963-.328,1.561,0,.928.202,1.656.607,2.184.405.528.966.792,1.681.792Z"/><path class="cls-3" d="m363.872,275.816c-1.109-.875-1.986-1.918-2.632-3.128-.646-1.211-.968-2.59-.968-4.137s.322-2.928.968-4.144,1.522-2.256,2.632-3.12l.721.672c-1.067.896-1.856,1.883-2.368,2.96-.513,1.078-.769,2.288-.769,3.632s.256,2.553.769,3.624c.512,1.072,1.301,2.062,2.368,2.969l-.721.672Z"/><path class="cls-3" d="m365.959,273v-.784c1.152-1.013,2.125-1.906,2.92-2.68s1.4-1.469,1.816-2.088c.416-.618.624-1.211.624-1.776,0-.586-.182-1.066-.544-1.439-.363-.373-.923-.561-1.681-.561-.479,0-.925.118-1.336.353-.41.234-.781.527-1.111.88l-.753-.752c.459-.47.952-.846,1.48-1.128s1.154-.424,1.88-.424c.683,0,1.272.125,1.769.376.495.25.88.6,1.151,1.048.272.448.408.976.408,1.584,0,.64-.197,1.285-.592,1.936-.395.651-.947,1.336-1.656,2.057-.709.72-1.528,1.507-2.456,2.359.32-.031.64-.056.96-.071.32-.017.635-.024.944-.024h3.359v1.136h-7.184Z"/><path class="cls-3" d="m375.147,275.816l-.72-.672c1.066-.907,1.855-1.896,2.368-2.969.512-1.071.768-2.279.768-3.624s-.256-2.554-.768-3.632c-.513-1.077-1.302-2.063-2.368-2.96l.72-.672c1.12.864,2,1.904,2.64,3.12.641,1.216.961,2.598.961,4.144s-.32,2.926-.961,4.137c-.64,1.21-1.52,2.253-2.64,3.128Z"/></g><g><path class="cls-3" d="m204.924,306.632c0,.406-.309.616-.631.616-.336,0-.672-.224-.672-.644,0-.505,0-1.079.014-1.766-1.358.015-2.913.028-3.054.028-.868,0-1.316-.42-1.316-.995,0-.308.126-.658.378-1.008.841-1.19,3.166-4.469,4.174-5.869.141-.196.322-.28.519-.28.351,0,.687.294.687.672,0,.154-.042.309-.168.463-.616.784-3.292,4.328-4.076,5.421-.07.084-.098.168-.098.238,0,.195.266.195.602.195.49,0,1.429-.014,2.367-.027.015-.561.015-1.051.015-1.471s0-.757-.015-.98v-.043c0-.434.322-.658.631-.658.322,0,.63.225.63.701,0,.672-.027,1.26-.027,2.423.644-.014,1.008-.042,1.078-.042h.028c.392,0,.603.294.603.603,0,.294-.211.588-.673.603-.168,0-.519.014-1.036.014.042,1.779.042,1.793.042,1.807Z"/><path class="cls-3" d="m211.485,307.557c0,.322-.294.49-.574.49-.295,0-.589-.168-.589-.504l.057-5.085c-.435.798-.953,1.568-1.457,2.171-.141.168-.309.238-.477.238-.308,0-.588-.252-.588-.561,0-.126.056-.266.182-.392.729-.715,1.751-2.144,2.34-3.46v-.238l-1.527.027h-.014c-.351,0-.532-.252-.532-.518,0-.252.182-.519.546-.519h1.513l-.027-1.442c-.351.069-1.191.21-1.359.21-.35,0-.546-.28-.546-.561,0-.224.14-.448.42-.477,1.232-.14,2.199-.35,3.348-.826.07-.028.126-.042.183-.042.294,0,.546.28.546.561,0,.308-.112.476-1.442.854,0,.308-.015.98-.028,1.723h1.093c.336,0,.504.252.504.504,0,.267-.182.532-.532.532h-.014l-1.064-.027c0,.448-.015.882-.015,1.204v.07c.084,0,.169,0,.253.042.056.028,1.526.98,1.526,1.541,0,.322-.28.588-.561.588-.14,0-.294-.069-.406-.238-.21-.294-.532-.672-.812-.952.015,1.961.057,5.071.057,5.071v.014Zm1.568.378c-.392,0-.645-.294-.645-.588,0-.238.154-.463.519-.532,2.815-.519,4.902-1.976,5.785-5.127.07-.267.28-.364.505-.364.308,0,.644.21.644.546,0,.057-.014.126-.027.183-1.724,5.491-6.724,5.883-6.78,5.883Zm-.462-6.625c0-.154.07-.322.238-.49.504-.505,1.078-1.556,1.345-2.41.084-.252.28-.35.49-.35.266,0,.546.182.546.477,0,.49-1.148,3.264-2.073,3.264-.294,0-.546-.211-.546-.49Zm3.474-4.987c0-.364.28-.532.561-.532s.561.168.561.532c0,0,.014,3.656.014,4.343,0,.168.028,1.568.028,1.568v.07c0,.841-.448,1.597-1.793,1.597-.925,0-1.373-.196-1.373-.658,0-.28.196-.546.532-.546.042,0,.084,0,.126.014.309.056.574.112.784.112.379,0,.575-.168.575-.799l-.015-5.701Zm3.544,4.398c-.35-.742-1.022-1.499-1.583-1.961-.111-.098-.168-.21-.168-.322,0-.252.28-.49.574-.49.532,0,2.298,1.849,2.298,2.451,0,.364-.337.645-.645.645-.183,0-.364-.098-.477-.322Z"/><path class="cls-3" d="m224.109,302.149c-.182.168-1.247,1.148-1.667,1.148-.336,0-.574-.294-.574-.588,0-.183.084-.364.294-.49,1.219-.715,2.508-2.003,3.362-3.432.112-.196.28-.28.448-.28.308,0,.63.28.63.603,0,.098-.014.364-1.358,1.891l-.154,6.569c-.014.351-.308.532-.603.532-.28,0-.546-.168-.546-.504v-.028l.168-5.421Zm-1.471-2.213c-.336,0-.603-.252-.603-.532,0-.196.112-.406.393-.561,1.12-.645,2.115-1.652,2.802-2.787.126-.21.308-.295.49-.295.294,0,.588.253.588.575,0,.111-.042.237-.126.363-1.274,1.85-2.956,3.236-3.544,3.236Zm8.811,3.445h-4.734c-.351,0-.519-.252-.519-.49,0-.252.168-.49.519-.49l4.734.015-.014-.673c0-.336.28-.49.561-.49s.56.154.56.49v.673l1.583-.015c.336,0,.49.238.49.49,0,.238-.154.49-.49.49h-1.568v1.149l.056,1.723v.07c0,.84-.462,1.667-2.087,1.667s-1.681-.379-1.681-.687c0-.295.195-.574.518-.574.042,0,.084,0,.126.014.406.084.757.126,1.051.126.589,0,.91-.21.91-.812l-.014-2.676Zm-4.637-2.423c-.35,0-.518-.252-.518-.49,0-.252.168-.49.518-.49h2.9v-1.4h-2.27c-.351,0-.532-.238-.532-.49,0-.238.182-.477.532-.477h2.27l-.015-1.316c0-.351.28-.519.574-.519.28,0,.574.168.574.519v1.316h2.452c.336,0,.504.238.504.477,0,.252-.168.49-.504.49h-2.452v1.4h3.208c.336,0,.49.238.49.49,0,.238-.154.49-.49.49h-7.242Zm2.199,4.833c-.392-.519-.994-.896-1.316-1.051-.182-.084-.266-.225-.266-.364,0-.252.252-.505.574-.505.266,0,1.975.812,1.975,1.527,0,.336-.266.616-.561.616-.14,0-.28-.07-.406-.224Z"/><path class="cls-3" d="m242.388,301.323c1.976,0,2.998,1.219,2.998,2.381,0,.785-.462,1.598-1.232,2.241-1.485,1.247-3.586,1.457-3.656,1.457-.406,0-.616-.266-.616-.546,0-.267.196-.532.574-.589,3.712-.518,3.782-2.479,3.782-2.577,0-.841-.841-1.373-1.892-1.373-.784,0-1.471.238-2.605.771-.476.225-.938.477-1.429.7-.126.057-.237.084-.336.084-.364,0-.588-.294-.588-.588,0-.224.111-.448.406-.561,2.367-.994,3.348-1.4,4.594-1.4Z"/><path class="cls-3" d="m255.613,307.374h-.027c-3.04,0-4.692-2.045-4.692-4.3,0-1.499.728-2.676,1.162-3.193.099-.112.154-.183.154-.225,0-.014-.014-.028-.042-.028s-.154.015-2.228.757c-.35.126-1.303.462-1.625.462-.448,0-.714-.336-.714-.672,0-.28.182-.561.588-.645,3.488-.799,4.23-.994,4.959-1.205.742-.21,2.886-.826,3.937-.826.518,0,.742.351.742.687,0,.504-.547.63-1.135.63h-.28c-.7,0-1.484.225-2.003.406-1.093.393-2.396,1.976-2.396,3.67,0,1.625,1.106,3.138,3.362,3.138h.237c.603,0,.911.337.911.673s-.294.672-.911.672Z"/><path class="cls-3" d="m262.23,301.183c-.603.099-1.135.154-1.499.154-.406,0-.603-.266-.603-.546s.196-.561.574-.589c.448-.027.883-.027,1.387-.069l.771-.07c.168-.63.378-1.513.477-2.339.042-.364.336-.547.63-.547s.574.196.574.561c0,.336-.392,1.989-.448,2.199l.631-.056c.069,0,.14-.015.21-.015.826,0,1.807.406,1.807,2.298,0,4.202-2.045,4.636-2.899,4.636-.267,0-1.373-.056-1.373-.742,0-.294.238-.574.574-.574.057,0,.112,0,.169.014.224.057.434.099.63.099,1.751,0,1.765-3.194,1.765-3.432,0-.827-.224-1.275-.868-1.275-.112,0-.322.015-.925.07-.7,2.186-1.639,4.118-2.745,5.688-.183.266-.448.378-.687.378-.322,0-.616-.225-.616-.561,0-.168.07-.351.252-.561.967-1.078,1.892-2.829,2.55-4.776l-.336.056Zm7.773,1.724c-.336-.799-1.051-1.892-2.129-2.479-.168-.098-.252-.238-.252-.393,0-.252.238-.504.561-.504.77,0,2.969,2.073,2.969,3.067,0,.406-.336.673-.644.673-.21,0-.406-.112-.505-.364Z"/><path class="cls-3" d="m277.111,307.921c-.434,0-.687-.309-.687-.603,0-.266.196-.546.631-.63.729-.141,1.471-.364,1.919-.631,1.289-.756,1.835-1.568,1.835-2.186,0-.966-1.219-.966-1.316-.966-1.625,0-3.446,1.442-3.67,1.652-.322.295-.589.406-.827.406-.812,0-.84-1.219-.84-1.568,0-.126,0-1.093.49-4.062.056-.35.336-.532.602-.532s.519.183.519.532c0,.028-.014.07-.014.112-.084.603-.238,1.373-.351,2.059-.084.49-.14.953-.14,1.289,0,.154.014.49.154.49.056,0,.111-.028.195-.07.869-.504,2.396-1.372,3.881-1.372,1.555,0,2.577.868,2.577,2.045,0,.952-.7,2.115-2.367,3.138-.784.462-2.199.896-2.592.896Zm0-8.993c-.35,0-.588-.28-.588-.546,0-.141.07-.267.238-.351.168-.07.266-.14.266-.196,0-.056-.056-.098-.154-.168-.279-.182-.756-.42-.98-.658-.111-.126-.168-.266-.168-.378,0-.294.28-.519.603-.519.14,0,.294.042.435.14.252.183.714.406,1.092.659.729.476.841.756.841,1.05,0,.322-.182.687-.799.799q-.756.168-.784.168Z"/><path class="cls-3" d="m285.964,301.869c0,1.611-.014,3.727-.056,5.729,0,.351-.294.519-.574.519-.294,0-.574-.168-.574-.49v-.028c.098-2.592.084-7.228.098-10.197,0-1.247.91-1.275,2.34-1.275.518,0,1.064,0,1.33.015.715.027,1.232.434,1.261,1.022.014.448.028.938.028,1.4,0,.294,0,.574-.015.841-.027.658-.462,1.078-1.358,1.135-.308.014-.812.027-1.331.027-.42,0-.84-.014-1.148-.027v1.33Zm2.788-3.908c0-.182-.015-.35-.015-.504-.027-.448-.182-.477-1.358-.477-1.121,0-1.373.015-1.4.603,0,.126-.015.238-.015.378h2.788Zm-2.788.785v.952c.309.014.938.028,1.471.028.995,0,1.289-.028,1.303-.519,0-.14.015-.294.015-.462h-2.788Zm5.085,5.757h-1.415c-.14,1.541-.672,2.55-2.255,3.04-.084.027-.168.042-.238.042-.336,0-.504-.267-.504-.505,0-.21.111-.392.336-.448,1.19-.266,1.541-1.106,1.639-2.129h-1.261c-.35,0-.504-.21-.504-.435,0-.238.168-.476.504-.476h1.289v-.295c0-.364,0-.784-.014-1.12h-1.009c-.351,0-.505-.21-.505-.435,0-.238.169-.476.505-.476h5.351c.322,0,.49.224.49.448,0,.237-.168.462-.49.462h-.854v1.415h1.274c.322,0,.49.224.49.448,0,.237-.168.462-.49.462h-1.274v2.396c0,.336-.266.504-.532.504s-.532-.168-.532-.504v-2.396Zm0-2.325h-1.373v1.415h1.373v-1.415Zm2.634-1.611c-.561,0-1.106-.014-1.415-.027-.896-.057-1.331-.477-1.358-1.135-.015-.267-.015-.547-.015-.841,0-.462.015-.924.028-1.372.028-.603.519-1.023,1.247-1.051.266-.015.826-.015,1.372-.015.393,0,.771,0,1.009.015,1.036.056,1.429.574,1.429,1.19,0,2.367.028,5.085.028,7.186,0,.673.014,1.261.014,1.751,0,.953-.42,1.808-1.989,1.808-.784,0-1.429-.07-1.429-.659,0-.266.183-.532.49-.532.028,0,.07.015.099.015.308.042.574.084.812.084.518,0,.854-.196.868-.911.014-.56.028-1.218.028-1.891,0-1.022-.015-2.102-.015-3.04v-.602c-.308.014-.756.027-1.204.027Zm1.204-1.82h-2.928c0,.168.015.322.015.462.014.477.21.519,1.345.519.574,0,1.261-.015,1.568-.028v-.952Zm-.014-.785c0-.966-.099-.98-1.443-.98-1.176,0-1.414.015-1.442.505,0,.154-.014.308-.014.476h2.899Z"/><path class="cls-3" d="m299.553,304.181c-.111.351-.392.504-.658.504s-.504-.168-.504-.49c0-.069.014-.168.056-.266.477-1.303.854-2.718,1.135-4.118l-.952.027h-.015c-.336,0-.49-.252-.49-.504s.169-.519.477-.519c.364,0,.757-.014,1.163-.014.14-.868.266-1.737.336-2.535.028-.336.294-.49.561-.49.294,0,.588.196.588.519,0,.014-.07.854-.364,2.493h.995c.812.014,1.176.476,1.176,1.19,0,.729-.168,2.396-.91,4.09.532.28,1.345.743,1.345,1.261,0,.322-.238.616-.546.616-.126,0-.267-.056-.406-.195-.267-.267-.547-.505-.869-.715-1.162,2.06-2.731,2.76-3.123,2.76-.379,0-.603-.309-.603-.589,0-.182.084-.35.294-.434,1.163-.463,1.961-1.303,2.521-2.241-.364-.168-.771-.295-1.19-.406l-.015.056Zm1.149-4.398c-.238,1.148-.519,2.325-.854,3.46.434.098.896.21,1.358.393.519-1.261.742-2.746.742-3.517,0-.21-.111-.336-.378-.336h-.868Zm3.193,1.779c-.364,0-.561-.294-.561-.574,0-.267.154-.519.49-.532l.715-.042c.546-1.205,1.12-2.956,1.373-4.049.069-.294.308-.42.546-.42.322,0,.672.224.672.574,0,.21-.406,1.513-1.4,3.782.98-.099,2.031-.21,2.745-.294-.237-.337-.476-.645-.7-.896-.098-.099-.14-.211-.14-.309,0-.266.266-.477.546-.477.141,0,.267.042.393.154.378.351,1.835,1.976,1.835,2.619,0,.351-.336.603-.658.603-.21,0-.406-.098-.519-.364-.056-.14-.126-.28-.21-.434-1.247.224-4.692.658-5.127.658Zm4.217,6.177c-.393.028-.854.042-1.317.042-1.541,0-2.675,0-2.731-1.303-.014-.308-.014-.644-.014-.994,0-.561.014-1.135.028-1.568.027-.729.546-1.219,1.372-1.261.393-.015.827-.028,1.232-.028.519,0,1.009.014,1.43.028.756.027,1.372.504,1.4,1.204.014.519.042,1.247.042,1.877,0,.252,0,.49-.014.7-.028.743-.547,1.233-1.429,1.303Zm.279-3.6c-.014-.309-.168-.546-.616-.561-.28-.014-.645-.014-.994-.014s-.7,0-.967.014c-.448.015-.616.252-.63.561-.015.309-.028.826-.028,1.303,0,.309,0,.574.014.771.015.532.435.574,1.64.574,1.568,0,1.597-.098,1.597-1.205,0-.49,0-1.092-.015-1.442Z"/></g><g><path class="cls-3" d="m325.361,116.34c-.35,0-.714-.224-.714-.658.014-1.303.056-4.272.056-6.178,0-2.087-.028-2.283-.63-2.283h-.238c-.421,0-.616-.308-.616-.63,0-.351.224-.7.63-.729.28-.014.393-.014.687-.014.91,0,1.471.504,1.513,1.372.014.196.014.49.014.841,0,1.177-.042,3.124-.042,5.127,0,.84.015,1.681.028,2.493v.028c0,.42-.336.63-.687.63Z"/><path class="cls-3" d="m332.441,116.41c-1.82,0-3.432-1.303-3.432-3.53,0-1.135.406-2.311.938-3.306.645-1.219,2.788-3.754,3.586-3.754.393,0,.715.351.715.7,0,.168-.07.336-.267.463-1.975,1.316-3.138,3.306-3.138,3.558,0,.028.015.042.028.042.028,0,.056,0,.098-.028.547-.308,1.149-.448,1.724-.448,2.045,0,3.165,1.429,3.165,3.012,0,2.045-1.61,3.292-3.418,3.292Zm.057-5.239c-1.135,0-2.213.757-2.213,2.06,0,.994.714,1.989,2.143,1.989,1.148,0,2.186-.757,2.186-2.046,0-1.19-.953-2.003-2.115-2.003Z"/><path class="cls-3" d="m340.916,116.634c0,.322-.294.49-.574.49-.295,0-.589-.168-.589-.504l.057-5.085c-.435.799-.953,1.569-1.457,2.172-.141.168-.309.237-.477.237-.308,0-.588-.252-.588-.56,0-.126.056-.267.182-.393.729-.715,1.751-2.144,2.34-3.46v-.238l-1.527.028h-.014c-.351,0-.532-.252-.532-.519,0-.252.182-.519.546-.519h1.513l-.027-1.442c-.351.07-1.191.21-1.359.21-.35,0-.546-.28-.546-.561,0-.224.14-.448.42-.476,1.232-.141,2.199-.351,3.348-.826.07-.028.126-.043.183-.043.294,0,.546.28.546.561,0,.309-.112.477-1.442.854,0,.309-.015.98-.028,1.723h1.093c.336,0,.504.253.504.505,0,.266-.182.532-.532.532h-.014l-1.064-.028c0,.448-.015.883-.015,1.205v.07c.084,0,.169,0,.253.042.056.027,1.526.98,1.526,1.54,0,.322-.28.589-.561.589-.14,0-.294-.07-.406-.238-.21-.294-.532-.673-.812-.952.015,1.961.057,5.07.057,5.07v.014Zm1.568.379c-.392,0-.645-.295-.645-.589,0-.238.154-.462.519-.532,2.815-.519,4.903-1.975,5.785-5.127.07-.266.28-.364.505-.364.308,0,.644.211.644.547,0,.056-.014.126-.027.182-1.724,5.491-6.724,5.884-6.78,5.884Zm-.462-6.626c0-.154.07-.322.238-.49.504-.504,1.078-1.555,1.345-2.409.084-.252.28-.351.49-.351.266,0,.546.183.546.477,0,.49-1.148,3.264-2.073,3.264-.294,0-.546-.21-.546-.49Zm3.474-4.986c0-.364.28-.532.561-.532s.561.168.561.532c0,0,.014,3.655.014,4.342,0,.168.028,1.569.028,1.569v.069c0,.841-.448,1.598-1.793,1.598-.925,0-1.373-.196-1.373-.659,0-.279.196-.546.532-.546.042,0,.084,0,.126.014.309.057.574.112.784.112.379,0,.575-.168.575-.798l-.015-5.701Zm3.544,4.398c-.35-.743-1.022-1.499-1.583-1.962-.111-.098-.168-.21-.168-.321,0-.253.28-.49.574-.49.532,0,2.298,1.849,2.298,2.451,0,.364-.337.645-.645.645-.183,0-.364-.099-.477-.322Z"/><path class="cls-3" d="m354.428,110.261c-.603.098-1.135.154-1.499.154-.406,0-.603-.267-.603-.547s.196-.56.574-.588c.448-.028.883-.028,1.387-.07l.771-.07c.168-.63.378-1.513.477-2.339.042-.364.336-.546.63-.546s.574.195.574.56c0,.337-.392,1.989-.448,2.199l.631-.056c.069,0,.14-.014.21-.014.826,0,1.807.406,1.807,2.297,0,4.202-2.045,4.637-2.899,4.637-.267,0-1.373-.057-1.373-.742,0-.295.238-.575.574-.575.057,0,.112,0,.169.015.224.056.434.098.63.098,1.751,0,1.765-3.193,1.765-3.432,0-.826-.224-1.274-.868-1.274-.112,0-.322.014-.925.069-.7,2.186-1.639,4.119-2.745,5.688-.183.267-.448.378-.687.378-.322,0-.616-.224-.616-.56,0-.169.07-.351.252-.561.967-1.079,1.892-2.83,2.55-4.776l-.336.056Zm7.773,1.723c-.336-.798-1.051-1.891-2.129-2.479-.168-.098-.252-.237-.252-.392,0-.252.238-.505.561-.505.77,0,2.969,2.073,2.969,3.068,0,.406-.336.672-.644.672-.21,0-.406-.112-.505-.364Z"/><path class="cls-3" d="m367.658,106.646c0,.435-.126,1.205-.225,1.919-.14,1.009-.378,2.018-.378,3.054,0,.603.084,1.191.182,1.191.042,0,.084-.057.141-.196.364-.883.532-1.191.854-1.191.238,0,.477.225.477.491,0,.069-.015.14-.043.21-.714,1.61-.728,2.493-.728,2.549,0,.07.014.183.014.294,0,.631-.504.673-.645.673-.196,0-.392-.098-.532-.351-.588-1.12-.756-2.269-.756-3.375,0-1.247.21-2.424.294-3.418.069-.812.153-1.275.182-1.877.015-.379.309-.561.589-.561.294,0,.574.196.574.574v.014Zm6.065,1.667c.364-.07.686-.154.966-.238.07-.014.141-.027.196-.027.351,0,.603.266.603.546,0,.238-.168.462-.589.561l-1.19.238c0,.434.015.868.042,1.484.015.196.015.393.015.589,0,2.479-.785,4.328-2.788,5.742-.14.099-.294.141-.434.141-.337,0-.603-.267-.603-.561,0-.168.084-.35.308-.49,1.766-1.148,2.367-2.815,2.367-5.099,0,0-.027-1.429-.027-1.611-.589.085-1.177.141-1.737.141-.756,0-1.331-.028-1.331-.603,0-.28.211-.546.603-.546.057,0,.112,0,.168.014.211.042.448.056.715.056.477,0,1.022-.056,1.555-.126v-.644c0-.729-.07-1.009-.126-1.485v-.084c0-.406.28-.603.574-.603.742,0,.742.784.742,1.583,0,.183,0,.393-.014.603l-.014.42Z"/><path class="cls-3" d="m386.07,116.452h-.027c-3.04,0-4.692-2.045-4.692-4.301,0-1.498.728-2.675,1.162-3.193.099-.112.154-.182.154-.225,0-.014-.014-.027-.042-.027s-.154.014-2.228.756c-.35.126-1.303.463-1.625.463-.448,0-.714-.337-.714-.673,0-.28.182-.561.588-.645,3.488-.798,4.23-.994,4.959-1.204.742-.21,2.886-.826,3.937-.826.518,0,.742.35.742.686,0,.505-.547.631-1.135.631h-.28c-.7,0-1.484.224-2.003.406-1.093.392-2.396,1.975-2.396,3.67,0,1.625,1.106,3.138,3.362,3.138h.237c.603,0,.911.336.911.672s-.294.673-.911.673Z"/><path class="cls-3" d="m395.82,109.7c0,.252-.014.505-.028.757.042-.028.085-.042.127-.057,1.751-.7,3.025-1.862,3.025-2.325,0-.14-.112-.224-.364-.224h-.658c-1.709,0-4.398.042-6.122.126h-.069c-.477,0-.7-.267-.7-.546,0-.295.224-.589.672-.603,1.723-.084,3.138-.084,7.284-.084.91,0,1.471.504,1.471,1.148,0,.322-.126.672-.435,1.022-1.877,2.102-3.698,2.605-3.978,2.605-.141,0-.267-.028-.364-.099-.351,2.13-1.401,3.811-3.502,5.113-.196.126-.379.168-.547.168-.406,0-.687-.28-.687-.603,0-.224.141-.462.463-.616,2.157-1.078,3.067-3.109,3.067-5.099,0-.21-.014-.42-.028-.63-.056-.617.49-.743.673-.743.351,0,.7.225.7.673v.014Z"/><path class="cls-3" d="m412.092,114.883c-1.414-.042-3.165-.069-4.86-.069-1.555,0-3.082.027-4.286.056h-.028c-.378,0-.588-.322-.588-.63s.196-.617.616-.617c1.093-.014,2.619-.027,4.202-.027,1.821,0,3.684.014,4.959.042.42,0,.602.28.602.574,0,.322-.224.672-.588.672h-.028Zm-1.877-5.938c.364,0,.561.294.561.574,0,.308-.196.603-.645.616-.742.014-1.765.014-2.787.014s-2.045,0-2.773-.014c-.406,0-.616-.309-.616-.603s.21-.588.672-.588h.028c.771.014,1.736.027,2.717.027.995,0,1.989-.014,2.83-.027h.014Z"/><path class="cls-3" d="m414.997,116.956c-.364,0-.631-.308-.631-.616,0-.21.112-.42.364-.546,1.751-.869,3.306-2.27,4.553-3.853-.631-.392-1.289-.729-1.821-.91-.21-.07-.309-.238-.309-.42,0-.295.253-.617.631-.617.448,0,1.807.757,2.199.98.784-1.134,1.415-2.325,1.877-3.445.154-.364.406-.519.658-.519.351,0,.673.294.673.645,0,.49-1.737,3.306-2.186,3.964.757.519,1.639,1.233,1.639,1.724,0,.378-.308.714-.645.714-.168,0-.322-.084-.462-.252-.28-.364-.729-.771-1.261-1.177-2.073,2.661-4.763,4.328-5.28,4.328Z"/><path class="cls-3" d="m426.567,111.521c-.435,0-.631-.28-.631-.574,0-.309.225-.616.631-.616h8.824c.406,0,.603.294.603.602,0,.295-.196.589-.603.589h-8.824Z"/><path class="cls-3" d="m441.134,112.012c-.546-.351-1.247-.658-1.835-.757-.294-.042-.42-.266-.42-.49,0-.294.224-.602.63-.602.462,0,1.737.448,2.27.742.252.14.35.35.35.574,0,.322-.252.658-.616.658-.111,0-.238-.042-.378-.126Zm-.435,4.454c-.42,0-.672-.322-.672-.645,0-.266.168-.532.561-.644,2.857-.771,5.925-3.517,7.34-6.458.126-.266.364-.378.588-.378.309,0,.616.224.616.603,0,.126-.042.28-.126.448-2.703,5.253-7.802,7.073-8.307,7.073Zm2.088-6.947c-.448-.463-1.065-.911-1.625-1.135-.225-.099-.322-.28-.322-.462,0-.28.238-.575.603-.575.308,0,1.513.589,2.241,1.247.168.154.237.322.237.49,0,.351-.294.658-.644.658-.154,0-.337-.056-.49-.224Z"/><path class="cls-3" d="m453.814,113.286h-.589c-.364,0-.574-.238-.574-.476s.196-.477.616-.477c.967,0,3.026-.042,4.034-.042,0-.322-.014-.616-.014-.784-.014-.477-.322-.505-1.148-.505-.953,0-2.283.057-3.152.084h-.042c-.378,0-.56-.238-.56-.476,0-.253.182-.49.56-.505.812-.028,2.031-.056,3.026-.056.392,0,.742,0,1.036.014.952.028,1.345.574,1.345,1.303v3.025c-.028.995-.714,1.275-1.513,1.317-1.093.056-2.928.069-3.979.069-.392,0-.588-.279-.588-.546,0-.252.182-.504.546-.504h.028c.519.014,1.219.027,1.905.027,2.199,0,2.507-.014,2.535-.518.014-.225.014-.603.014-.995-1.106.028-2.493.042-3.487.042Z"/><path class="cls-3" d="m464.692,110.232c-.519-.504-1.472-.966-2.144-1.148-.267-.07-.378-.28-.378-.504,0-.309.237-.645.644-.645.238,0,1.751.448,2.746,1.204.196.154.28.337.28.533,0,.392-.322.77-.7.77-.141,0-.309-.069-.448-.21Zm-1.303,5.842c-.435,0-.701-.322-.701-.659,0-.279.196-.574.616-.686,2.914-.743,5.688-3.391,7.074-6.206.126-.266.364-.378.589-.378.321,0,.63.225.63.616,0,.126-.042.28-.126.448-2.914,5.478-7.662,6.864-8.082,6.864Z"/></g><g><path class="cls-3" d="m613.415,129.866c-.056-.645-.098-1.274-.098-1.892,0-.518.027-1.022.069-1.555.196-2.395,1.499-3.712,3.334-3.712,1.807,0,3.109,1.261,3.32,3.559.056.616.098,1.232.098,1.835,0,1.442-.084,5.322-3.418,5.322-1.793,0-3.082-1.246-3.306-3.558Zm5.239.084c.084-.603.126-1.261.126-1.919,0-.561-.028-1.121-.084-1.639-.141-1.541-.896-2.452-1.976-2.452s-1.849.953-1.989,2.521c-.042.519-.069,1.037-.069,1.569,0,.588.027,1.19.098,1.765.182,1.499.952,2.382,1.961,2.382.967,0,1.737-.812,1.934-2.228Z"/><path class="cls-3" d="m621.738,132.43c0-.603.532-.854.882-.854.379,0,.883.35.883.854,0,.574-.532.896-.883.896-.868,0-.882-.784-.882-.896Z"/><path class="cls-3" d="m632.297,130.272c0,2.213-1.793,3.166-3.6,3.166-1.933,0-3.53-1.135-3.53-3.166,0-1.19.701-2.298,1.821-2.773-.742-.351-1.316-1.177-1.316-2.129,0-1.415,1.093-2.662,3.054-2.662,1.849,0,3.067,1.064,3.067,2.647,0,.938-.546,1.779-1.331,2.144.196.07,1.835.7,1.835,2.773Zm-3.571-2.115c-1.359,0-2.283.925-2.283,2.102,0,1.274,1.106,1.975,2.283,1.975,1.219,0,2.297-.757,2.297-1.975s-.812-2.102-2.297-2.102Zm0-4.301c-1.009,0-1.779.687-1.779,1.527,0,1.009.7,1.583,1.737,1.583.84,0,1.835-.379,1.835-1.569,0-1.106-1.064-1.541-1.793-1.541Z"/><path class="cls-3" d="m637.291,133.634c0,.322-.294.49-.574.49-.295,0-.589-.168-.589-.504l.057-5.085c-.435.799-.953,1.569-1.457,2.172-.141.168-.309.237-.477.237-.308,0-.588-.252-.588-.56,0-.126.056-.267.182-.393.729-.715,1.751-2.144,2.34-3.46v-.238l-1.527.028h-.014c-.351,0-.532-.252-.532-.519,0-.252.182-.519.546-.519h1.513l-.027-1.442c-.351.07-1.191.21-1.359.21-.35,0-.546-.28-.546-.561,0-.224.14-.448.42-.476,1.232-.141,2.199-.351,3.348-.826.07-.028.126-.043.183-.043.294,0,.546.28.546.561,0,.309-.112.477-1.442.854,0,.309-.015.98-.028,1.723h1.093c.336,0,.504.253.504.505,0,.266-.182.532-.532.532h-.014l-1.064-.028c0,.448-.015.883-.015,1.205v.07c.084,0,.169,0,.253.042.056.027,1.526.98,1.526,1.54,0,.322-.28.589-.561.589-.14,0-.294-.07-.406-.238-.21-.294-.532-.673-.812-.952.015,1.961.057,5.07.057,5.07v.014Zm1.568.379c-.392,0-.645-.295-.645-.589,0-.238.154-.462.519-.532,2.815-.519,4.902-1.975,5.785-5.127.07-.266.28-.364.505-.364.308,0,.644.211.644.547,0,.056-.014.126-.027.182-1.724,5.491-6.724,5.884-6.78,5.884Zm-.462-6.626c0-.154.07-.322.238-.49.504-.504,1.078-1.555,1.345-2.409.084-.252.28-.351.49-.351.266,0,.546.183.546.477,0,.49-1.148,3.264-2.073,3.264-.294,0-.546-.21-.546-.49Zm3.474-4.986c0-.364.28-.532.561-.532s.561.168.561.532c0,0,.014,3.655.014,4.342,0,.168.028,1.569.028,1.569v.069c0,.841-.448,1.598-1.793,1.598-.925,0-1.373-.196-1.373-.659,0-.279.196-.546.532-.546.042,0,.084,0,.126.014.309.057.574.112.784.112.379,0,.575-.168.575-.798l-.015-5.701Zm3.544,4.398c-.35-.743-1.022-1.499-1.583-1.962-.111-.098-.168-.21-.168-.321,0-.253.28-.49.574-.49.532,0,2.298,1.849,2.298,2.451,0,.364-.337.645-.645.645-.183,0-.364-.099-.477-.322Z"/></g><g><path class="cls-3" d="m415.234,39.272c0,2.213-1.793,3.166-3.6,3.166-1.934,0-3.53-1.135-3.53-3.166,0-1.19.7-2.298,1.821-2.773-.742-.351-1.316-1.177-1.316-2.129,0-1.415,1.092-2.662,3.053-2.662,1.85,0,3.068,1.064,3.068,2.647,0,.938-.547,1.779-1.331,2.144.196.07,1.835.7,1.835,2.773Zm-3.572-2.115c-1.358,0-2.283.925-2.283,2.102,0,1.274,1.107,1.975,2.283,1.975,1.219,0,2.298-.757,2.298-1.975s-.812-2.102-2.298-2.102Zm0-4.301c-1.009,0-1.778.687-1.778,1.527,0,1.009.7,1.583,1.736,1.583.841,0,1.835-.379,1.835-1.569,0-1.106-1.064-1.541-1.793-1.541Z"/><path class="cls-3" d="m420.228,42.634c0,.322-.294.49-.574.49-.295,0-.589-.168-.589-.504l.057-5.085c-.435.799-.953,1.569-1.457,2.172-.141.168-.309.237-.477.237-.308,0-.588-.252-.588-.56,0-.126.056-.267.182-.393.729-.715,1.751-2.144,2.34-3.46v-.238l-1.527.028h-.014c-.351,0-.532-.252-.532-.519,0-.252.182-.519.546-.519h1.513l-.027-1.442c-.351.07-1.191.21-1.359.21-.35,0-.546-.28-.546-.561,0-.224.14-.448.42-.476,1.232-.141,2.199-.351,3.348-.826.07-.028.126-.043.183-.043.294,0,.546.28.546.561,0,.309-.112.477-1.442.854,0,.309-.015.98-.028,1.723h1.093c.336,0,.504.253.504.505,0,.266-.182.532-.532.532h-.014l-1.064-.028c0,.448-.015.883-.015,1.205v.07c.084,0,.169,0,.253.042.056.027,1.526.98,1.526,1.54,0,.322-.28.589-.561.589-.14,0-.294-.07-.406-.238-.21-.294-.532-.673-.812-.952.015,1.961.057,5.07.057,5.07v.014Zm1.568.379c-.392,0-.645-.295-.645-.589,0-.238.154-.462.519-.532,2.815-.519,4.903-1.975,5.785-5.127.07-.266.28-.364.505-.364.308,0,.644.211.644.547,0,.056-.014.126-.027.182-1.724,5.491-6.724,5.884-6.78,5.884Zm-.462-6.626c0-.154.07-.322.238-.49.504-.504,1.078-1.555,1.345-2.409.084-.252.28-.351.49-.351.266,0,.546.183.546.477,0,.49-1.148,3.264-2.073,3.264-.294,0-.546-.21-.546-.49Zm3.474-4.986c0-.364.28-.532.561-.532s.561.168.561.532c0,0,.014,3.655.014,4.342,0,.168.028,1.569.028,1.569v.069c0,.841-.448,1.598-1.793,1.598-.925,0-1.373-.196-1.373-.659,0-.279.196-.546.532-.546.042,0,.084,0,.126.014.309.057.574.112.784.112.379,0,.575-.168.575-.798l-.015-5.701Zm3.544,4.398c-.35-.743-1.022-1.499-1.583-1.962-.111-.098-.168-.21-.168-.321,0-.253.28-.49.574-.49.532,0,2.298,1.849,2.298,2.451,0,.364-.337.645-.645.645-.183,0-.364-.099-.477-.322Z"/><path class="cls-3" d="m433.739,36.261c-.603.098-1.135.154-1.499.154-.406,0-.603-.267-.603-.547s.196-.56.574-.588c.448-.028.883-.028,1.387-.07l.771-.07c.168-.63.378-1.513.477-2.339.042-.364.336-.546.63-.546s.574.195.574.56c0,.337-.392,1.989-.448,2.199l.631-.056c.069,0,.14-.014.21-.014.826,0,1.807.406,1.807,2.297,0,4.202-2.045,4.637-2.899,4.637-.267,0-1.373-.057-1.373-.742,0-.295.238-.575.574-.575.057,0,.112,0,.169.015.224.056.434.098.63.098,1.751,0,1.765-3.193,1.765-3.432,0-.826-.224-1.274-.868-1.274-.112,0-.322.014-.925.069-.7,2.186-1.639,4.119-2.745,5.688-.183.267-.448.378-.687.378-.322,0-.616-.224-.616-.56,0-.169.07-.351.252-.561.967-1.079,1.892-2.83,2.55-4.776l-.336.056Zm7.773,1.723c-.336-.798-1.051-1.891-2.129-2.479-.168-.098-.252-.237-.252-.392,0-.252.238-.505.561-.505.77,0,2.969,2.073,2.969,3.068,0,.406-.336.672-.644.672-.21,0-.406-.112-.505-.364Z"/><path class="cls-3" d="m446.97,32.646c0,.435-.126,1.205-.225,1.919-.14,1.009-.378,2.018-.378,3.054,0,.603.084,1.191.182,1.191.042,0,.084-.057.141-.196.364-.883.532-1.191.854-1.191.238,0,.477.225.477.491,0,.069-.015.14-.043.21-.714,1.61-.728,2.493-.728,2.549,0,.07.014.183.014.294,0,.631-.504.673-.645.673-.196,0-.392-.098-.532-.351-.588-1.12-.756-2.269-.756-3.375,0-1.247.21-2.424.294-3.418.069-.812.153-1.275.182-1.877.015-.379.309-.561.589-.561.294,0,.574.196.574.574v.014Zm6.065,1.667c.364-.07.686-.154.966-.238.07-.014.141-.027.196-.027.351,0,.603.266.603.546,0,.238-.168.462-.589.561l-1.19.238c0,.434.015.868.042,1.484.015.196.015.393.015.589,0,2.479-.785,4.328-2.788,5.742-.14.099-.294.141-.434.141-.337,0-.603-.267-.603-.561,0-.168.084-.35.308-.49,1.766-1.148,2.367-2.815,2.367-5.099,0,0-.027-1.429-.027-1.611-.589.085-1.177.141-1.737.141-.756,0-1.331-.028-1.331-.603,0-.28.211-.546.603-.546.057,0,.112,0,.168.014.211.042.448.056.715.056.477,0,1.022-.056,1.555-.126v-.644c0-.729-.07-1.009-.126-1.485v-.084c0-.406.28-.603.574-.603.742,0,.742.784.742,1.583,0,.183,0,.393-.014.603l-.014.42Z"/><path class="cls-3" d="m465.382,42.452h-.027c-3.04,0-4.692-2.045-4.692-4.301,0-1.498.728-2.675,1.162-3.193.099-.112.154-.182.154-.225,0-.014-.014-.027-.042-.027s-.154.014-2.228.756c-.35.126-1.303.463-1.625.463-.448,0-.714-.337-.714-.673,0-.28.182-.561.588-.645,3.488-.798,4.23-.994,4.959-1.204.742-.21,2.886-.826,3.937-.826.518,0,.742.35.742.686,0,.505-.547.631-1.135.631h-.28c-.7,0-1.484.224-2.003.406-1.093.392-2.396,1.975-2.396,3.67,0,1.625,1.106,3.138,3.362,3.138h.237c.603,0,.911.336.911.672s-.294.673-.911.673Z"/><path class="cls-3" d="m475.131,35.7c0,.252-.014.505-.028.757.042-.028.084-.042.127-.057,1.75-.7,3.025-1.862,3.025-2.325,0-.14-.112-.224-.364-.224h-.658c-1.709,0-4.398.042-6.122.126h-.069c-.477,0-.7-.267-.7-.546,0-.295.224-.589.672-.603,1.723-.084,3.138-.084,7.284-.084.91,0,1.471.504,1.471,1.148,0,.322-.126.672-.435,1.022-1.877,2.102-3.697,2.605-3.978,2.605-.141,0-.267-.028-.364-.099-.351,2.13-1.401,3.811-3.502,5.113-.196.126-.379.168-.547.168-.406,0-.686-.28-.686-.603,0-.224.14-.462.462-.616,2.157-1.078,3.067-3.109,3.067-5.099,0-.21-.014-.42-.028-.63-.056-.617.49-.743.673-.743.351,0,.7.225.7.673v.014Z"/><path class="cls-3" d="m491.403,40.883c-1.414-.042-3.165-.069-4.86-.069-1.555,0-3.082.027-4.286.056h-.028c-.378,0-.588-.322-.588-.63s.196-.617.616-.617c1.093-.014,2.619-.027,4.202-.027,1.821,0,3.684.014,4.959.042.42,0,.602.28.602.574,0,.322-.224.672-.588.672h-.028Zm-1.877-5.938c.364,0,.561.294.561.574,0,.308-.196.603-.645.616-.742.014-1.765.014-2.787.014s-2.045,0-2.773-.014c-.406,0-.616-.309-.616-.603s.21-.588.672-.588h.028c.771.014,1.736.027,2.717.027.995,0,1.989-.014,2.83-.027h.014Z"/><path class="cls-3" d="m494.308,42.956c-.364,0-.631-.308-.631-.616,0-.21.112-.42.364-.546,1.751-.869,3.306-2.27,4.553-3.853-.631-.392-1.289-.729-1.821-.91-.21-.07-.309-.238-.309-.42,0-.295.253-.617.631-.617.448,0,1.807.757,2.199.98.784-1.134,1.415-2.325,1.877-3.445.154-.364.406-.519.658-.519.351,0,.673.294.673.645,0,.49-1.737,3.306-2.186,3.964.757.519,1.639,1.233,1.639,1.724,0,.378-.308.714-.645.714-.168,0-.321-.084-.462-.252-.28-.364-.729-.771-1.261-1.177-2.073,2.661-4.763,4.328-5.28,4.328Z"/><path class="cls-3" d="m505.879,37.521c-.435,0-.631-.28-.631-.574,0-.309.225-.616.631-.616h8.824c.406,0,.603.294.603.602,0,.295-.196.589-.603.589h-8.824Z"/><path class="cls-3" d="m520.445,38.012c-.546-.351-1.247-.658-1.835-.757-.294-.042-.42-.266-.42-.49,0-.294.224-.602.63-.602.462,0,1.737.448,2.27.742.252.14.35.35.35.574,0,.322-.252.658-.616.658-.111,0-.238-.042-.378-.126Zm-.435,4.454c-.42,0-.672-.322-.672-.645,0-.266.168-.532.561-.644,2.857-.771,5.925-3.517,7.34-6.458.126-.266.364-.378.588-.378.309,0,.616.224.616.603,0,.126-.042.28-.126.448-2.703,5.253-7.802,7.073-8.307,7.073Zm2.088-6.947c-.448-.463-1.065-.911-1.625-1.135-.225-.099-.322-.28-.322-.462,0-.28.238-.575.603-.575.308,0,1.513.589,2.241,1.247.168.154.237.322.237.49,0,.351-.294.658-.644.658-.154,0-.337-.056-.49-.224Z"/><path class="cls-3" d="m533.126,39.286h-.589c-.364,0-.574-.238-.574-.476s.196-.477.616-.477c.967,0,3.026-.042,4.034-.042,0-.322-.014-.616-.014-.784-.014-.477-.322-.505-1.148-.505-.953,0-2.283.057-3.152.084h-.042c-.378,0-.56-.238-.56-.476,0-.253.182-.49.56-.505.812-.028,2.031-.056,3.026-.056.392,0,.742,0,1.036.014.952.028,1.345.574,1.345,1.303v3.025c-.028.995-.714,1.275-1.513,1.317-1.093.056-2.928.069-3.979.069-.392,0-.588-.279-.588-.546,0-.252.182-.504.546-.504h.028c.519.014,1.219.027,1.905.027,2.199,0,2.507-.014,2.535-.518.014-.225.014-.603.014-.995-1.106.028-2.493.042-3.487.042Z"/><path class="cls-3" d="m544.004,36.232c-.519-.504-1.472-.966-2.144-1.148-.267-.07-.378-.28-.378-.504,0-.309.237-.645.644-.645.238,0,1.751.448,2.746,1.204.196.154.28.337.28.533,0,.392-.322.77-.7.77-.141,0-.309-.069-.448-.21Zm-1.303,5.842c-.435,0-.701-.322-.701-.659,0-.279.196-.574.616-.686,2.914-.743,5.688-3.391,7.074-6.206.126-.266.364-.378.589-.378.321,0,.63.225.63.616,0,.126-.042.28-.126.448-2.914,5.478-7.662,6.864-8.082,6.864Z"/></g></g></svg>