<svg id="ico" xmlns="http://www.w3.org/2000/svg" width="24" height="24" viewBox="0 0 24 24">
<symbol id="apple"><path d="M6.602,23.547c-.404-.259-.824-.63-1.244-1.147-.291-.339-.646-.824-1.067-1.455-.727-1.051-1.325-2.263-1.778-3.636-.501-1.503-.743-2.941-.743-4.347,0-1.568,.339-2.941,1.002-4.089,.517-.921,1.212-1.648,2.101-2.182,.889-.549,1.826-.824,2.844-.84,.356,0,.727,.048,1.131,.145,.291,.081,.646,.21,1.067,.372,.549,.21,.857,.339,.954,.372,.323,.113,.598,.162,.808,.162,.162,0,.388-.048,.646-.129,.145-.048,.42-.145,.808-.307,.388-.145,.695-.259,.937-.356,.372-.113,.727-.21,1.051-.259,.388-.065,.776-.081,1.147-.048,.711,.048,1.358,.194,1.939,.42,1.018,.404,1.842,1.051,2.457,1.956-.259,.162-.501,.339-.727,.549-.501,.453-.921,.954-1.228,1.503-.436,.776-.646,1.632-.646,2.521,.016,1.083,.291,2.036,.84,2.861,.388,.598,.905,1.115,1.535,1.535,.307,.21,.582,.356,.84,.453-.129,.42-.275,.792-.404,1.099-.356,.84-.776,1.6-1.244,2.311-.436,.63-.776,1.099-1.034,1.406-.404,.485-.792,.84-1.18,1.099-.453,.291-.937,.436-1.455,.436-.356,.016-.695-.032-1.034-.129-.194-.065-.485-.162-.857-.323-.372-.162-.679-.275-.905-.339-.372-.097-.76-.145-1.164-.145s-.792,.048-1.164,.145c-.259,.065-.549,.178-.905,.323-.42,.178-.695,.291-.857,.339-.323,.097-.663,.162-.986,.178-.517,0-1.002-.145-1.487-.453ZM13.455,5.091c-.679,.339-1.325,.485-1.972,.436-.097-.646,0-1.309,.275-2.036,.242-.614,.566-1.18,1.002-1.681,.436-.501,.97-.921,1.632-1.261s1.293-.517,1.891-.549c.081,.679,0,1.358-.242,2.069-.226,.646-.566,1.228-1.002,1.762-.436,.533-.97,.954-1.584,1.261Z"/></symbol>
<symbol id="contact"><path d="M22.5,20.7H1.5c-.663,0-1.2-.537-1.2-1.2V4.5c0-.663,.537-1.2,1.2-1.2H22.5c.663,0,1.2,.537,1.2,1.2v15c0,.663-.537,1.2-1.2,1.2Zm-18.891-1.4H20.39c.275,0,.405-.339,.2-.523l-6.037-5.423c-.229-.206-.577-.205-.804,.002l-.943,.856c-.458,.416-1.156,.416-1.614,0l-.943-.856c-.228-.207-.575-.208-.804-.002l-6.037,5.423c-.205,.184-.075,.523,.2,.523Zm12.076-6.812l6.114,5.492c.193,.173,.5,.036,.5-.223V6.261c0-.26-.309-.397-.502-.222l-6.115,5.559c-.263,.239-.262,.653,.003,.89ZM1.7,6.261v11.496c0,.26,.307,.397,.5,.223l6.114-5.492c.264-.237,.266-.651,.003-.89L2.202,6.039c-.193-.175-.502-.038-.502,.222Zm1.685-1.038l8.212,7.465c.229,.208,.578,.208,.807,0l8.212-7.465c.203-.184,.072-.522-.202-.522H3.587c-.274,0-.405,.338-.202,.522Z"/></symbol>
<symbol id="facebook"><path d="M23,12c0-6.075-4.925-11-11-11S1,5.925,1,12c0,5.49,4.023,10.041,9.281,10.866v-7.687h-2.793v-3.18h2.793v-2.423c0-2.757,1.642-4.28,4.155-4.28,1.204,0,2.462,.215,2.462,.215v2.707h-1.387c-1.366,0-1.793,.848-1.793,1.718v2.063h3.051l-.488,3.18h-2.563v7.687c5.259-.825,9.281-5.376,9.281-10.866Z"/></symbol>
<symbol id="instagram"><path d="M12,3.392c2.804,0,3.136,.011,4.243,.061,1.024,.047,1.58,.218,1.95,.362,.49,.19,.84,.418,1.207,.785,.367,.367,.595,.717,.785,1.207,.144,.37,.315,.926,.362,1.95,.051,1.107,.061,1.439,.061,4.243s-.011,3.136-.061,4.243c-.047,1.024-.218,1.58-.362,1.95-.19,.49-.418,.84-.785,1.207s-.717,.595-1.207,.785c-.37,.144-.926,.315-1.95,.362-1.107,.051-1.439,.061-4.243,.061s-3.136-.011-4.243-.061c-1.024-.047-1.58-.218-1.95-.362-.49-.19-.84-.418-1.207-.785-.367-.367-.595-.717-.785-1.207-.144-.37-.315-.926-.362-1.95-.051-1.107-.061-1.439-.061-4.243s.011-3.136,.061-4.243c.047-1.024,.218-1.58,.362-1.95,.19-.49,.418-.84,.785-1.207s.717-.595,1.207-.785c.37-.144,.926-.315,1.95-.362,1.107-.051,1.439-.061,4.243-.061m0-1.892c-2.852,0-3.209,.012-4.329,.063-1.118,.051-1.881,.228-2.549,.488-.69,.268-1.276,.627-1.86,1.211-.584,.584-.943,1.169-1.211,1.86-.26,.668-.437,1.431-.488,2.549-.051,1.12-.063,1.477-.063,4.329s.012,3.209,.063,4.329c.051,1.118,.228,1.881,.488,2.549,.268,.69,.627,1.276,1.211,1.86,.584,.584,1.169,.943,1.86,1.211,.668,.26,1.431,.437,2.549,.488,1.12,.051,1.478,.063,4.329,.063s3.209-.012,4.329-.063c1.118-.051,1.881-.228,2.549-.488,.69-.268,1.276-.627,1.86-1.211,.584-.584,.943-1.169,1.211-1.86,.26-.668,.437-1.431,.488-2.549,.051-1.12,.063-1.477,.063-4.329s-.012-3.209-.063-4.329c-.051-1.118-.228-1.881-.488-2.549-.268-.69-.627-1.276-1.211-1.86-.584-.584-1.169-.943-1.86-1.211-.668-.26-1.431-.437-2.549-.488-1.12-.051-1.477-.063-4.329-.063h0Zm0,5.108c-2.978,0-5.392,2.414-5.392,5.392s2.414,5.392,5.392,5.392,5.392-2.414,5.392-5.392-2.414-5.392-5.392-5.392Zm0,8.892c-1.933,0-3.5-1.567-3.5-3.5s1.567-3.5,3.5-3.5,3.5,1.567,3.5,3.5-1.567,3.5-3.5,3.5Zm5.605-10.365c-.696,0-1.26,.564-1.26,1.26s.564,1.26,1.26,1.26,1.26-.564,1.26-1.26-.564-1.26-1.26-1.26Z"/></symbol>
<symbol id="line"><path d="M23.492,10.79c0-5.146-5.159-9.332-11.5-9.332S.492,5.644,.492,10.79c0,4.613,4.091,8.477,9.618,9.207,.374,.081,.884,.247,1.013,.567,.116,.291,.076,.746,.037,1.04,0,0-.135,.812-.164,.984-.05,.291-.231,1.137,.996,.62,1.227-.517,6.623-3.9,9.035-6.677h0c1.667-1.828,2.465-3.683,2.465-5.742Zm-15.557,2.752c0,.121-.098,.22-.22,.22h-3.231c-.121,0-.22-.098-.22-.22v-.003h0v-5.015c0-.121,.098-.22,.22-.22h.816c.121,0,.22,.099,.22,.22v3.984h2.196c.121,0,.22,.099,.22,.22v.816Zm1.945,0c0,.121-.098,.22-.22,.22h-.816c-.121,0-.22-.098-.22-.22v-5.019c0-.121,.098-.22,.22-.22h.816c.121,0,.22,.098,.22,.22v5.019Zm5.552,0c0,.121-.098,.22-.22,.22h-.811c-.02,0-.039-.003-.057-.008-.001,0-.002,0-.003,0-.005-.001-.01-.003-.015-.005-.002,0-.005-.002-.007-.003-.004-.001-.007-.003-.011-.005-.004-.002-.007-.003-.011-.005-.002-.001-.004-.002-.006-.003-.005-.003-.009-.005-.014-.008,0,0-.002-.001-.003-.002-.021-.015-.041-.033-.057-.055l-2.299-3.105v2.98c0,.121-.098,.22-.22,.22h-.816c-.121,0-.22-.098-.22-.22v-5.019c0-.121,.098-.22,.22-.22h.811s.005,0,.007,0c.004,0,.008,0,.012,0,.004,0,.008,0,.012,.001,.003,0,.006,0,.009,.001,.004,0,.009,.002,.013,.003,.003,0,.005,.001,.008,.002,.004,.001,.009,.003,.013,.004,.002,0,.005,.002,.007,.003,.004,.002,.009,.004,.013,.005,.002,.001,.005,.002,.007,.003,.004,.002,.008,.004,.012,.007,.002,.001,.004,.003,.007,.004,.004,.003,.008,.005,.012,.008,.002,.002,.004,.003,.006,.004,.004,.003,.008,.007,.012,.01,.001,.001,.003,.002,.004,.004,.005,.004,.009,.009,.013,.014,0,0,.001,.001,.001,.002,.006,.007,.012,.015,.018,.023l2.296,3.101v-2.981c0-.121,.098-.22,.22-.22h.816c.121,0,.22,.098,.22,.22v5.019Zm4.454-4.203c0,.121-.098,.22-.22,.22h-2.196v.847h2.196c.121,0,.22,.099,.22,.22v.816c0,.121-.098,.22-.22,.22h-2.196v.847h2.196c.121,0,.22,.099,.22,.22v.816c0,.121-.098,.22-.22,.22h-3.231c-.121,0-.22-.098-.22-.22v-.003h0v-5.01h0v-.005c0-.121,.098-.22,.22-.22h3.231c.121,0,.22,.099,.22,.22v.816Z"/></symbol>
<symbol id="spotify"><path d="M12,1C5.925,1,1,5.925,1,12s4.925,11,11,11,11-4.925,11-11S18.075,1,12,1Zm5.045,15.866c-.198,.324-.62,.426-.943,.228-2.583-1.579-5.834-1.935-9.663-1.061-.369,.085-.737-.147-.821-.516-.085-.369,.146-.737,.516-.821,4.19-.958,7.784-.546,10.684,1.226,.323,.197,.425,.62,.227,.943Zm1.346-2.995c-.249,.404-.777,.53-1.18,.282-2.956-1.817-7.464-2.343-10.961-1.282-.454,.137-.933-.119-1.07-.571-.137-.454,.119-.932,.572-1.07,3.995-1.212,8.962-.625,12.357,1.461,.403,.248,.53,.776,.282,1.179Zm.116-3.119c-3.546-2.106-9.394-2.299-12.779-1.272-.544,.165-1.118-.142-1.283-.686-.165-.544,.142-1.118,.686-1.283,3.886-1.179,10.345-.952,14.427,1.471,.489,.29,.649,.922,.359,1.41-.29,.489-.922,.65-1.41,.36Z"/></symbol>
<symbol id="tiktok"><path d="M20.4,1.5H3.6c-1.16,0-2.1,.94-2.1,2.1V20.4c0,1.16,.94,2.1,2.1,2.1H20.4c1.16,0,2.1-.94,2.1-2.1V3.6c0-1.16-.94-2.1-2.1-2.1Zm-1.862,7.139v2.021c-1.335,0-2.57-.424-3.58-1.145v5.239c0,2.621-2.126,4.745-4.748,4.745-.978,0-1.888-.296-2.643-.803,0,0,0,0,0,0-1.269-.852-2.105-2.3-2.105-3.942,0-2.621,2.126-4.745,4.748-4.745,.218,0,.436,.015,.651,.044v.582h0v2.043c-.208-.066-.429-.102-.659-.102-1.2,0-2.172,.972-2.172,2.171,0,.848,.486,1.582,1.195,1.939,.294,.148,.626,.232,.977,.232,1.197,0,2.168-.968,2.172-2.163V4.5h2.584v.33c.009,.099,.022,.197,.039,.295,.179,1.022,.791,1.896,1.64,2.425h0c.57,.356,1.229,.544,1.901,.543v.547Z"/></symbol>
<symbol id="twitter"><path d="M21.145,7.308c.014,.203,.014,.406,.014,.61,0,6.235-4.747,13.426-13.426,13.426v-.004c-2.564,.004-5.075-.731-7.233-2.115,.373,.045,.748,.067,1.123,.068,2.125,.002,4.189-.711,5.86-2.024-2.019-.038-3.79-1.355-4.408-3.277,.707,.136,1.436,.108,2.13-.081-2.201-.445-3.785-2.379-3.785-4.625v-.06c.656,.365,1.39,.568,2.142,.591C1.489,8.431,.849,5.673,2.102,3.516c2.396,2.948,5.931,4.74,9.725,4.93-.38-1.639,.139-3.356,1.365-4.508,1.901-1.787,4.89-1.695,6.676,.205,1.057-.208,2.07-.596,2.997-1.146-.352,1.092-1.089,2.02-2.074,2.61,.935-.11,1.849-.361,2.71-.743-.634,.949-1.431,1.776-2.355,2.444Z"/></symbol>
<symbol id="youtube"><path d="M23.498,6.223c-.276-1.033-1.089-1.846-2.122-2.122-1.872-.502-9.377-.502-9.377-.502,0,0-7.505,0-9.377,.502-1.033,.276-1.846,1.089-2.122,2.122-.502,1.872-.502,5.777-.502,5.777,0,0,0,3.905,.502,5.777,.276,1.033,1.089,1.846,2.122,2.122,1.872,.501,9.377,.501,9.377,.501,0,0,7.505,0,9.377-.501,1.033-.276,1.846-1.089,2.122-2.122,.502-1.872,.502-5.777,.502-5.777,0,0,0-3.905-.502-5.777ZM9.6,15.6v-7.2l6.235,3.6-6.235,3.6Z"/></symbol>
</svg>