<svg xmlns="http://www.w3.org/2000/svg" width="60" height="70" xmlns:xlink="http://www.w3.org/1999/xlink" viewBox="0 0 60 70"><defs><clipPath id="clippath"><path d="M19.309,26.254c-1.056,.289-1.862,1.144-2.087,2.215-.185,.983,.19,1.988,.974,2.611,.239,.182,.285,.523,.104,.762-.182,.239-.523,.285-.762,.104-.011-.008-.021-.017-.031-.026-1.094-.872-1.614-2.278-1.352-3.652,.302-1.461,1.387-2.635,2.819-3.052,.286-.093,.593,.064,.686,.349s-.064,.593-.349,.686v.003Zm2.745-.728c-1.482,.599-2.482,2.002-2.566,3.598-.022,1.427,.799,2.734,2.094,3.333,.269,.134,.595,.025,.729-.244,.134-.269,.025-.595-.244-.729-.916-.416-1.5-1.332-1.492-2.338,.07-1.179,.824-2.208,1.928-2.63,.274-.124,.395-.446,.271-.72-.124-.274-.446-.395-.72-.271h0Zm3.725,5.483c-.886-.198-1.547-.937-1.647-1.839-.089-1.098,.497-2.141,1.482-2.636,.267-.137,.372-.465,.235-.732s-.465-.372-.732-.235c-.007,.004-.014,.008-.021,.012-1.375,.705-2.183,2.174-2.044,3.712,.148,1.342,1.121,2.447,2.432,2.765,.048,.014,.097,.021,.147,.021,.3,0,.544-.242,.545-.542,0-.244-.162-.459-.397-.525Zm-12.016,3.294c-.968,.009-1.745,.801-1.736,1.769,0,.012,0,.024,0,.036-.004,.427,.142,.841,.411,1.172,.324,.39,.808,.612,1.315,.604,.942-.013,1.695-.787,1.682-1.729,0-.024-.001-.049-.003-.073,.05-.931-.664-1.727-1.595-1.777-.025-.001-.049-.002-.074-.002Zm15.001,.157h0c-.967-.034-1.778,.723-1.812,1.69-.001,.034-.001,.069,0,.103-.062,.988,.688,1.839,1.675,1.902,.027,.002,.054,.003,.08,.003h.042c.979,.011,1.781-.774,1.792-1.754,0-.013,0-.027,0-.041,.056-.994-.705-1.845-1.7-1.901-.027-.001-.054-.002-.08-.003h.002Zm24.43,3.558c0,4.288-1.919,7.558-5.265,8.97-1.076,.452-2.231,.687-3.399,.689-1.301,.024-2.581-.325-3.69-1.007-.043,.133-.078,.265-.124,.403-.1,.293-.376,.491-.686,.491-.093,0-.185-.018-.272-.052-2.129-.822-4.007-2.184-5.45-3.953-.021,.012-.044,.021-.066,.033,.789,1.036,1.013,2.396,.596,3.63-.678,1.577-2.182,2.641-3.894,2.758-.345,.047-.693,.071-1.042,.072-1.283,.087-2.535-.425-3.388-1.388-.555-.72-.787-1.637-.639-2.534-1.803,.203-3.624,.166-5.417-.108,.089,.883-.18,1.765-.745,2.448-.825,.895-2.006,1.375-3.222,1.309-.242,0-.484-.014-.725-.04-2.876-.309-4.086-1.956-4.261-3.396-.14-1.423,.585-2.793,1.84-3.477-2.061-1.832-3.915-4.857-3.605-9.757,.088-1.441,.385-2.862,.881-4.217-6.215-5.202-7.364-12.427-3.594-22.713,.136-.376,.551-.57,.927-.434,.058,.021,.113,.049,.164,.085,5.812,4.007,8.854,9.772,8.477,15.963,.714-.416,1.462-.772,2.236-1.063,5.793-2.226,12.353-.859,16.774,3.497,.283,.283,.545,.572,.805,.86,3.727-1.404,7.906-.884,11.175,1.391,3.666,2.679,5.767,7.001,5.608,11.54ZM11.229,27.497c.907-1.822,2.215-3.415,3.826-4.66v-.036c.751-5.801-1.784-11.3-6.986-15.217-3.076,8.964-2.057,15.325,3.16,19.914Zm7.712,18.215c-1.447-.351-2.829-.928-4.095-1.712-.073-.046-.148-.101-.221-.148-1.034,.282-1.735,1.244-1.685,2.316,.107,.887,.944,1.913,2.977,2.128,.967,.198,1.97-.086,2.689-.762,.396-.519,.521-1.196,.335-1.822Zm13.957-1.474c-1.753,.78-3.594,1.342-5.484,1.674-.232,.618-.144,1.31,.235,1.85,.833,.773,2.004,1.067,3.104,.78,1.178-.044,2.231-.747,2.723-1.818,.271-.872,.05-1.823-.578-2.487Zm1.683-18.986c-4.041-3.91-9.972-5.144-15.236-3.169-4.742,1.683-7.975,6.091-8.155,11.12-.269,4.252,1.263,7.561,4.43,9.564,1.334,.814,2.804,1.379,4.34,1.667-.226-.246-.463-.517-.691-.805-.184-.237-.142-.579,.096-.763,.237-.184,.579-.142,.763,.096,.397,.501,.83,.974,1.294,1.415,.521-.371,1.019-.775,1.49-1.208,.212-.213,.556-.214,.769-.003s.214,.556,.003,.769c-.01,.011-.021,.021-.033,.03-.328,.302-.654,.576-.946,.805,3.735,.129,7.441-.703,10.763-2.416-2.277-3.71-2.606-8.769-.781-14.598,.12-.382,.526-.595,.909-.476s.595,.526,.476,.909c-1.257,4.019-3.165,13.623,5.514,17.665,2.447-7.897,.764-14.825-5.004-20.601Zm17.165,12.766c.155-4.063-1.713-7.938-4.987-10.349-2.719-1.886-6.161-2.399-9.312-1.386,2.714,3.218,4.339,7.212,4.643,11.41,1.154-.876,2.563-1.352,4.012-1.357,.398-.002,.725,.314,.737,.712,.007,.4-.311,.731-.712,.738,0,0,0,0,0,0-1.538-.031-3.002,.662-3.952,1.873-.017,.023-.044,.032-.063,.052-.065,1.856-.345,3.699-.835,5.491,1.812,1.199,4.117,1.371,6.087,.453,1.636-.692,4.38-2.603,4.38-7.636Z" style="fill:none;"/></clipPath><linearGradient id="grad" x1="12.53" y1="-194.464" x2="45.536" y2="-137.295" gradientTransform="translate(0 -138) scale(1 -1)" gradientUnits="userSpaceOnUse"><stop offset="0" stop-color="#dc6688"/><stop offset=".3" stop-color="#ec9268"/><stop offset=".7" stop-color="#7dcc86"/><stop offset="1" stop-color="#eac63b"/></linearGradient></defs><path d="M56.234,43.162c1.763-3.743,2.766-7.915,2.766-12.327C59,14.181,44.962,.806,28.073,1.897c-4.933,.319-9.541,1.903-13.51,4.421-1.281-1.481-4.101-3.755-5.291-4.208-2.315-.88-5.037,.419-5.874,2.74C.762,12.046,.308,18.121,2.031,23.2c-.538,1.954-.88,3.985-.99,6.073-.732,13.953,8.406,25.891,21.054,29.467,1.186,.335,2.147,1.205,2.579,2.359l3.607,7.354c.72,1.397,2.717,1.397,3.437,0l3.607-7.355c.433-1.153,1.392-2.024,2.577-2.359,6.479-1.831,12.019-5.871,15.801-11.237,1.102-1.231,1.96-2.693,2.529-4.341Z" style="fill:#fafafd; stroke:#dadcde; stroke-miterlimit:10;"/><g style="clip-path:url(#clippath);"><rect x="4.87" y="3.717" width="48.325" height="48.325" style="fill:url(#grad);"/></g></svg>