<svg xmlns="http://www.w3.org/2000/svg" width="960" height="400" viewBox="0 0 960 400"><defs><style>.cls-1{stroke-dasharray:0 0 0 6.265;}.cls-1,.cls-2,.cls-3,.cls-4,.cls-5,.cls-6,.cls-7,.cls-8,.cls-9,.cls-10,.cls-11,.cls-12,.cls-13,.cls-14,.cls-15{stroke-linecap:round;stroke-linejoin:round;}.cls-1,.cls-2,.cls-5,.cls-6,.cls-7,.cls-9,.cls-11,.cls-12,.cls-13,.cls-14,.cls-15{fill:none;}.cls-1,.cls-2,.cls-7,.cls-9,.cls-10,.cls-11,.cls-12,.cls-13,.cls-14,.cls-15{stroke-width:3px;}.cls-1,.cls-2,.cls-7,.cls-9,.cls-11,.cls-12,.cls-13,.cls-14{stroke:#373039;}.cls-2{stroke-dasharray:0 0 0 6.545;}.cls-3{stroke-width:2.4px;}.cls-3,.cls-8{fill:#86c0de;stroke:#86c0de;}.cls-16{fill:#92939c;}.cls-17{fill:#373039;}.cls-4,.cls-5,.cls-6,.cls-10,.cls-15{stroke:#92939c;}.cls-4,.cls-6{stroke-width:2.4px;}.cls-4,.cls-10{fill:#eeeff1;}.cls-5{stroke-width:2px;}.cls-7{stroke-dasharray:0 0 0 6.333;}.cls-8{stroke-width:3px;}.cls-9{stroke-dasharray:0 0 0 6.303;}.cls-11{stroke-dasharray:0 0 0 6.27;}.cls-12{stroke-dasharray:0 0 0 6.667;}.cls-13{stroke-dasharray:0 0 0 6;}</style></defs><g><g id="category"><path class="cls-8" d="M42.96,141l2.5-7.5h12.5l2.5,7.5h22.5v27.5H42.96v-27.5Z"/></g><g><path class="cls-17" d="M47.747,187.337c-.017-.048-.049-.063-.064-.063-.032,0-.064,.016-.08,.047-.528,.689-1.536,1.089-2.497,1.089-1.713,0-2.737-1.232-2.737-2.417,0-.832,.496-1.633,1.601-2,1.073-.353,2.417-.641,2.817-.689,.272-.031,.272-.271,.272-.512,0-1.041-.864-1.185-1.297-1.185-.769,0-1.36,.353-1.681,.704-.16,.176-.336,.256-.512,.256-.353,0-.673-.287-.673-.64,0-.753,1.345-1.521,2.945-1.521,1.681,0,2.642,.801,2.642,2.625,0,.176-.017,.368-.032,.561-.032,.336-.08,.96-.08,1.456,0,.16,0,.304,.016,.433,.112,1.152,.624,1.264,.881,1.44,.16,.112,.224,.272,.224,.448,0,.368-.32,.816-.736,.816-.448,0-.849-.513-1.008-.849Zm-.865-2.865c-2.864,.384-3.201,.944-3.201,1.536,0,.561,.513,1.121,1.409,1.121,1.345,0,2.017-.736,2.017-2.129,0-.465-.112-.528-.208-.528h-.017Z"/><path class="cls-17" d="M53.17,188.394c-1.937,0-2.722-1.057-2.722-1.553,0-.4,.353-.688,.705-.688,.208,0,.416,.096,.56,.305,.272,.367,.833,.656,1.457,.656,.48,0,1.296-.24,1.296-.945,0-.352-.239-.736-.752-1.008-.448-.24-1.04-.561-1.568-.784-.961-.417-1.409-1.185-1.409-1.937,0-1.025,.849-2.018,2.369-2.018,1.553,0,2.386,.769,2.386,1.265,0,.368-.32,.688-.688,.688-.192,0-.385-.08-.576-.288-.192-.208-.545-.433-1.137-.433-.641,0-.992,.353-.992,.752,0,.305,.208,.625,.624,.833,.432,.208,1.152,.513,1.633,.769,1.072,.561,1.536,1.36,1.536,2.129,0,1.057-.928,2.257-2.721,2.257Z"/><path class="cls-17" d="M59.874,188.394c-1.937,0-2.722-1.057-2.722-1.553,0-.4,.353-.688,.705-.688,.208,0,.416,.096,.56,.305,.272,.367,.833,.656,1.457,.656,.48,0,1.297-.24,1.297-.945,0-.352-.24-.736-.753-1.008-.448-.24-1.04-.561-1.568-.784-.961-.417-1.409-1.185-1.409-1.937,0-1.025,.849-2.018,2.369-2.018,1.553,0,2.385,.769,2.385,1.265,0,.368-.319,.688-.688,.688-.192,0-.385-.08-.576-.288-.192-.208-.545-.433-1.137-.433-.641,0-.992,.353-.992,.752,0,.305,.208,.625,.624,.833,.432,.208,1.152,.513,1.633,.769,1.072,.561,1.536,1.36,1.536,2.129,0,1.057-.928,2.257-2.721,2.257Z"/><path class="cls-17" d="M67.811,188.409c-2.129,0-3.762-1.601-3.762-3.954,0-2.416,1.713-4.049,3.714-4.049,2.129,0,3.361,1.617,3.361,2.785,0,.704-.448,1.248-1.393,1.28-.353,.017-.881,.017-1.425,.017-1.104,0-2.337-.017-2.689-.017-.128,0-.144,.112-.144,.304,0,1.473,1.088,2.354,2.353,2.354,1.057,0,1.697-.496,2.161-1.008,.145-.16,.304-.225,.464-.225,.368,0,.721,.336,.721,.721,0,.16-.064,.319-.208,.479-.736,.769-1.617,1.312-3.153,1.312Zm-.032-6.803c-1.296,0-2.161,1.137-2.161,1.601,0,.112,.112,.129,1.777,.129,.72,0,1.488,0,1.921-.017,.256-.017,.384-.16,.384-.368,0-.368-.464-1.345-1.921-1.345Z"/><path class="cls-17" d="M75.33,181.863c-.24,0-.24,.063-.24,.191,0,.592-.048,2.064-.048,3.153,0,1.2,.048,1.873,1.057,1.873,.128,0,.256-.017,.384-.032h.096c.385,0,.593,.288,.593,.592,0,.736-.864,.736-1.249,.736-2.257,0-2.257-1.952-2.257-2.656,0-.945,.032-2.674,.032-3.41v-.24c0-.191-.08-.207-.225-.207h-.624c-.416,0-.624-.337-.624-.656s.192-.625,.624-.625h.608c.225,0,.24-.048,.24-.24,0-.031,.032-.512,.032-.977,0-.16,0-.32-.017-.447v-.049c0-.4,.337-.607,.673-.607,.736,0,.736,.592,.736,.88,0,.479-.032,1.2-.032,1.2,0,.225,.048,.24,.224,.24h1.185c.416,0,.625,.32,.625,.641s-.209,.641-.625,.641h-1.168Z"/><path class="cls-17" d="M80.994,188.394c-1.937,0-2.722-1.057-2.722-1.553,0-.4,.353-.688,.705-.688,.208,0,.416,.096,.56,.305,.272,.367,.833,.656,1.457,.656,.48,0,1.296-.24,1.296-.945,0-.352-.239-.736-.752-1.008-.448-.24-1.04-.561-1.568-.784-.961-.417-1.409-1.185-1.409-1.937,0-1.025,.849-2.018,2.369-2.018,1.553,0,2.386,.769,2.386,1.265,0,.368-.32,.688-.688,.688-.192,0-.385-.08-.576-.288-.192-.208-.545-.433-1.137-.433-.641,0-.992,.353-.992,.752,0,.305,.208,.625,.624,.833,.432,.208,1.152,.513,1.633,.769,1.072,.561,1.536,1.36,1.536,2.129,0,1.057-.928,2.257-2.721,2.257Z"/></g></g><g><line class="cls-14" x1="61.901" y1="81" x2="61.901" y2="81"/><line class="cls-12" x1="61.901" y1="87.667" x2="61.901" y2="97.667"/><line class="cls-14" x1="61.901" y1="101" x2="61.901" y2="101"/></g><g><line class="cls-14" x1="61.901" y1="121" x2="61.901" y2="121"/><line class="cls-12" x1="61.901" y1="114.333" x2="61.901" y2="104.333"/><line class="cls-14" x1="61.901" y1="101" x2="61.901" y2="101"/><line class="cls-11" x1="68.171" y1="101" x2="522.766" y2="101"/><line class="cls-14" x1="525.901" y1="101" x2="525.901" y2="101"/></g><g><line class="cls-14" x1="525.901" y1="121" x2="525.901" y2="121"/><line class="cls-12" x1="525.901" y1="114.333" x2="525.901" y2="104.333"/><line class="cls-14" x1="525.901" y1="101" x2="525.901" y2="101"/><line class="cls-9" x1="532.205" y1="101" x2="819.01" y2="101"/><line class="cls-14" x1="822.161" y1="101" x2="822.161" y2="101"/></g><g><line class="cls-14" x1="61.901" y1="201" x2="61.901" y2="201"/><line class="cls-12" x1="61.901" y1="207.667" x2="61.901" y2="217.667"/><line class="cls-14" x1="61.901" y1="221" x2="61.901" y2="221"/></g><g><line class="cls-14" x1="61.901" y1="241" x2="61.901" y2="241"/><line class="cls-12" x1="61.901" y1="234.333" x2="61.901" y2="224.333"/><line class="cls-14" x1="61.901" y1="221" x2="61.901" y2="221"/><line class="cls-7" x1="68.234" y1="221" x2="210.734" y2="221"/><line class="cls-14" x1="213.901" y1="221" x2="213.901" y2="221"/></g><g><g id="category-2"><path class="cls-3" d="M350.959,259.5l2-6h10l2,6h18v22h-32v-22Z"/></g><g><path class="cls-17" d="M356.425,290.553c0-.603,.532-.841,.882-.841,.421,0,.883,.308,.883,.841,0,.49-.378,.896-.883,.896-.363,0-.882-.169-.882-.896Zm1.526,9.146c0,.42-.322,.63-.645,.63s-.644-.21-.644-.63c0-1.177,.014-2.773,.014-4.062,0-.63,0-1.19-.014-1.583-.015-.35,.266-.616,.644-.616,.322,0,.645,.196,.645,.574v.028c-.014,.574-.027,1.709-.027,2.886,0,.98,.014,1.989,.027,2.76v.014Z"/><path class="cls-17" d="M368.428,299.699c.014-.546,.014-1.568,.014-2.451,0-.631,0-1.19-.014-1.429-.057-.911-.547-1.274-1.121-1.274-.784,0-1.695,.7-1.737,1.652-.014,.28-.014,.7-.014,1.232,0,.645,0,1.443,.028,2.27,.014,.42-.322,.63-.603,.63-.294,0-.574-.195-.574-.616v-.014c.014-.546,.014-1.568,.014-2.451,0-.631,0-1.19-.014-1.429-.057-.925-.547-1.303-1.106-1.303-.785,0-1.695,.729-1.737,1.709-.014,.224-.014,.532-.014,.91,0,.7,.014,1.611,.042,2.563,.014,.546-.379,.645-.589,.645-.308,0-.616-.21-.616-.631v-.027c.028-1.415,.057-2.55,.057-3.601,0-.7-.015-1.358-.028-2.045v-.014c0-.378,.294-.574,.603-.574,.28,0,.574,.182,.588,.574l.014,.14c0,.057,0,.07,.015,.07,.014,0,.027-.014,.042-.028,.448-.518,1.12-.798,1.765-.798,.784,0,1.541,.406,1.877,1.261,.547-.854,1.359-1.247,2.144-1.247,1.093,0,2.101,.799,2.143,2.27,.015,.574,.028,2.199,.028,3.291v.673c0,.462-.308,.687-.603,.687-.308,0-.602-.225-.602-.631v-.014Z"/><path class="cls-17" d="M374.612,303.915c-1.919,0-3.319-.854-3.319-2.143,0-.799,.574-1.345,1.261-1.625,.056-.028,.098-.042,.098-.056,0-.028-.056-.042-.154-.07-.518-.154-.798-.589-.798-.994,0-.533,.336-.953,.868-1.247,.112-.056,.168-.084,.168-.112,0-.042-.056-.07-.168-.154-.546-.378-.896-1.078-.896-1.736,0-1.569,1.345-2.367,2.689-2.367h.042c.574,0,1.121,.098,1.611,.35,.084,.042,.153,.07,.224,.07s.126-.014,.196-.056c.393-.225,.658-.322,.994-.322,.532,0,.869,.153,.869,.616,0,.28-.168,.561-.519,.561-.042,0-.084,0-.126-.015-.07-.014-.141-.014-.196-.014-.336,0-.477,.196-.477,.224,0,.028,0,.057,.015,.099,.153,.406,.153,.742,.153,.854,0,1.303-.924,2.213-2.619,2.283-.714,.027-1.639,.252-1.639,.812,0,.294,.336,.364,2.157,.364,.42,0,.883,0,1.358,.098,1.093,.225,1.877,.938,1.877,1.976,0,1.723-1.694,2.604-3.67,2.604Zm1.345-3.6c-.266-.028-.756-.056-1.219-.056-.168,0-.336,0-.49,.014-.882,.056-1.765,.631-1.765,1.373,0,.168,.112,1.19,2.115,1.19,1.737,0,2.438-.742,2.438-1.457,0-.476-.309-.966-1.079-1.064Zm-1.513-5.897c-.784,0-1.597,.477-1.597,1.345,0,1.009,.812,1.303,1.526,1.303,.757,0,1.64-.392,1.64-1.316,0-1.331-1.415-1.331-1.569-1.331Z"/></g></g><g><g id="category-3"><path class="cls-3" d="M198.959,259.5l2-6h10l2,6h18v22h-32v-22Z"/></g><g><path class="cls-17" d="M212.714,294.082c-.015,.463-.015,1.135-.015,1.835,0,1.387,.015,2.857,.015,2.857v1.766c-.057,2.283-1.863,3.235-2.731,3.235-.379,0-.589-.322-.589-.616,0-.267,.154-.519,.477-.561,.882-.14,1.568-.98,1.61-2.199,.015-.224,.015-.406,.015-.546,0-.448-.028-.631-.028-1.121,0,0-.028-2.213-.028-3.866v-.77c0-.421,.322-.631,.631-.631,.322,0,.645,.21,.645,.603v.014Zm-1.541-3.529c0-.603,.519-.841,.868-.841,.448,0,.883,.351,.883,.841,0,.434-.322,.896-.869,.896-.406,0-.882-.225-.882-.896Z"/><path class="cls-17" d="M216.871,300.372c-1.694,0-2.381-.925-2.381-1.359,0-.35,.308-.603,.616-.603,.182,0,.364,.084,.49,.267,.238,.322,.729,.574,1.274,.574,.42,0,1.135-.21,1.135-.826,0-.309-.21-.645-.658-.883-.393-.21-.91-.49-1.373-.687-.84-.364-1.232-1.036-1.232-1.694,0-.896,.742-1.766,2.073-1.766,1.358,0,2.087,.673,2.087,1.106,0,.322-.28,.603-.603,.603-.168,0-.336-.069-.504-.252-.168-.182-.477-.378-.995-.378-.56,0-.868,.308-.868,.658,0,.266,.183,.546,.547,.729,.378,.182,1.008,.448,1.429,.672,.938,.49,1.345,1.191,1.345,1.863,0,.925-.812,1.976-2.382,1.976Z"/></g></g><g><line class="cls-14" x1="365.901" y1="241" x2="365.901" y2="241"/><line class="cls-12" x1="365.901" y1="234.333" x2="365.901" y2="224.333"/><line class="cls-14" x1="365.901" y1="221" x2="365.901" y2="221"/><line class="cls-7" x1="359.568" y1="221" x2="217.068" y2="221"/><line class="cls-14" x1="213.901" y1="221" x2="213.901" y2="221"/><line class="cls-12" x1="213.901" y1="227.667" x2="213.901" y2="237.667"/><line class="cls-14" x1="213.901" y1="241" x2="213.901" y2="241"/></g><g><line class="cls-14" x1="365.901" y1="313" x2="365.901" y2="313"/><line class="cls-12" x1="365.901" y1="319.667" x2="365.901" y2="329.667"/><line class="cls-14" x1="365.901" y1="333" x2="365.901" y2="333"/></g><g><line class="cls-14" x1="365.901" y1="353" x2="365.901" y2="353"/><line class="cls-12" x1="365.901" y1="346.333" x2="365.901" y2="336.333"/><line class="cls-14" x1="365.901" y1="333" x2="365.901" y2="333"/><line class="cls-13" x1="371.901" y1="333" x2="416.901" y2="333"/><line class="cls-14" x1="419.901" y1="333" x2="419.901" y2="333"/></g><g><g><path class="cls-17" d="M26.217,57.673c0-.688,.608-.96,1.009-.96,.48,0,1.009,.352,1.009,.96,0,.561-.433,1.024-1.009,1.024-.416,0-1.009-.191-1.009-1.024Zm1.745,10.452c0,.48-.368,.721-.736,.721s-.736-.24-.736-.721c0-1.345,.016-3.169,.016-4.642,0-.721,0-1.36-.016-1.809-.016-.4,.304-.704,.736-.704,.368,0,.736,.224,.736,.656v.031c-.017,.656-.032,1.953-.032,3.298,0,1.12,.016,2.272,.032,3.153v.016Z"/><path class="cls-17" d="M35.947,68.125c.016-.656,.032-1.889,.032-2.881,0-.656-.017-1.2-.032-1.457-.08-1.088-.721-1.536-1.457-1.536-1.024,0-2.225,.864-2.272,2.001-.016,.32-.016,.752-.016,1.296,0,.673,0,1.521,.031,2.577v.017c0,.448-.352,.672-.704,.672s-.72-.224-.72-.672v-.032c.048-1.585,.063-2.833,.063-3.985,0-.833,0-1.617-.032-2.466v-.016c0-.4,.368-.624,.721-.624s.704,.208,.704,.64v.32c0,.048,0,.08,.017,.08,.016,0,.031-.032,.063-.063,.593-.688,1.473-1.024,2.321-1.024,1.345,0,2.625,.864,2.688,2.625,.017,.512,.032,1.664,.032,2.753,0,.672,0,1.312-.016,1.745-.017,.496-.368,.72-.721,.72s-.704-.24-.704-.672v-.017Z"/><path class="cls-17" d="M46.747,68.766c-.208,0-.64-.096-.864-1.104-.031-.112-.048-.16-.063-.16-.017,0-.048,.048-.097,.096-.64,.801-1.568,1.249-2.608,1.249-2.161,0-3.81-1.568-3.81-3.954,0-2.305,1.633-3.938,3.81-3.938,.928,0,1.761,.368,2.337,.977,.048,.048,.08,.064,.096,.064,.032,0,.048-.032,.048-.145,0-1.873-.032-3.682-.048-4.354-.016-.608,.48-.721,.721-.721,.352,0,.704,.225,.704,.705v.063c-.032,.544-.048,1.696-.048,3.058,0,5.954,0,6.034,.512,7.026,.064,.128,.097,.256,.097,.385,0,.432-.4,.752-.785,.752Zm-1.168-3.874c0-1.648-1.072-2.688-2.433-2.688-1.393,0-2.449,1.024-2.449,2.688,0,1.649,1.072,2.674,2.449,2.674,1.36,0,2.433-1.041,2.433-2.674Z"/><path class="cls-17" d="M52.938,68.909c-2.129,0-3.762-1.601-3.762-3.953,0-2.417,1.713-4.05,3.714-4.05,2.129,0,3.361,1.617,3.361,2.785,0,.704-.448,1.249-1.393,1.28-.353,.017-.881,.017-1.425,.017-1.104,0-2.337-.017-2.689-.017-.128,0-.144,.112-.144,.305,0,1.473,1.088,2.353,2.353,2.353,1.057,0,1.697-.496,2.161-1.008,.145-.16,.304-.225,.464-.225,.368,0,.721,.336,.721,.721,0,.16-.064,.319-.208,.479-.736,.769-1.617,1.312-3.153,1.312Zm-.032-6.803c-1.296,0-2.161,1.137-2.161,1.601,0,.112,.112,.129,1.777,.129,.72,0,1.488,0,1.921-.017,.256-.016,.384-.16,.384-.368,0-.368-.464-1.345-1.921-1.345Z"/><path class="cls-17" d="M63.643,68.621c-.176,0-.367-.08-.512-.256-1.36-1.681-2.177-2.705-2.225-2.705-.032,0-.064,.017-.097,.064-.607,.736-1.889,2.353-2.129,2.641-.144,.192-.336,.256-.512,.256-.384,0-.752-.336-.752-.72,0-.145,.048-.288,.159-.433,.593-.688,1.537-1.744,2.369-2.737,.032-.048,.064-.096,.064-.128,0-.031-.017-.063-.048-.096-.721-.88-1.489-1.776-2.001-2.337-.128-.128-.176-.288-.176-.416,0-.385,.384-.736,.768-.736,.16,0,.336,.08,.48,.256q1.825,2.289,1.873,2.289c.031,0,.048-.016,.063-.032,.656-.8,1.345-1.681,1.761-2.241,.145-.176,.32-.256,.496-.256,.385,0,.753,.353,.753,.736,0,.145-.048,.288-.16,.416-.032,.049-2.017,2.337-2.017,2.434,0,.032,.016,.048,.048,.096,.832,.977,1.776,2.017,2.385,2.737,.112,.144,.16,.288,.16,.432,0,.4-.368,.736-.753,.736Z"/><path class="cls-17" d="M65.913,67.789c0-.688,.608-.977,1.009-.977,.432,0,1.008,.4,1.008,.977,0,.656-.608,1.024-1.008,1.024-.993,0-1.009-.896-1.009-1.024Z"/><path class="cls-17" d="M75.547,68.125c.016-.656,.032-1.872,.032-2.865,0-.64-.017-1.185-.032-1.44-.08-1.168-.801-1.648-1.601-1.648-.992,0-2.081,.752-2.129,1.841-.016,.32-.016,.8-.016,1.393,0,.752,0,1.665,.031,2.721v.017c0,.448-.352,.672-.704,.672s-.72-.224-.72-.672v-.032c.048-1.617,.063-4.354,.063-6.739,0-1.648-.016-3.137-.016-3.953,0-.4,.368-.624,.736-.624,.352,0,.688,.208,.688,.64,0,1.201-.017,3.762-.032,4.242,0,.048,0,.096,.016,.096,.017,0,.032-.016,.08-.063,.528-.496,1.377-.801,2.241-.801,1.345,0,2.705,.752,2.769,2.689,.017,.512,.032,1.664,.032,2.737,0,.672,0,1.312-.016,1.744-.017,.496-.368,.736-.721,.736s-.704-.24-.704-.672v-.017Z"/><path class="cls-17" d="M81.609,62.363c-.24,0-.24,.063-.24,.191,0,.593-.048,2.065-.048,3.153,0,1.201,.048,1.873,1.057,1.873,.128,0,.256-.016,.384-.032h.096c.385,0,.593,.288,.593,.593,0,.736-.864,.736-1.249,.736-2.257,0-2.257-1.953-2.257-2.657,0-.944,.032-2.673,.032-3.409v-.24c0-.192-.08-.208-.225-.208h-.624c-.416,0-.624-.337-.624-.656s.192-.625,.624-.625h.608c.225,0,.24-.048,.24-.239,0-.032,.032-.513,.032-.977,0-.16,0-.32-.017-.448v-.048c0-.4,.337-.608,.673-.608,.736,0,.736,.592,.736,.88,0,.48-.032,1.201-.032,1.201,0,.224,.048,.239,.224,.239h1.185c.416,0,.625,.32,.625,.641s-.209,.641-.625,.641h-1.168Z"/><path class="cls-17" d="M94.46,68.125c.017-.624,.017-1.792,.017-2.801,0-.721,0-1.36-.017-1.633-.063-1.04-.624-1.456-1.28-1.456-.896,0-1.937,.8-1.984,1.889-.017,.319-.017,.8-.017,1.408,0,.736,0,1.648,.032,2.593,.016,.48-.368,.721-.688,.721-.336,0-.656-.225-.656-.704v-.017c.017-.624,.017-1.792,.017-2.801,0-.721,0-1.36-.017-1.633-.063-1.057-.624-1.488-1.265-1.488-.896,0-1.937,.832-1.984,1.952-.017,.257-.017,.608-.017,1.041,0,.8,.017,1.841,.049,2.929,.016,.625-.433,.736-.673,.736-.352,0-.704-.24-.704-.72v-.032c.032-1.617,.064-2.913,.064-4.113,0-.801-.017-1.553-.032-2.338v-.016c0-.432,.336-.656,.688-.656,.319,0,.656,.208,.672,.656l.016,.16c0,.064,0,.08,.017,.08,.016,0,.032-.016,.048-.032,.512-.592,1.28-.912,2.017-.912,.896,0,1.761,.464,2.146,1.44,.624-.977,1.552-1.425,2.448-1.425,1.249,0,2.401,.913,2.449,2.594,.016,.656,.032,2.513,.032,3.761v.769c0,.528-.353,.784-.688,.784-.353,0-.688-.256-.688-.72v-.017Z"/><path class="cls-17" d="M98.536,68.014c.032-1.137,.032-3.426,.032-5.587s0-4.21-.032-4.866c-.016-.544,.4-.784,.753-.784,.367,0,.735,.24,.735,.721v.032c-.016,.768-.031,3.201-.031,5.666,0,1.793,0,3.617,.031,4.818,.017,.576-.464,.752-.735,.752-.385,0-.753-.24-.753-.736v-.016Z"/></g><g><polygon class="cls-10" points="47.248 8.5 47.248 48.5 79.248 48.5 79.248 21.403 65.915 8.5 47.248 8.5"/><polyline class="cls-15" points="65.915 8.5 65.915 21.403 79.248 21.403"/></g></g><g><g id="category-4"><path class="cls-3" d="M46.959,259.5l2-6h10l2,6h18v22H46.959v-22Z"/></g><g><path class="cls-17" d="M57.558,300.357c-2.451,0-3.433-1.877-3.433-3.418,0-1.667,1.121-3.571,3.446-3.571,1.442,0,2.451,.826,2.451,1.358,0,.351-.308,.645-.645,.645-.168,0-.35-.084-.504-.267-.322-.392-.841-.588-1.373-.588-1.429,0-2.157,1.232-2.157,2.367,0,1.064,.659,2.283,2.186,2.283,.616,0,1.247-.225,1.583-.687,.14-.196,.322-.28,.504-.28,.351,0,.673,.309,.673,.658,0,.519-1.093,1.499-2.731,1.499Z"/><path class="cls-17" d="M63.633,300.372c-1.694,0-2.381-.925-2.381-1.359,0-.35,.308-.603,.616-.603,.182,0,.364,.084,.49,.267,.238,.322,.729,.574,1.274,.574,.42,0,1.135-.21,1.135-.826,0-.309-.21-.645-.658-.883-.393-.21-.91-.49-1.373-.687-.84-.364-1.232-1.036-1.232-1.694,0-.896,.742-1.766,2.073-1.766,1.358,0,2.087,.673,2.087,1.106,0,.322-.28,.603-.603,.603-.168,0-.336-.069-.504-.252-.168-.182-.477-.378-.995-.378-.56,0-.868,.308-.868,.658,0,.266,.183,.546,.547,.729,.378,.182,1.008,.448,1.429,.672,.938,.49,1.345,1.191,1.345,1.863,0,.925-.812,1.976-2.382,1.976Z"/><path class="cls-17" d="M69.499,300.372c-1.694,0-2.381-.925-2.381-1.359,0-.35,.308-.603,.616-.603,.182,0,.364,.084,.49,.267,.238,.322,.729,.574,1.274,.574,.42,0,1.135-.21,1.135-.826,0-.309-.21-.645-.658-.883-.393-.21-.911-.49-1.373-.687-.84-.364-1.232-1.036-1.232-1.694,0-.896,.742-1.766,2.073-1.766,1.358,0,2.087,.673,2.087,1.106,0,.322-.28,.603-.603,.603-.168,0-.336-.069-.504-.252-.168-.182-.477-.378-.995-.378-.56,0-.868,.308-.868,.658,0,.266,.183,.546,.547,.729,.378,.182,1.008,.448,1.429,.672,.938,.49,1.345,1.191,1.345,1.863,0,.925-.812,1.976-2.382,1.976Z"/></g></g><g><g><polygon class="cls-4" points="353.901 363 353.901 393 377.901 393 377.901 372.677 367.901 363 353.901 363"/><polyline class="cls-6" points="367.901 363 367.901 372.677 377.901 372.677"/></g><path class="cls-5" d="M365,376c0,1.657-1.343,3-3,3s-3-1.343-3-3,1.343-3,3-3,3,1.343,3,3Zm3.856,3.5l-3.856,4.5-3-2-4,6h16s-5.144-8.5-5.144-8.5Z"/></g><g><g><polygon class="cls-4" points="657.901 363 657.901 393 681.901 393 681.901 372.677 671.901 363 657.901 363"/><polyline class="cls-6" points="671.901 363 671.901 372.677 681.901 372.677"/></g><path class="cls-5" d="M669,376c0,1.657-1.343,3-3,3s-3-1.343-3-3,1.343-3,3-3,3,1.343,3,3Zm3.856,3.5l-3.856,4.5-3-2-4,6h16s-5.144-8.5-5.144-8.5Z"/></g><g><g><polygon class="cls-4" points="711.901 363 711.901 393 735.901 393 735.901 372.677 725.901 363 711.901 363"/><polyline class="cls-6" points="725.901 363 725.901 372.677 735.901 372.677"/></g><path class="cls-5" d="M723,376c0,1.657-1.343,3-3,3s-3-1.343-3-3,1.343-3,3-3,3,1.343,3,3Zm3.856,3.5l-3.856,4.5-3-2-4,6h16s-5.144-8.5-5.144-8.5Z"/></g><g><g><polygon class="cls-4" points="407.901 363 407.901 393 431.901 393 431.901 372.677 421.901 363 407.901 363"/><polyline class="cls-6" points="421.901 363 421.901 372.677 431.901 372.677"/></g><path class="cls-5" d="M419,376c0,1.657-1.343,3-3,3s-3-1.343-3-3,1.343-3,3-3,3,1.343,3,3Zm3.856,3.5l-3.856,4.5-3-2-4,6h16s-5.144-8.5-5.144-8.5Z"/></g><g><line class="cls-14" x1="419.901" y1="353" x2="419.901" y2="353"/><line class="cls-12" x1="419.901" y1="346.333" x2="419.901" y2="336.333"/><line class="cls-14" x1="419.901" y1="333" x2="419.901" y2="333"/><line class="cls-13" x1="425.901" y1="333" x2="470.901" y2="333"/><line class="cls-14" x1="473.901" y1="333" x2="473.901" y2="333"/></g><path class="cls-16" d="M457.901,378.5c0,1.105-.895,2-2,2s-2-.895-2-2,.895-2,2-2,2,.895,2,2Zm6-2c-1.105,0-2,.895-2,2s.895,2,2,2,2-.895,2-2-.895-2-2-2Zm8,0c-1.105,0-2,.895-2,2s.895,2,2,2,2-.895,2-2-.895-2-2-2Z"/><g><line class="cls-14" x1="213.901" y1="313" x2="213.901" y2="313"/><line class="cls-12" x1="213.901" y1="319.667" x2="213.901" y2="329.667"/><line class="cls-14" x1="213.901" y1="333" x2="213.901" y2="333"/></g><g><line class="cls-14" x1="213.901" y1="353" x2="213.901" y2="353"/><line class="cls-12" x1="213.901" y1="346.333" x2="213.901" y2="336.333"/><line class="cls-14" x1="213.901" y1="333" x2="213.901" y2="333"/><line class="cls-13" x1="219.901" y1="333" x2="264.901" y2="333"/><line class="cls-14" x1="267.901" y1="333" x2="267.901" y2="333"/></g><g><g><polygon class="cls-4" points="201.901 363 201.901 393 225.901 393 225.901 372.677 215.901 363 201.901 363"/><polyline class="cls-6" points="215.901 363 215.901 372.677 225.901 372.677"/></g><path class="cls-5" d="M215.191,385h1.806c.998,0,1.806-.784,1.806-1.75v-.5c0-.966-.809-1.75-1.806-1.75h0c-.998,0-1.806-.784-1.806-1.75v-.5c0-.966,.809-1.75,1.806-1.75h1.806m-10.806,8h1.806c.998,0,1.806-.784,1.806-1.75v-6.25s-1.806,0-1.806,0"/></g><g><g><polygon class="cls-4" points="255.901 363 255.901 393 279.901 393 279.901 372.677 269.901 363 255.901 363"/><polyline class="cls-6" points="269.901 363 269.901 372.677 279.901 372.677"/></g><path class="cls-5" d="M269.191,385h1.806c.998,0,1.806-.784,1.806-1.75v-.5c0-.966-.809-1.75-1.806-1.75h0c-.998,0-1.806-.784-1.806-1.75v-.5c0-.966,.809-1.75,1.806-1.75h1.806m-10.806,8h1.806c.998,0,1.806-.784,1.806-1.75v-6.25s-1.806,0-1.806,0"/></g><g><line class="cls-14" x1="267.901" y1="353" x2="267.901" y2="353"/><line class="cls-12" x1="267.901" y1="346.333" x2="267.901" y2="336.333"/><line class="cls-14" x1="267.901" y1="333" x2="267.901" y2="333"/><line class="cls-13" x1="273.901" y1="333" x2="318.901" y2="333"/><line class="cls-14" x1="321.901" y1="333" x2="321.901" y2="333"/></g><path class="cls-16" d="M305.901,378.5c0,1.105-.895,2-2,2s-2-.895-2-2,.895-2,2-2,2,.895,2,2Zm6-2c-1.105,0-2,.895-2,2s.895,2,2,2,2-.895,2-2-.895-2-2-2Zm8,0c-1.105,0-2,.895-2,2s.895,2,2,2,2-.895,2-2-.895-2-2-2Z"/><g><line class="cls-14" x1="61.901" y1="313" x2="61.901" y2="313"/><line class="cls-12" x1="61.901" y1="319.667" x2="61.901" y2="329.667"/><line class="cls-14" x1="61.901" y1="333" x2="61.901" y2="333"/></g><g><line class="cls-14" x1="61.901" y1="353" x2="61.901" y2="353"/><line class="cls-12" x1="61.901" y1="346.333" x2="61.901" y2="336.333"/><line class="cls-14" x1="61.901" y1="333" x2="61.901" y2="333"/><line class="cls-13" x1="67.901" y1="333" x2="112.901" y2="333"/><line class="cls-14" x1="115.901" y1="333" x2="115.901" y2="333"/></g><g><g><polygon class="cls-4" points="49.901 363 49.901 393 73.901 393 73.901 372.677 63.901 363 49.901 363"/><polyline class="cls-6" points="63.901 363 63.901 372.677 73.901 372.677"/></g><path class="cls-5" d="M60.095,385h1.806c.998,0,1.806-.784,1.806-1.75v-.5c0-.966-.809-1.75-1.806-1.75h0c-.998,0-1.806-.784-1.806-1.75v-.5c0-.966,.809-1.75,1.806-1.75h1.806m6.194,0h-1.806c-.998,0-1.806,.784-1.806,1.75v.5c0,.966,.809,1.75,1.806,1.75h0c.998,0,1.806,.784,1.806,1.75v.5c0,.966-.809,1.75-1.806,1.75h-1.806m-8.774-8h-1.806c-.998,0-1.806,.784-1.806,1.75v4.5c0,.966,.809,1.75,1.806,1.75h1.806"/></g><g><g><polygon class="cls-4" points="585.901 343 585.901 373 609.901 373 609.901 352.677 599.901 343 585.901 343"/><polyline class="cls-6" points="599.901 343 599.901 352.677 609.901 352.677"/></g><path class="cls-5" d="M596.095,365h1.806c.998,0,1.806-.784,1.806-1.75v-.5c0-.966-.809-1.75-1.806-1.75h0c-.998,0-1.806-.784-1.806-1.75v-.5c0-.966,.809-1.75,1.806-1.75h1.806m6.194,0h-1.806c-.998,0-1.806,.784-1.806,1.75v.5c0,.966,.809,1.75,1.806,1.75h0c.998,0,1.806,.784,1.806,1.75v.5c0,.966-.809,1.75-1.806,1.75h-1.806m-8.774-8h-1.806c-.998,0-1.806,.784-1.806,1.75v4.5c0,.966,.809,1.75,1.806,1.75h1.806"/></g><g><line class="cls-14" x1="115.901" y1="353" x2="115.901" y2="353"/><line class="cls-12" x1="115.901" y1="346.333" x2="115.901" y2="336.333"/><line class="cls-14" x1="115.901" y1="333" x2="115.901" y2="333"/><line class="cls-13" x1="121.901" y1="333" x2="166.901" y2="333"/><line class="cls-14" x1="169.901" y1="333" x2="169.901" y2="333"/></g><g><g><polygon class="cls-4" points="103.901 363 103.901 393 127.901 393 127.901 372.677 117.901 363 103.901 363"/><polyline class="cls-6" points="117.901 363 117.901 372.677 127.901 372.677"/></g><path class="cls-5" d="M114.095,385h1.806c.998,0,1.806-.784,1.806-1.75v-.5c0-.966-.809-1.75-1.806-1.75h0c-.998,0-1.806-.784-1.806-1.75v-.5c0-.966,.809-1.75,1.806-1.75h1.806m6.194,0h-1.806c-.998,0-1.806,.784-1.806,1.75v.5c0,.966,.809,1.75,1.806,1.75h0c.998,0,1.806,.784,1.806,1.75v.5c0,.966-.809,1.75-1.806,1.75h-1.806m-8.774-8h-1.806c-.998,0-1.806,.784-1.806,1.75v4.5c0,.966,.809,1.75,1.806,1.75h1.806"/></g><path class="cls-16" d="M153.901,378.5c0,1.105-.895,2-2,2s-2-.895-2-2,.895-2,2-2,2,.895,2,2Zm6-2c-1.105,0-2,.895-2,2s.895,2,2,2,2-.895,2-2-.895-2-2-2Zm8,0c-1.105,0-2,.895-2,2s.895,2,2,2,2-.895,2-2-.895-2-2-2Z"/><g><g id="category-5"><path class="cls-8" d="M506.96,141l2.5-7.5h12.5l2.5,7.5h22.5v27.5h-40v-27.5Z"/></g><g><path class="cls-17" d="M511.972,187.337c-.017-.048-.049-.063-.064-.063-.032,0-.064,.016-.08,.047-.528,.689-1.536,1.089-2.497,1.089-1.713,0-2.737-1.232-2.737-2.417,0-.832,.496-1.633,1.601-2,1.073-.353,2.417-.641,2.817-.689,.272-.031,.272-.271,.272-.512,0-1.041-.864-1.185-1.297-1.185-.769,0-1.36,.353-1.681,.704-.16,.176-.336,.256-.512,.256-.353,0-.673-.287-.673-.64,0-.753,1.345-1.521,2.945-1.521,1.681,0,2.642,.801,2.642,2.625,0,.176-.017,.368-.032,.561-.032,.336-.08,.96-.08,1.456,0,.16,0,.304,.016,.433,.112,1.152,.624,1.264,.881,1.44,.16,.112,.224,.272,.224,.448,0,.368-.32,.816-.736,.816-.448,0-.849-.513-1.008-.849Zm-.865-2.865c-2.864,.384-3.201,.944-3.201,1.536,0,.561,.513,1.121,1.409,1.121,1.345,0,2.017-.736,2.017-2.129,0-.465-.112-.528-.208-.528h-.017Z"/><path class="cls-17" d="M517.106,187.434c-.048-.049-.097-.097-.112-.097s-.032,.032-.032,.112c0,.031-.016,.176-.016,.224-.064,.384-.384,.577-.688,.577-.352,0-.704-.24-.704-.736,0-1.617,.048-5.027,.048-7.588,0-1.28-.016-2.337-.048-2.865-.032-.544,.368-.784,.721-.784s.704,.224,.704,.688v.031c-.017,.85-.048,2.514-.048,4.387,0,.08,.016,.111,.031,.111,.032,0,.048-.016,.097-.063,.576-.608,1.393-.977,2.353-.977,2.177,0,3.794,1.633,3.794,3.938,0,2.386-1.633,3.954-3.794,3.954-.896,0-1.696-.32-2.305-.912Zm4.722-3.042c0-1.648-1.089-2.705-2.449-2.705s-2.433,1.057-2.433,2.705c0,1.633,1.072,2.673,2.433,2.673s2.449-1.04,2.449-2.673Z"/><path class="cls-17" d="M524.721,184.408c0-2.305,1.681-3.986,3.922-3.986s3.922,1.682,3.922,3.986c0,2.385-1.681,3.969-3.922,3.969s-3.922-1.584-3.922-3.969Zm6.451,0c0-1.665-1.137-2.722-2.529-2.722s-2.529,1.057-2.529,2.722c0,1.648,1.137,2.688,2.529,2.688s2.529-1.04,2.529-2.688Z"/><path class="cls-17" d="M536.066,181.207c-.017,.656-.032,1.889-.032,2.881,0,.656,.016,1.2,.032,1.457,.08,1.136,.736,1.6,1.488,1.6,.961,0,2.065-.816,2.113-1.937,.016-.496,.031-.977,.031-1.473,0-.849-.031-1.696-.048-2.528-.016-.449,.32-.689,.688-.689s.736,.225,.736,.673v.032c-.048,1.553-.063,2.641-.063,3.777,0,.801,.128,1.504,.447,2.081,.097,.176,.145,.353,.145,.496,0,.416-.353,.704-.721,.704-.096,0-.688-.016-.896-.992-.016-.049-.031-.08-.048-.08-.016,0-.031,.016-.063,.048-.608,.753-1.553,1.137-2.465,1.137-1.361,0-2.674-.864-2.737-2.657-.017-.576-.048-2.018-.048-3.217,0-.496,0-.945,.016-1.281,.016-.496,.368-.721,.721-.721s.704,.24,.704,.673v.017Z"/><path class="cls-17" d="M545.811,181.863c-.24,0-.24,.063-.24,.191,0,.592-.048,2.064-.048,3.153,0,1.2,.048,1.873,1.057,1.873,.128,0,.256-.017,.384-.032h.096c.385,0,.593,.288,.593,.592,0,.736-.864,.736-1.249,.736-2.257,0-2.257-1.952-2.257-2.656,0-.945,.032-2.674,.032-3.41v-.24c0-.191-.08-.207-.225-.207h-.624c-.416,0-.624-.337-.624-.656s.192-.625,.624-.625h.608c.225,0,.24-.048,.24-.24,0-.031,.032-.512,.032-.977,0-.16,0-.32-.017-.447v-.049c0-.4,.337-.607,.673-.607,.736,0,.736,.592,.736,.88,0,.479-.032,1.2-.032,1.2,0,.225,.048,.24,.224,.24h1.185c.416,0,.625,.32,.625,.641s-.209,.641-.625,.641h-1.168Z"/></g></g><g><line class="cls-14" x1="525.901" y1="201" x2="525.901" y2="201"/><line class="cls-12" x1="525.901" y1="207.667" x2="525.901" y2="217.667"/><line class="cls-14" x1="525.901" y1="221" x2="525.901" y2="221"/></g><g><line class="cls-14" x1="525.901" y1="241" x2="525.901" y2="241"/><line class="cls-12" x1="525.901" y1="234.333" x2="525.901" y2="224.333"/><line class="cls-14" x1="525.901" y1="221" x2="525.901" y2="221"/><line class="cls-2" x1="532.447" y1="221" x2="594.628" y2="221"/><line class="cls-14" x1="597.901" y1="221" x2="597.901" y2="221"/></g><g><g id="category-6"><path class="cls-3" d="M654.959,259.5l2-6h10l2,6h18v22h-32v-22Z"/></g><g><path class="cls-17" d="M660.425,290.553c0-.603,.532-.841,.882-.841,.421,0,.883,.308,.883,.841,0,.49-.378,.896-.883,.896-.363,0-.882-.169-.882-.896Zm1.526,9.146c0,.42-.322,.63-.645,.63s-.644-.21-.644-.63c0-1.177,.014-2.773,.014-4.062,0-.63,0-1.19-.014-1.583-.015-.35,.266-.616,.644-.616,.322,0,.645,.196,.645,.574v.028c-.014,.574-.027,1.709-.027,2.886,0,.98,.014,1.989,.027,2.76v.014Z"/><path class="cls-17" d="M672.428,299.699c.014-.546,.014-1.568,.014-2.451,0-.631,0-1.19-.014-1.429-.057-.911-.547-1.274-1.121-1.274-.784,0-1.695,.7-1.737,1.652-.014,.28-.014,.7-.014,1.232,0,.645,0,1.443,.028,2.27,.014,.42-.322,.63-.603,.63-.294,0-.574-.195-.574-.616v-.014c.014-.546,.014-1.568,.014-2.451,0-.631,0-1.19-.014-1.429-.057-.925-.547-1.303-1.106-1.303-.785,0-1.695,.729-1.737,1.709-.014,.224-.014,.532-.014,.91,0,.7,.014,1.611,.042,2.563,.014,.546-.379,.645-.589,.645-.308,0-.616-.21-.616-.631v-.027c.028-1.415,.057-2.55,.057-3.601,0-.7-.015-1.358-.028-2.045v-.014c0-.378,.294-.574,.603-.574,.28,0,.574,.182,.588,.574l.014,.14c0,.057,0,.07,.015,.07,.014,0,.027-.014,.042-.028,.448-.518,1.12-.798,1.765-.798,.784,0,1.541,.406,1.877,1.261,.547-.854,1.359-1.247,2.144-1.247,1.093,0,2.101,.799,2.143,2.27,.015,.574,.028,2.199,.028,3.291v.673c0,.462-.308,.687-.603,.687-.308,0-.602-.225-.602-.631v-.014Z"/><path class="cls-17" d="M678.612,303.915c-1.919,0-3.319-.854-3.319-2.143,0-.799,.574-1.345,1.261-1.625,.056-.028,.098-.042,.098-.056,0-.028-.056-.042-.154-.07-.518-.154-.798-.589-.798-.994,0-.533,.336-.953,.868-1.247,.112-.056,.168-.084,.168-.112,0-.042-.056-.07-.168-.154-.546-.378-.896-1.078-.896-1.736,0-1.569,1.345-2.367,2.689-2.367h.042c.574,0,1.121,.098,1.611,.35,.084,.042,.153,.07,.224,.07s.126-.014,.196-.056c.393-.225,.658-.322,.994-.322,.532,0,.869,.153,.869,.616,0,.28-.168,.561-.519,.561-.042,0-.084,0-.126-.015-.07-.014-.141-.014-.196-.014-.336,0-.477,.196-.477,.224,0,.028,0,.057,.015,.099,.153,.406,.153,.742,.153,.854,0,1.303-.924,2.213-2.619,2.283-.714,.027-1.639,.252-1.639,.812,0,.294,.336,.364,2.157,.364,.42,0,.883,0,1.358,.098,1.093,.225,1.877,.938,1.877,1.976,0,1.723-1.694,2.604-3.67,2.604Zm1.345-3.6c-.266-.028-.756-.056-1.219-.056-.168,0-.336,0-.49,.014-.882,.056-1.765,.631-1.765,1.373,0,.168,.112,1.19,2.115,1.19,1.737,0,2.438-.742,2.438-1.457,0-.476-.309-.966-1.079-1.064Zm-1.513-5.897c-.784,0-1.597,.477-1.597,1.345,0,1.009,.812,1.303,1.526,1.303,.757,0,1.64-.392,1.64-1.316,0-1.331-1.415-1.331-1.569-1.331Z"/></g></g><g><g id="category-7"><path class="cls-3" d="M582.959,259.5l2-6h10l2,6h18v22h-32v-22Z"/></g><g><path class="cls-17" d="M593.558,300.357c-2.451,0-3.433-1.877-3.433-3.418,0-1.667,1.121-3.571,3.446-3.571,1.442,0,2.451,.826,2.451,1.358,0,.351-.308,.645-.645,.645-.168,0-.35-.084-.504-.267-.322-.392-.841-.588-1.373-.588-1.429,0-2.157,1.232-2.157,2.367,0,1.064,.659,2.283,2.186,2.283,.616,0,1.247-.225,1.583-.687,.14-.196,.322-.28,.504-.28,.351,0,.673,.309,.673,.658,0,.519-1.093,1.499-2.731,1.499Z"/><path class="cls-17" d="M599.633,300.372c-1.694,0-2.381-.925-2.381-1.359,0-.35,.308-.603,.616-.603,.182,0,.364,.084,.49,.267,.238,.322,.729,.574,1.274,.574,.42,0,1.135-.21,1.135-.826,0-.309-.21-.645-.658-.883-.393-.21-.91-.49-1.373-.687-.84-.364-1.232-1.036-1.232-1.694,0-.896,.742-1.766,2.073-1.766,1.358,0,2.087,.673,2.087,1.106,0,.322-.28,.603-.603,.603-.168,0-.336-.069-.504-.252-.168-.182-.477-.378-.995-.378-.56,0-.868,.308-.868,.658,0,.266,.183,.546,.547,.729,.378,.182,1.008,.448,1.429,.672,.938,.49,1.345,1.191,1.345,1.863,0,.925-.812,1.976-2.382,1.976Z"/><path class="cls-17" d="M605.499,300.372c-1.694,0-2.381-.925-2.381-1.359,0-.35,.308-.603,.616-.603,.182,0,.364,.084,.49,.267,.238,.322,.729,.574,1.274,.574,.42,0,1.135-.21,1.135-.826,0-.309-.21-.645-.658-.883-.393-.21-.911-.49-1.373-.687-.84-.364-1.232-1.036-1.232-1.694,0-.896,.742-1.766,2.073-1.766,1.358,0,2.087,.673,2.087,1.106,0,.322-.28,.603-.603,.603-.168,0-.336-.069-.504-.252-.168-.182-.477-.378-.995-.378-.56,0-.868,.308-.868,.658,0,.266,.183,.546,.547,.729,.378,.182,1.008,.448,1.429,.672,.938,.49,1.345,1.191,1.345,1.863,0,.925-.812,1.976-2.382,1.976Z"/></g></g><g><line class="cls-14" x1="669.901" y1="241" x2="669.901" y2="241"/><line class="cls-12" x1="669.901" y1="234.333" x2="669.901" y2="224.333"/><line class="cls-14" x1="669.901" y1="221" x2="669.901" y2="221"/><line class="cls-2" x1="663.356" y1="221" x2="601.174" y2="221"/><line class="cls-14" x1="597.901" y1="221" x2="597.901" y2="221"/><line class="cls-12" x1="597.901" y1="227.667" x2="597.901" y2="237.667"/><line class="cls-14" x1="597.901" y1="241" x2="597.901" y2="241"/></g><g><line class="cls-14" x1="597.901" y1="313" x2="597.901" y2="313"/><line class="cls-12" x1="597.901" y1="319.667" x2="597.901" y2="329.667"/><line class="cls-14" x1="597.901" y1="333" x2="597.901" y2="333"/></g><g><line class="cls-14" x1="669.901" y1="313" x2="669.901" y2="313"/><line class="cls-12" x1="669.901" y1="319.667" x2="669.901" y2="329.667"/><line class="cls-14" x1="669.901" y1="333" x2="669.901" y2="333"/></g><g><line class="cls-14" x1="669.901" y1="353" x2="669.901" y2="353"/><line class="cls-12" x1="669.901" y1="346.333" x2="669.901" y2="336.333"/><line class="cls-14" x1="669.901" y1="333" x2="669.901" y2="333"/><line class="cls-13" x1="675.901" y1="333" x2="720.901" y2="333"/><line class="cls-14" x1="723.901" y1="333" x2="723.901" y2="333"/></g><g><g><path class="cls-17" d="M493.499,290.553c0-.603,.532-.841,.882-.841,.421,0,.883,.308,.883,.841,0,.49-.378,.896-.883,.896-.363,0-.882-.169-.882-.896Zm1.526,9.146c0,.42-.322,.63-.645,.63s-.644-.21-.644-.63c0-1.177,.014-2.773,.014-4.062,0-.63,0-1.19-.014-1.583-.015-.35,.266-.616,.644-.616,.322,0,.645,.196,.645,.574v.028c-.014,.574-.027,1.709-.027,2.886,0,.98,.014,1.989,.027,2.76v.014Z"/><path class="cls-17" d="M502.014,299.699c.014-.574,.028-1.653,.028-2.521,0-.574-.015-1.051-.028-1.274-.07-.953-.631-1.345-1.274-1.345-.896,0-1.947,.756-1.989,1.751-.015,.28-.015,.658-.015,1.135,0,.588,0,1.33,.028,2.255v.014c0,.393-.308,.589-.616,.589s-.63-.196-.63-.589v-.027c.042-1.387,.056-2.479,.056-3.488,0-.729,0-1.415-.028-2.157v-.014c0-.351,.322-.547,.631-.547s.616,.183,.616,.561v.28c0,.042,0,.07,.014,.07,.015,0,.028-.028,.057-.057,.518-.602,1.288-.896,2.03-.896,1.177,0,2.298,.757,2.354,2.298,.014,.448,.028,1.456,.028,2.409,0,.588,0,1.148-.015,1.526-.014,.435-.321,.631-.63,.631s-.616-.21-.616-.589v-.014Z"/><path class="cls-17" d="M511.464,300.26c-.182,0-.56-.084-.756-.967-.028-.098-.042-.14-.057-.14-.014,0-.042,.042-.084,.084-.56,.7-1.372,1.092-2.283,1.092-1.891,0-3.333-1.372-3.333-3.459,0-2.018,1.429-3.446,3.333-3.446,.812,0,1.541,.322,2.046,.854,.042,.042,.069,.056,.084,.056,.027,0,.042-.027,.042-.126,0-1.639-.028-3.222-.042-3.81-.015-.532,.42-.631,.63-.631,.309,0,.616,.196,.616,.616v.057c-.028,.476-.042,1.484-.042,2.675,0,5.211,0,5.281,.448,6.149,.057,.112,.084,.225,.084,.337,0,.378-.35,.658-.687,.658Zm-1.022-3.39c0-1.443-.938-2.354-2.129-2.354-1.219,0-2.144,.896-2.144,2.354,0,1.442,.938,2.339,2.144,2.339,1.19,0,2.129-.91,2.129-2.339Z"/><path class="cls-17" d="M516.881,300.386c-1.863,0-3.292-1.401-3.292-3.46,0-2.115,1.499-3.544,3.25-3.544,1.862,0,2.941,1.415,2.941,2.438,0,.616-.393,1.093-1.219,1.12-.309,.015-.771,.015-1.247,.015-.966,0-2.045-.015-2.353-.015-.112,0-.127,.099-.127,.267,0,1.288,.953,2.059,2.06,2.059,.925,0,1.484-.434,1.891-.882,.126-.141,.267-.196,.406-.196,.322,0,.631,.294,.631,.63,0,.141-.057,.28-.183,.421-.644,.672-1.414,1.148-2.759,1.148Zm-.028-5.953c-1.135,0-1.891,.994-1.891,1.4,0,.099,.098,.112,1.555,.112,.63,0,1.303,0,1.681-.014,.224-.015,.336-.141,.336-.322,0-.322-.406-1.177-1.681-1.177Z"/><path class="cls-17" d="M526.247,300.134c-.154,0-.322-.07-.448-.225-1.19-1.471-1.905-2.367-1.947-2.367-.027,0-.056,.014-.084,.056-.532,.645-1.652,2.06-1.863,2.312-.126,.168-.294,.225-.448,.225-.336,0-.658-.295-.658-.631,0-.126,.042-.252,.141-.378,.518-.603,1.345-1.527,2.073-2.396,.027-.042,.056-.084,.056-.112,0-.027-.014-.056-.042-.084-.631-.771-1.303-1.555-1.751-2.045-.112-.112-.154-.252-.154-.364,0-.336,.336-.645,.673-.645,.14,0,.294,.07,.42,.225q1.597,2.003,1.639,2.003c.028,0,.042-.014,.057-.028,.574-.7,1.176-1.471,1.54-1.961,.126-.154,.28-.224,.435-.224,.336,0,.658,.308,.658,.645,0,.126-.042,.252-.14,.363-.028,.043-1.766,2.046-1.766,2.13,0,.027,.015,.042,.042,.084,.729,.854,1.556,1.765,2.088,2.396,.098,.126,.14,.252,.14,.378,0,.35-.322,.645-.658,.645Z"/><path class="cls-17" d="M528.232,299.405c0-.603,.532-.854,.882-.854,.379,0,.883,.35,.883,.854,0,.574-.532,.896-.883,.896-.868,0-.882-.784-.882-.896Z"/><path class="cls-17" d="M536.663,299.699c.014-.574,.028-1.639,.028-2.508,0-.56-.015-1.036-.028-1.26-.07-1.023-.7-1.443-1.4-1.443-.869,0-1.821,.658-1.863,1.611-.015,.28-.015,.7-.015,1.219,0,.658,0,1.456,.028,2.381v.014c0,.393-.308,.589-.616,.589s-.63-.196-.63-.589v-.027c.042-1.415,.056-3.811,.056-5.897,0-1.442-.014-2.745-.014-3.46,0-.351,.322-.546,.644-.546,.309,0,.603,.182,.603,.56,0,1.051-.014,3.292-.027,3.712,0,.043,0,.085,.014,.085s.028-.015,.07-.057c.462-.434,1.204-.7,1.961-.7,1.177,0,2.367,.658,2.423,2.354,.015,.448,.028,1.456,.028,2.396,0,.588,0,1.148-.014,1.526-.015,.435-.322,.645-.631,.645s-.616-.21-.616-.589v-.014Z"/><path class="cls-17" d="M541.968,294.656c-.211,0-.211,.057-.211,.168,0,.519-.042,1.808-.042,2.76,0,1.051,.042,1.639,.925,1.639,.112,0,.225-.014,.336-.027h.084c.337,0,.519,.252,.519,.518,0,.645-.756,.645-1.093,.645-1.975,0-1.975-1.709-1.975-2.325,0-.826,.028-2.339,.028-2.983v-.21c0-.168-.07-.183-.196-.183h-.547c-.364,0-.546-.294-.546-.574s.168-.546,.546-.546h.532c.196,0,.211-.042,.211-.21,0-.028,.027-.448,.027-.854,0-.141,0-.28-.014-.393v-.042c0-.351,.294-.532,.588-.532,.645,0,.645,.519,.645,.771,0,.42-.028,1.051-.028,1.051,0,.195,.042,.21,.196,.21h1.037c.364,0,.546,.28,.546,.561s-.182,.56-.546,.56h-1.022Z"/><path class="cls-17" d="M553.213,299.699c.014-.546,.014-1.568,.014-2.451,0-.631,0-1.19-.014-1.429-.057-.911-.547-1.274-1.121-1.274-.784,0-1.695,.7-1.737,1.652-.014,.28-.014,.7-.014,1.232,0,.645,0,1.443,.028,2.27,.014,.42-.322,.63-.603,.63-.294,0-.574-.195-.574-.616v-.014c.014-.546,.014-1.568,.014-2.451,0-.631,0-1.19-.014-1.429-.057-.925-.547-1.303-1.106-1.303-.785,0-1.695,.729-1.737,1.709-.014,.224-.014,.532-.014,.91,0,.7,.014,1.611,.042,2.563,.014,.546-.379,.645-.589,.645-.308,0-.616-.21-.616-.631v-.027c.028-1.415,.057-2.55,.057-3.601,0-.7-.015-1.358-.028-2.045v-.014c0-.378,.294-.574,.603-.574,.28,0,.574,.182,.588,.574l.014,.14c0,.057,0,.07,.015,.07,.014,0,.027-.014,.042-.028,.448-.518,1.12-.798,1.765-.798,.784,0,1.541,.406,1.877,1.261,.547-.854,1.359-1.247,2.144-1.247,1.093,0,2.101,.799,2.143,2.27,.015,.574,.028,2.199,.028,3.291v.673c0,.462-.308,.687-.603,.687-.308,0-.602-.225-.602-.631v-.014Z"/><path class="cls-17" d="M556.778,299.602c.028-.995,.028-2.998,.028-4.889s0-3.685-.028-4.259c-.014-.477,.351-.687,.658-.687,.322,0,.645,.21,.645,.631v.027c-.014,.673-.028,2.802-.028,4.959,0,1.569,0,3.166,.028,4.217,.014,.504-.406,.658-.645,.658-.336,0-.658-.21-.658-.645v-.014Z"/></g><g><polygon class="cls-4" points="513.901 252 513.901 282 537.901 282 537.901 261.677 527.901 252 513.901 252"/><polyline class="cls-6" points="527.901 252 527.901 261.677 537.901 261.677"/></g></g><g><line class="cls-14" x1="723.901" y1="353" x2="723.901" y2="353"/><line class="cls-12" x1="723.901" y1="346.333" x2="723.901" y2="336.333"/><line class="cls-14" x1="723.901" y1="333" x2="723.901" y2="333"/><line class="cls-13" x1="729.901" y1="333" x2="774.901" y2="333"/><line class="cls-14" x1="777.901" y1="333" x2="777.901" y2="333"/></g><path class="cls-16" d="M761.901,378.5c0,1.105-.895,2-2,2s-2-.895-2-2,.895-2,2-2,2,.895,2,2Zm6-2c-1.105,0-2,.895-2,2s.895,2,2,2,2-.895,2-2-.895-2-2-2Zm8,0c-1.105,0-2,.895-2,2s.895,2,2,2,2-.895,2-2-.895-2-2-2Z"/><g><line class="cls-14" x1="822.161" y1="121" x2="822.161" y2="121"/><line class="cls-12" x1="822.161" y1="114.333" x2="822.161" y2="104.333"/><line class="cls-14" x1="822.161" y1="101" x2="822.161" y2="101"/><line class="cls-1" x1="828.427" y1="101" x2="956.867" y2="101"/><line class="cls-14" x1="960" y1="101" x2="960" y2="101"/></g><g><g><polygon class="cls-4" points="882.161 343 882.161 373 906.161 373 906.161 352.677 896.161 343 882.161 343"/><polyline class="cls-6" points="896.161 343 896.161 352.677 906.161 352.677"/></g><path class="cls-5" d="M892.355,365h1.806c.998,0,1.806-.784,1.806-1.75v-.5c0-.966-.809-1.75-1.806-1.75h0c-.998,0-1.806-.784-1.806-1.75v-.5c0-.966,.809-1.75,1.806-1.75h1.806m6.194,0h-1.806c-.998,0-1.806,.784-1.806,1.75v.5c0,.966,.809,1.75,1.806,1.75h0c.998,0,1.806,.784,1.806,1.75v.5c0,.966-.809,1.75-1.806,1.75h-1.806m-8.774-8h-1.806c-.998,0-1.806,.784-1.806,1.75v4.5c0,.966,.809,1.75,1.806,1.75h1.806"/></g><g><g id="category-8"><path class="cls-8" d="M803.22,141l2.5-7.5h12.5l2.5,7.5h22.5v27.5h-40v-27.5Z"/></g><g><path class="cls-17" d="M811.848,187.625c.016-.656,.032-1.889,.032-2.881,0-.656-.017-1.201-.032-1.457-.08-1.088-.721-1.537-1.457-1.537-1.024,0-2.225,.865-2.272,2.002-.016,.32-.016,.752-.016,1.296,0,.673,0,1.521,.031,2.577v.016c0,.449-.352,.673-.704,.673s-.72-.224-.72-.673v-.031c.048-1.585,.063-2.834,.063-3.986,0-.832,0-1.616-.032-2.465v-.016c0-.4,.368-.625,.721-.625s.704,.209,.704,.641v.32c0,.048,0,.08,.017,.08,.016,0,.031-.032,.063-.064,.593-.688,1.473-1.023,2.321-1.023,1.345,0,2.625,.863,2.688,2.625,.017,.512,.032,1.664,.032,2.752,0,.673,0,1.312-.016,1.746-.017,.496-.368,.72-.721,.72s-.704-.24-.704-.673v-.016Z"/><path class="cls-17" d="M818.982,188.409c-2.129,0-3.762-1.601-3.762-3.954,0-2.416,1.713-4.049,3.714-4.049,2.129,0,3.361,1.617,3.361,2.785,0,.704-.448,1.248-1.393,1.28-.353,.017-.881,.017-1.425,.017-1.104,0-2.337-.017-2.689-.017-.128,0-.144,.112-.144,.304,0,1.473,1.088,2.354,2.353,2.354,1.057,0,1.697-.496,2.161-1.008,.145-.16,.304-.225,.464-.225,.368,0,.721,.336,.721,.721,0,.16-.064,.319-.208,.479-.736,.769-1.617,1.312-3.153,1.312Zm-.032-6.803c-1.296,0-2.161,1.137-2.161,1.601,0,.112,.112,.129,1.777,.129,.72,0,1.488,0,1.921-.017,.256-.017,.384-.16,.384-.368,0-.368-.464-1.345-1.921-1.345Z"/><path class="cls-17" d="M831,188.281c-.48,0-.945-.336-1.137-1.072-.208-.816-.896-3.713-1.089-5.09-.016-.145-.063-.225-.112-.225-.048,0-.096,.08-.128,.225-.224,1.424-.816,4.018-1.104,5.074-.191,.736-.72,1.104-1.248,1.104s-1.04-.367-1.217-1.104q-1.473-6.035-1.473-6.083c0-.384,.353-.576,.721-.576,.304,0,.592,.144,.672,.464,.305,1.249,.977,4.434,1.201,5.746,.031,.209,.096,.289,.144,.289,.08,0,.145-.112,.176-.289,.257-1.232,.944-4.193,1.185-5.361,.128-.593,.576-.865,1.041-.865,.496,0,.977,.305,1.088,.816,.208,1.009,.961,4.018,1.185,5.363,.032,.207,.08,.271,.128,.271,.064,0,.112-.128,.145-.256,.336-1.328,1.168-4.514,1.408-5.715,.064-.336,.353-.48,.641-.48,.352,0,.72,.209,.72,.576,0,.337-.96,3.986-1.681,6.146-.208,.656-.736,1.041-1.264,1.041Z"/><path class="cls-17" d="M837.718,188.394c-1.937,0-2.722-1.057-2.722-1.553,0-.4,.353-.688,.705-.688,.208,0,.416,.096,.56,.305,.272,.367,.833,.656,1.457,.656,.48,0,1.296-.24,1.296-.945,0-.352-.239-.736-.752-1.008-.448-.24-1.04-.561-1.568-.784-.961-.417-1.409-1.185-1.409-1.937,0-1.025,.849-2.018,2.369-2.018,1.553,0,2.386,.769,2.386,1.265,0,.368-.32,.688-.688,.688-.192,0-.385-.08-.576-.288-.192-.208-.545-.433-1.137-.433-.641,0-.992,.353-.992,.752,0,.305,.208,.625,.624,.833,.432,.208,1.152,.513,1.633,.769,1.072,.561,1.536,1.36,1.536,2.129,0,1.057-.928,2.257-2.721,2.257Z"/></g></g><g><line class="cls-14" x1="822.161" y1="201" x2="822.161" y2="201"/><line class="cls-12" x1="822.161" y1="207.667" x2="822.161" y2="217.667"/><line class="cls-14" x1="822.161" y1="221" x2="822.161" y2="221"/></g><g><g id="category-9"><path class="cls-3" d="M879.219,259.5l2-6h10l2,6h18v22h-32v-22Z"/></g><g><path class="cls-17" d="M889.818,300.357c-2.451,0-3.433-1.877-3.433-3.418,0-1.667,1.121-3.571,3.446-3.571,1.442,0,2.451,.826,2.451,1.358,0,.351-.308,.645-.645,.645-.168,0-.35-.084-.504-.267-.322-.392-.841-.588-1.373-.588-1.429,0-2.157,1.232-2.157,2.367,0,1.064,.659,2.283,2.186,2.283,.616,0,1.247-.225,1.583-.687,.14-.196,.322-.28,.504-.28,.351,0,.673,.309,.673,.658,0,.519-1.093,1.499-2.731,1.499Z"/><path class="cls-17" d="M895.894,300.372c-1.694,0-2.381-.925-2.381-1.359,0-.35,.308-.603,.616-.603,.182,0,.364,.084,.49,.267,.238,.322,.729,.574,1.274,.574,.42,0,1.135-.21,1.135-.826,0-.309-.21-.645-.658-.883-.393-.21-.91-.49-1.373-.687-.84-.364-1.232-1.036-1.232-1.694,0-.896,.742-1.766,2.073-1.766,1.358,0,2.087,.673,2.087,1.106,0,.322-.28,.603-.603,.603-.168,0-.336-.069-.504-.252-.168-.182-.477-.378-.995-.378-.56,0-.868,.308-.868,.658,0,.266,.183,.546,.547,.729,.378,.182,1.008,.448,1.429,.672,.938,.49,1.345,1.191,1.345,1.863,0,.925-.812,1.976-2.382,1.976Z"/><path class="cls-17" d="M901.76,300.372c-1.694,0-2.381-.925-2.381-1.359,0-.35,.308-.603,.616-.603,.182,0,.364,.084,.49,.267,.238,.322,.729,.574,1.274,.574,.42,0,1.135-.21,1.135-.826,0-.309-.21-.645-.658-.883-.393-.21-.911-.49-1.373-.687-.84-.364-1.232-1.036-1.232-1.694,0-.896,.742-1.766,2.073-1.766,1.358,0,2.087,.673,2.087,1.106,0,.322-.28,.603-.603,.603-.168,0-.336-.069-.504-.252-.168-.182-.477-.378-.995-.378-.56,0-.868,.308-.868,.658,0,.266,.183,.546,.547,.729,.378,.182,1.008,.448,1.429,.672,.938,.49,1.345,1.191,1.345,1.863,0,.925-.812,1.976-2.382,1.976Z"/></g></g><g><line class="cls-14" x1="822.161" y1="241" x2="822.161" y2="241"/><line class="cls-12" x1="822.161" y1="234.333" x2="822.161" y2="224.333"/><line class="cls-14" x1="822.161" y1="221" x2="822.161" y2="221"/><line class="cls-2" x1="828.707" y1="221" x2="890.889" y2="221"/><line class="cls-14" x1="894.161" y1="221" x2="894.161" y2="221"/><line class="cls-12" x1="894.161" y1="227.667" x2="894.161" y2="237.667"/><line class="cls-14" x1="894.161" y1="241" x2="894.161" y2="241"/></g><g><line class="cls-14" x1="894.161" y1="313" x2="894.161" y2="313"/><line class="cls-12" x1="894.161" y1="319.667" x2="894.161" y2="329.667"/><line class="cls-14" x1="894.161" y1="333" x2="894.161" y2="333"/></g><g><g><path class="cls-17" d="M789.759,290.553c0-.603,.532-.841,.882-.841,.421,0,.883,.308,.883,.841,0,.49-.378,.896-.883,.896-.363,0-.882-.169-.882-.896Zm1.526,9.146c0,.42-.322,.63-.645,.63s-.644-.21-.644-.63c0-1.177,.014-2.773,.014-4.062,0-.63,0-1.19-.014-1.583-.015-.35,.266-.616,.644-.616,.322,0,.645,.196,.645,.574v.028c-.014,.574-.027,1.709-.027,2.886,0,.98,.014,1.989,.027,2.76v.014Z"/><path class="cls-17" d="M798.273,299.699c.014-.574,.028-1.653,.028-2.521,0-.574-.015-1.051-.028-1.274-.07-.953-.631-1.345-1.274-1.345-.896,0-1.947,.756-1.989,1.751-.015,.28-.015,.658-.015,1.135,0,.588,0,1.33,.028,2.255v.014c0,.393-.308,.589-.616,.589s-.63-.196-.63-.589v-.027c.042-1.387,.056-2.479,.056-3.488,0-.729,0-1.415-.028-2.157v-.014c0-.351,.322-.547,.631-.547s.616,.183,.616,.561v.28c0,.042,0,.07,.014,.07,.015,0,.028-.028,.057-.057,.518-.602,1.288-.896,2.03-.896,1.177,0,2.298,.757,2.354,2.298,.014,.448,.028,1.456,.028,2.409,0,.588,0,1.148-.015,1.526-.014,.435-.321,.631-.63,.631s-.616-.21-.616-.589v-.014Z"/><path class="cls-17" d="M807.724,300.26c-.182,0-.56-.084-.756-.967-.028-.098-.042-.14-.057-.14-.014,0-.042,.042-.084,.084-.56,.7-1.372,1.092-2.283,1.092-1.891,0-3.333-1.372-3.333-3.459,0-2.018,1.429-3.446,3.333-3.446,.812,0,1.541,.322,2.046,.854,.042,.042,.069,.056,.084,.056,.027,0,.042-.027,.042-.126,0-1.639-.028-3.222-.042-3.81-.015-.532,.42-.631,.63-.631,.309,0,.616,.196,.616,.616v.057c-.028,.476-.042,1.484-.042,2.675,0,5.211,0,5.281,.448,6.149,.057,.112,.084,.225,.084,.337,0,.378-.35,.658-.687,.658Zm-1.022-3.39c0-1.443-.938-2.354-2.129-2.354-1.219,0-2.144,.896-2.144,2.354,0,1.442,.938,2.339,2.144,2.339,1.19,0,2.129-.91,2.129-2.339Z"/><path class="cls-17" d="M813.141,300.386c-1.863,0-3.292-1.401-3.292-3.46,0-2.115,1.499-3.544,3.25-3.544,1.862,0,2.941,1.415,2.941,2.438,0,.616-.393,1.093-1.219,1.12-.309,.015-.771,.015-1.247,.015-.966,0-2.045-.015-2.353-.015-.112,0-.127,.099-.127,.267,0,1.288,.953,2.059,2.06,2.059,.925,0,1.484-.434,1.891-.882,.126-.141,.267-.196,.406-.196,.322,0,.631,.294,.631,.63,0,.141-.057,.28-.183,.421-.644,.672-1.414,1.148-2.759,1.148Zm-.028-5.953c-1.135,0-1.891,.994-1.891,1.4,0,.099,.098,.112,1.555,.112,.63,0,1.303,0,1.681-.014,.224-.015,.336-.141,.336-.322,0-.322-.406-1.177-1.681-1.177Z"/><path class="cls-17" d="M822.507,300.134c-.154,0-.322-.07-.448-.225-1.19-1.471-1.905-2.367-1.947-2.367-.027,0-.056,.014-.084,.056-.532,.645-1.652,2.06-1.863,2.312-.126,.168-.294,.225-.448,.225-.336,0-.658-.295-.658-.631,0-.126,.042-.252,.141-.378,.518-.603,1.345-1.527,2.073-2.396,.027-.042,.056-.084,.056-.112,0-.027-.014-.056-.042-.084-.631-.771-1.303-1.555-1.751-2.045-.112-.112-.154-.252-.154-.364,0-.336,.336-.645,.673-.645,.14,0,.294,.07,.42,.225q1.597,2.003,1.639,2.003c.028,0,.042-.014,.057-.028,.574-.7,1.176-1.471,1.54-1.961,.126-.154,.28-.224,.435-.224,.336,0,.658,.308,.658,.645,0,.126-.042,.252-.14,.363-.028,.043-1.766,2.046-1.766,2.13,0,.027,.015,.042,.042,.084,.729,.854,1.556,1.765,2.088,2.396,.098,.126,.14,.252,.14,.378,0,.35-.322,.645-.658,.645Z"/><path class="cls-17" d="M824.492,299.405c0-.603,.532-.854,.882-.854,.379,0,.883,.35,.883,.854,0,.574-.532,.896-.883,.896-.868,0-.882-.784-.882-.896Z"/><path class="cls-17" d="M832.923,299.699c.014-.574,.028-1.639,.028-2.508,0-.56-.015-1.036-.028-1.26-.07-1.023-.7-1.443-1.4-1.443-.869,0-1.821,.658-1.863,1.611-.015,.28-.015,.7-.015,1.219,0,.658,0,1.456,.028,2.381v.014c0,.393-.308,.589-.616,.589s-.63-.196-.63-.589v-.027c.042-1.415,.056-3.811,.056-5.897,0-1.442-.014-2.745-.014-3.46,0-.351,.322-.546,.644-.546,.309,0,.603,.182,.603,.56,0,1.051-.014,3.292-.027,3.712,0,.043,0,.085,.014,.085s.028-.015,.07-.057c.462-.434,1.204-.7,1.961-.7,1.177,0,2.367,.658,2.423,2.354,.015,.448,.028,1.456,.028,2.396,0,.588,0,1.148-.014,1.526-.015,.435-.322,.645-.631,.645s-.616-.21-.616-.589v-.014Z"/><path class="cls-17" d="M838.228,294.656c-.211,0-.211,.057-.211,.168,0,.519-.042,1.808-.042,2.76,0,1.051,.042,1.639,.925,1.639,.112,0,.225-.014,.336-.027h.084c.337,0,.519,.252,.519,.518,0,.645-.756,.645-1.093,.645-1.975,0-1.975-1.709-1.975-2.325,0-.826,.028-2.339,.028-2.983v-.21c0-.168-.07-.183-.196-.183h-.547c-.364,0-.546-.294-.546-.574s.168-.546,.546-.546h.532c.196,0,.211-.042,.211-.21,0-.028,.027-.448,.027-.854,0-.141,0-.28-.014-.393v-.042c0-.351,.294-.532,.588-.532,.645,0,.645,.519,.645,.771,0,.42-.028,1.051-.028,1.051,0,.195,.042,.21,.196,.21h1.037c.364,0,.546,.28,.546,.561s-.182,.56-.546,.56h-1.022Z"/><path class="cls-17" d="M849.473,299.699c.014-.546,.014-1.568,.014-2.451,0-.631,0-1.19-.014-1.429-.057-.911-.547-1.274-1.121-1.274-.784,0-1.695,.7-1.737,1.652-.014,.28-.014,.7-.014,1.232,0,.645,0,1.443,.028,2.27,.014,.42-.322,.63-.603,.63-.294,0-.574-.195-.574-.616v-.014c.014-.546,.014-1.568,.014-2.451,0-.631,0-1.19-.014-1.429-.057-.925-.547-1.303-1.106-1.303-.785,0-1.695,.729-1.737,1.709-.014,.224-.014,.532-.014,.91,0,.7,.014,1.611,.042,2.563,.014,.546-.379,.645-.589,.645-.308,0-.616-.21-.616-.631v-.027c.028-1.415,.057-2.55,.057-3.601,0-.7-.015-1.358-.028-2.045v-.014c0-.378,.294-.574,.603-.574,.28,0,.574,.182,.588,.574l.014,.14c0,.057,0,.07,.015,.07,.014,0,.027-.014,.042-.028,.448-.518,1.12-.798,1.765-.798,.784,0,1.541,.406,1.877,1.261,.547-.854,1.359-1.247,2.144-1.247,1.093,0,2.101,.799,2.143,2.27,.015,.574,.028,2.199,.028,3.291v.673c0,.462-.308,.687-.603,.687-.308,0-.602-.225-.602-.631v-.014Z"/><path class="cls-17" d="M853.038,299.602c.028-.995,.028-2.998,.028-4.889s0-3.685-.028-4.259c-.014-.477,.351-.687,.658-.687,.322,0,.645,.21,.645,.631v.027c-.014,.673-.028,2.802-.028,4.959,0,1.569,0,3.166,.028,4.217,.014,.504-.406,.658-.645,.658-.336,0-.658-.21-.658-.645v-.014Z"/></g><g><polygon class="cls-4" points="810.161 252 810.161 282 834.161 282 834.161 261.677 824.161 252 810.161 252"/><polyline class="cls-6" points="824.161 252 824.161 261.677 834.161 261.677"/></g></g></svg>